<svg width="127" height="21" viewBox="0 0 127 21" fill="none" xmlns="http://www.w3.org/2000/svg">
<path d="M67.4669 0.233905C67.5865 0.242472 67.7061 0.251038 67.8256 0.259602C70.4297 0.448306 73.0031 0.727254 75.5524 1.29229C75.6862 1.32149 75.8201 1.34886 75.9546 1.37494C77.0496 1.59941 78.1693 1.96442 79.1811 2.43015C79.2468 2.46023 79.2468 2.46023 79.3139 2.49091C79.4975 2.5799 79.6577 2.65945 79.805 2.80085C80.3313 3.28148 80.9807 3.18784 81.6585 3.17924C81.7901 3.17923 81.9217 3.17944 82.0533 3.17986C82.3983 3.18048 82.7432 3.17865 83.0882 3.17615C83.6412 3.1725 84.1943 3.17237 84.7474 3.17269C84.9402 3.17241 85.1329 3.17094 85.3257 3.16931C85.4439 3.16895 85.5621 3.16861 85.6803 3.16831C85.7337 3.16755 85.7871 3.16678 85.8421 3.16599C86.1847 3.16636 86.4337 3.20765 86.6954 3.44288C86.7356 3.49107 86.7356 3.49107 86.7767 3.54023C86.8042 3.57235 86.8318 3.60448 86.8601 3.63757C87.023 3.86505 87.0112 4.12202 86.9835 4.3873C86.8826 4.84244 86.7252 5.22811 86.4227 5.5896C86.3911 5.62778 86.3595 5.66597 86.3269 5.7053C85.9377 6.12849 85.3831 6.37855 84.8028 6.42125C84.7442 6.42381 84.6856 6.42636 84.6252 6.42899C83.8774 6.46701 83.1914 6.50472 82.4969 6.7919C82.4294 6.81952 82.3619 6.84713 82.2923 6.87558C81.6341 7.17056 80.9185 7.63093 80.6391 8.31227C80.5809 8.48761 80.5285 8.6637 80.478 8.84127C80.4399 8.96785 80.4016 9.09437 80.3632 9.22083C80.3355 9.31258 80.3355 9.31258 80.3072 9.40618C80.2356 9.63726 80.1569 9.8649 80.0714 10.0914C80.0468 10.1572 80.0222 10.223 79.9969 10.2908C79.9149 10.4581 79.8394 10.5552 79.6928 10.672C79.4879 10.7386 79.3475 10.7481 79.132 10.7267C78.9423 10.6206 78.8302 10.5552 78.7607 10.3516C78.7043 9.96764 78.8204 9.68497 78.9708 9.33312C79.0181 9.21601 79.0652 9.09881 79.1121 8.98153C79.1349 8.92468 79.1578 8.86784 79.1814 8.80928C79.4807 8.0494 79.6203 7.26577 79.7489 6.464C79.7166 6.47992 79.6842 6.49584 79.651 6.51225C77.4599 7.58326 75.1144 8.04977 72.7037 8.39323C72.2313 8.46058 72.2313 8.46058 71.7614 8.54198C71.347 8.61724 70.9282 8.6579 70.5094 8.70123C70.4646 8.70591 70.4198 8.71058 70.3737 8.7154C69.6778 8.78764 68.9813 8.84972 68.2836 8.90275C68.244 8.90583 68.2044 8.90891 68.1636 8.91208C67.8381 8.93711 67.5124 8.95781 67.1865 8.9779C67.1157 8.98243 67.045 8.98696 66.972 8.99163C65.5224 9.08342 64.0775 9.10274 62.6252 9.09789C62.4019 9.0973 62.1786 9.09732 61.9554 9.09734C60.2105 9.0973 58.4692 9.0698 56.7272 8.96424C56.6709 8.96089 56.6146 8.95755 56.5566 8.95411C54.7128 8.84315 52.8562 8.68516 51.0349 8.37675C50.9418 8.36143 50.8487 8.34613 50.7556 8.33085C45.9215 7.53232 45.9215 7.53232 44.1929 6.40935C44.4779 7.89296 44.9022 9.31577 45.5949 10.672C45.6224 10.7265 45.6224 10.7265 45.6505 10.7821C46.0665 11.5987 46.5869 12.3611 47.1652 13.0766C47.2054 13.1264 47.2456 13.1761 47.287 13.2274C47.9992 14.0912 48.7932 14.9066 49.6889 15.5905C49.7562 15.6439 49.8234 15.6973 49.8905 15.7509C50.3129 16.087 50.7397 16.402 51.2031 16.6835C51.2419 16.7072 51.2807 16.7308 51.3206 16.7552C53.9351 18.3406 56.7855 19.3301 59.8523 19.6195C59.94 19.628 60.0278 19.6371 60.1152 19.6482C60.4671 19.6912 60.8145 19.6981 61.1689 19.6985C61.2312 19.6987 61.2935 19.6988 61.3578 19.699C61.4895 19.6993 61.6212 19.6994 61.753 19.6994C61.9502 19.6995 62.1475 19.7005 62.3447 19.7016C66.5291 19.712 70.7473 18.3601 74.0285 15.8091C74.0856 15.7653 74.1426 15.7214 74.2014 15.6761C74.6838 15.2988 75.1443 14.9005 75.5657 14.4591C75.6312 14.3918 75.6312 14.3918 75.698 14.3231C75.7846 14.2338 75.8699 14.1433 75.9538 14.0517C76.1665 13.8337 76.309 13.7039 76.6265 13.694C76.8362 13.7044 76.943 13.7524 77.0955 13.893C77.1993 14.0398 77.2545 14.1615 77.2602 14.3404C77.1883 14.7113 76.8517 14.9766 76.5859 15.2313C76.5037 15.3101 76.423 15.3904 76.3426 15.4708C76.0688 15.7433 75.7873 16.0023 75.4867 16.2463C75.4405 16.2838 75.4405 16.2838 75.3934 16.3221C74.496 17.0481 73.5731 17.6869 72.5704 18.2684C72.5286 18.2928 72.4867 18.3173 72.4436 18.3425C71.253 19.0326 69.9572 19.5396 68.6446 19.9625C68.5866 19.9814 68.5286 20.0003 68.4688 20.0197C65.2924 21.0367 61.788 21.2436 58.4938 20.7276C58.4323 20.7183 58.3707 20.709 58.3074 20.6994C57.7554 20.6142 57.2139 20.5112 56.679 20.3513C56.5245 20.3053 56.3704 20.2622 56.2146 20.2211C52.6115 19.2646 48.955 17.2703 46.6112 14.3703C46.5313 14.2723 46.449 14.176 46.3645 14.0817C45.6805 13.3169 45.1268 12.4418 44.6415 11.5464C44.6145 11.4977 44.6145 11.4977 44.587 11.448C44.0993 10.565 43.6685 9.61325 43.4182 8.63975C43.3277 8.2897 43.223 8.03345 42.9591 7.7756C42.9262 7.7396 42.8934 7.7036 42.8596 7.66651C42.0593 6.82456 40.9059 6.52369 39.7659 6.46742C39.0411 6.42127 38.4126 6.35876 37.8556 5.86285C37.8218 5.83545 37.7879 5.80804 37.7531 5.77981C37.3159 5.39915 37.057 4.82748 37.0023 4.26284C36.9906 3.98923 37.0191 3.79884 37.1826 3.56755C37.5617 3.19555 37.5617 3.19555 37.8556 3.17849C37.8986 3.17864 37.9416 3.17878 37.986 3.17893C38.0355 3.17895 38.085 3.17897 38.136 3.17898C38.1902 3.17927 38.2444 3.17956 38.3002 3.17985C38.4188 3.18 38.5373 3.18015 38.6559 3.18029C38.7189 3.18046 38.7818 3.18062 38.8467 3.1808C39.1801 3.18142 39.5134 3.1803 39.8467 3.17945C40.271 3.17845 40.6952 3.17798 41.1194 3.17956C41.4622 3.18079 41.8049 3.18016 42.1476 3.1783C42.2781 3.17793 42.4085 3.17824 42.539 3.17925C42.722 3.18057 42.9048 3.17952 43.0878 3.17793C43.1413 3.17888 43.1948 3.17983 43.2499 3.18081C43.6736 3.1732 43.883 3.01562 44.1929 2.7478C44.3637 2.64938 44.3637 2.64938 44.5153 2.57852C44.572 2.55183 44.6287 2.52514 44.6872 2.49765C44.7461 2.47087 44.8051 2.44408 44.8658 2.41649C44.9281 2.38798 44.9903 2.35947 45.0544 2.3301C45.9762 1.91369 46.9097 1.66178 47.8947 1.42273C48.0289 1.38981 48.1626 1.35579 48.2961 1.32029C50.2554 0.810148 52.3078 0.589293 54.3232 0.414479C54.5978 0.390295 54.8721 0.363507 55.1464 0.336373C55.2662 0.324619 55.386 0.31287 55.5059 0.301196C55.589 0.292966 55.6722 0.284497 55.7553 0.275755C59.6091 -0.120828 63.6098 -0.0487226 67.4669 0.233905Z" fill="#E24105"/>
<path d="M61.8253 1.33359C61.8795 1.33354 61.9337 1.33349 61.9895 1.33344C63.474 1.33227 64.9553 1.34939 66.4381 1.4224C66.5084 1.42585 66.5787 1.4293 66.6511 1.43285C67.8498 1.49347 69.0448 1.59002 70.2376 1.71956C70.2798 1.72413 70.322 1.7287 70.3655 1.73341C72.48 1.96446 74.687 2.23754 76.7106 2.89237C76.847 2.93619 76.9838 2.97866 77.1206 3.02112C79.3726 3.72664 79.3726 3.72664 79.8695 4.46956C79.9188 4.5716 79.9188 4.5716 79.9398 4.73555C79.6265 5.40168 78.8178 5.69909 78.1662 5.96517C78.0956 5.99492 78.0956 5.99492 78.0236 6.02527C77.4697 6.24233 77.0409 6.07271 76.4904 5.90936C74.951 5.45496 73.3892 5.15014 71.8057 4.88562C71.6001 4.85127 71.3946 4.81582 71.1893 4.77995C69.7743 4.53605 68.3497 4.39969 66.9183 4.2881C66.8591 4.28348 66.8 4.27885 66.7391 4.27408C66.566 4.26065 66.3928 4.24752 66.2197 4.23452C66.17 4.23072 66.1203 4.22691 66.0691 4.22299C65.1782 4.15769 64.2885 4.12574 63.3952 4.12522C63.2988 4.125 63.2025 4.12476 63.1061 4.12452C62.8007 4.12389 62.4953 4.12396 62.1898 4.12415C62.1378 4.12417 62.0857 4.12418 62.0321 4.1242C59.7291 4.12456 59.7291 4.12456 57.4299 4.2437C57.3848 4.24715 57.3398 4.2506 57.2934 4.25416C53.8131 4.52381 50.0834 4.94141 46.7831 6.11738C46.3475 6.21351 45.9925 6.05243 45.6036 5.87637C45.5542 5.8543 45.5047 5.83223 45.4538 5.8095C44.9184 5.56483 44.4162 5.27821 44.0824 4.7902C44.0776 4.54796 44.1246 4.39676 44.2892 4.21979C45.5989 3.06472 47.7618 2.68759 49.4346 2.3693C49.6351 2.33084 49.8351 2.29032 50.0352 2.24962C52.0939 1.84166 54.2174 1.61136 56.3153 1.50779C56.442 1.50139 56.5687 1.49491 56.6954 1.48829C56.8088 1.48238 56.9222 1.47671 57.0356 1.47106C57.1998 1.46175 57.3626 1.44667 57.5261 1.42951C58.9462 1.28735 60.3995 1.33417 61.8253 1.33359Z" fill="white"/>
<path d="M61.5656 5.19297C61.885 5.1936 62.2043 5.19323 62.5237 5.1926C63.8769 5.19034 65.2196 5.20423 66.5685 5.31652C66.658 5.32327 66.7476 5.32993 66.8371 5.33646C69.5843 5.54056 72.5971 5.77404 75.2051 6.68277C75.0501 6.78349 74.9815 6.81215 74.8066 6.8448C74.7612 6.85347 74.7157 6.86215 74.6689 6.87108C74.6203 6.87995 74.5717 6.88882 74.5216 6.89796C74.4713 6.90739 74.421 6.91682 74.3692 6.92653C74.2664 6.94574 74.1637 6.9648 74.0609 6.98369C73.9321 7.00754 73.8036 7.03223 73.6751 7.05742C73.2533 7.1384 72.8347 7.20173 72.4071 7.24381C72.1995 7.26497 71.9975 7.29556 71.7931 7.33708C71.4981 7.39637 71.2034 7.43526 70.9043 7.46836C70.8436 7.47509 70.783 7.48181 70.7205 7.48874C70.1254 7.55228 69.5294 7.6051 68.933 7.65572C68.8252 7.66487 68.7174 7.67411 68.6097 7.68347C68.2099 7.71793 67.81 7.74795 67.4097 7.77577C67.3398 7.78073 67.27 7.78569 67.198 7.7908C65.6692 7.89701 64.1413 7.9021 62.6092 7.89932C62.2647 7.8987 61.9202 7.89907 61.5757 7.8997C59.1945 7.90338 56.8255 7.83506 54.4547 7.61182C54.3897 7.60585 54.3247 7.59988 54.2577 7.59373C52.883 7.46519 51.5162 7.25369 50.1542 7.03309C50.1142 7.02662 50.0743 7.02015 50.0331 7.01348C48.8803 6.82493 48.8803 6.82493 48.7344 6.68277C50.9082 6.10294 53.1116 5.74716 55.3511 5.5159C55.5952 5.49062 55.839 5.46337 56.0827 5.43458C57.9099 5.2199 59.7273 5.18935 61.5656 5.19297Z" fill="white"/>
<path d="M51.0353 13.8963C51.1938 13.9745 51.3234 14.0793 51.4594 14.19C51.5383 14.2508 51.6174 14.3114 51.6966 14.3719C51.7361 14.4024 51.7756 14.4328 51.8163 14.4642C53.4632 15.7088 55.5516 16.6012 57.5699 17.0577C57.89 17.1368 58.0329 17.2304 58.2138 17.5032C58.254 17.7472 58.2321 17.8535 58.1086 18.0702C57.9894 18.2136 57.9894 18.2136 57.8773 18.2683C57.4362 18.3074 57.052 18.2352 56.6329 18.1077C56.5748 18.0905 56.5167 18.0732 56.4567 18.0555C54.4387 17.4447 52.5646 16.5464 50.867 15.3172C50.8362 15.2949 50.8053 15.2726 50.7735 15.2496C50.2868 14.8942 50.2868 14.8942 50.194 14.6614C50.1699 14.4801 50.1538 14.3441 50.253 14.1832C50.4811 13.9104 50.6783 13.8379 51.0353 13.8963Z" fill="#E24105"/>
<path d="M38.3047 4.38721C39.8038 4.38721 41.3028 4.38721 42.8473 4.38721C42.8658 4.96431 42.8843 5.54141 42.9034 6.13601C42.7646 6.0695 42.6258 6.003 42.4828 5.93448C41.749 5.59276 40.9726 5.33223 40.1539 5.30558C40.1024 5.30384 40.0509 5.3021 39.9978 5.3003C39.8952 5.29735 39.7925 5.29541 39.6898 5.29464C39.2269 5.28335 38.807 5.14992 38.4729 4.82441C38.3047 4.54173 38.3047 4.54173 38.3047 4.38721Z" fill="white"/>
<path d="M48.0725 11.1982C48.2993 11.2021 48.4305 11.2416 48.5982 11.4015C48.7225 11.541 48.8378 11.686 48.9516 11.8338C49.1311 12.0586 49.3234 12.2725 49.5152 12.4874C49.7611 12.7639 49.8854 12.9179 49.8787 13.2831C49.8435 13.4769 49.732 13.5623 49.5762 13.678C49.3933 13.7671 49.2746 13.7582 49.0714 13.7326C48.898 13.6285 48.7638 13.4923 48.6228 13.3501C48.5733 13.3005 48.5239 13.2509 48.4729 13.1998C47.4778 12.1803 47.4778 12.1803 47.4808 11.6581C47.5146 11.4729 47.6366 11.3871 47.7815 11.2734C47.8685 11.1887 47.9518 11.2034 48.0725 11.1982Z" fill="#E24105"/>
<path d="M67.4669 0.233905C67.5865 0.242472 67.7061 0.251038 67.8256 0.259602C70.4297 0.448306 73.0031 0.727254 75.5524 1.29229C75.6862 1.32149 75.8201 1.34886 75.9546 1.37494C77.0496 1.59941 78.1693 1.96442 79.1811 2.43015C79.2468 2.46023 79.2468 2.46023 79.3139 2.49091C79.4975 2.5799 79.6577 2.65945 79.805 2.80085C80.3313 3.28148 80.9807 3.18784 81.6585 3.17924C81.7901 3.17923 81.9217 3.17944 82.0533 3.17986C82.3983 3.18048 82.7432 3.17865 83.0882 3.17615C83.6412 3.1725 84.1943 3.17237 84.7474 3.17269C84.9402 3.17241 85.1329 3.17094 85.3257 3.16931C85.4439 3.16895 85.5621 3.16861 85.6803 3.16831C85.7337 3.16755 85.7871 3.16678 85.8421 3.16599C86.1847 3.16636 86.4337 3.20765 86.6954 3.44288C86.7356 3.49107 86.7356 3.49107 86.7767 3.54023C86.8042 3.57235 86.8318 3.60448 86.8601 3.63757C87.023 3.86505 87.0112 4.12202 86.9835 4.3873C86.8826 4.84244 86.7252 5.22811 86.4227 5.5896C86.3911 5.62778 86.3595 5.66597 86.3269 5.7053C85.9377 6.12849 85.3831 6.37855 84.8028 6.42125C84.7442 6.42381 84.6856 6.42636 84.6252 6.42899C83.8774 6.46701 83.1914 6.50472 82.4969 6.7919C82.4294 6.81952 82.3619 6.84713 82.2923 6.87558C81.6341 7.17056 80.9185 7.63093 80.6391 8.31227C80.5809 8.48761 80.5285 8.6637 80.478 8.84127C80.4399 8.96785 80.4016 9.09437 80.3632 9.22083C80.3355 9.31258 80.3355 9.31258 80.3072 9.40618C80.2356 9.63726 80.1569 9.8649 80.0714 10.0914C80.0468 10.1572 80.0222 10.223 79.9969 10.2908C79.9149 10.4581 79.8394 10.5552 79.6928 10.672C79.4879 10.7386 79.3475 10.7481 79.132 10.7267C78.9423 10.6206 78.8302 10.5552 78.7607 10.3516C78.7043 9.96764 78.8204 9.68497 78.9708 9.33312C79.0181 9.21601 79.0652 9.09881 79.1121 8.98153C79.1349 8.92468 79.1578 8.86784 79.1814 8.80928C79.4807 8.0494 79.6203 7.26577 79.7489 6.464C79.7166 6.47992 79.6842 6.49584 79.651 6.51225C77.4599 7.58326 75.1144 8.04977 72.7037 8.39323C72.2313 8.46058 72.2313 8.46058 71.7614 8.54198C71.347 8.61724 70.9282 8.6579 70.5094 8.70123C70.4646 8.70591 70.4198 8.71058 70.3737 8.7154C69.6778 8.78764 68.9813 8.84972 68.2836 8.90275C68.244 8.90583 68.2044 8.90891 68.1636 8.91208C67.8381 8.93711 67.5124 8.95781 67.1865 8.9779C67.1157 8.98243 67.045 8.98696 66.972 8.99163C65.5224 9.08342 64.0775 9.10274 62.6252 9.09789C62.4019 9.0973 62.1786 9.09732 61.9554 9.09734C60.2105 9.0973 58.4692 9.0698 56.7272 8.96424C56.6709 8.96089 56.6146 8.95755 56.5566 8.95411C54.7128 8.84315 52.8562 8.68516 51.0349 8.37675C50.9418 8.36143 50.8487 8.34613 50.7556 8.33085C45.9215 7.53232 45.9215 7.53232 44.1929 6.40935C44.4779 7.89296 44.9022 9.31577 45.5949 10.672C45.6224 10.7265 45.6224 10.7265 45.6505 10.7821C46.0665 11.5987 46.5869 12.3611 47.1652 13.0766C47.2054 13.1264 47.2456 13.1761 47.287 13.2274C47.9992 14.0912 48.7932 14.9066 49.6889 15.5905C49.7562 15.6439 49.8234 15.6973 49.8905 15.7509C50.3129 16.087 50.7397 16.402 51.2031 16.6835C51.2419 16.7072 51.2807 16.7308 51.3206 16.7552C53.9351 18.3406 56.7855 19.3301 59.8523 19.6195C59.94 19.628 60.0278 19.6371 60.1152 19.6482C60.4671 19.6912 60.8145 19.6981 61.1689 19.6985C61.2312 19.6987 61.2935 19.6988 61.3578 19.699C61.4895 19.6993 61.6212 19.6994 61.753 19.6994C61.9502 19.6995 62.1475 19.7005 62.3447 19.7016C66.5291 19.712 70.7473 18.3601 74.0285 15.8091C74.0856 15.7653 74.1426 15.7214 74.2014 15.6761C74.6838 15.2988 75.1443 14.9005 75.5657 14.4591C75.6312 14.3918 75.6312 14.3918 75.698 14.3231C75.7846 14.2338 75.8699 14.1433 75.9538 14.0517C76.1665 13.8337 76.309 13.7039 76.6265 13.694C76.8362 13.7044 76.943 13.7524 77.0955 13.893C77.1993 14.0398 77.2545 14.1615 77.2602 14.3404C77.1883 14.7113 76.8517 14.9766 76.5859 15.2313C76.5037 15.3101 76.423 15.3904 76.3426 15.4708C76.0688 15.7433 75.7873 16.0023 75.4867 16.2463C75.4405 16.2838 75.4405 16.2838 75.3934 16.3221C74.496 17.0481 73.5731 17.6869 72.5704 18.2684C72.5286 18.2928 72.4867 18.3173 72.4436 18.3425C71.253 19.0326 69.9572 19.5396 68.6446 19.9625C68.5866 19.9814 68.5286 20.0003 68.4688 20.0197C65.2924 21.0367 61.788 21.2436 58.4938 20.7276C58.4323 20.7183 58.3707 20.709 58.3074 20.6994C57.7554 20.6142 57.2139 20.5112 56.679 20.3513C56.5245 20.3053 56.3704 20.2622 56.2146 20.2211C52.6115 19.2646 48.955 17.2703 46.6112 14.3703C46.5313 14.2723 46.449 14.176 46.3645 14.0817C45.6805 13.3169 45.1268 12.4418 44.6415 11.5464C44.6145 11.4977 44.6145 11.4977 44.587 11.448C44.0993 10.565 43.6685 9.61325 43.4182 8.63975C43.3277 8.2897 43.223 8.03345 42.9591 7.7756C42.9262 7.7396 42.8934 7.7036 42.8596 7.66651C42.0593 6.82456 40.9059 6.52369 39.7659 6.46742C39.0411 6.42127 38.4126 6.35876 37.8556 5.86285C37.8218 5.83545 37.7879 5.80804 37.7531 5.77981C37.3159 5.39915 37.057 4.82748 37.0023 4.26284C36.9906 3.98923 37.0191 3.79884 37.1826 3.56755C37.5617 3.19555 37.5617 3.19555 37.8556 3.17849C37.8986 3.17864 37.9416 3.17878 37.986 3.17893C38.0355 3.17895 38.085 3.17897 38.136 3.17898C38.1902 3.17927 38.2444 3.17956 38.3002 3.17985C38.4188 3.18 38.5373 3.18015 38.6559 3.18029C38.7189 3.18046 38.7818 3.18062 38.8467 3.1808C39.1801 3.18142 39.5134 3.1803 39.8467 3.17945C40.271 3.17845 40.6952 3.17798 41.1194 3.17956C41.4622 3.18079 41.8049 3.18016 42.1476 3.1783C42.2781 3.17793 42.4085 3.17824 42.539 3.17925C42.722 3.18057 42.9048 3.17952 43.0878 3.17793C43.1413 3.17888 43.1948 3.17983 43.2499 3.18081C43.6736 3.1732 43.883 3.01562 44.1929 2.7478C44.3637 2.64938 44.3637 2.64938 44.5153 2.57852C44.572 2.55183 44.6287 2.52514 44.6872 2.49765C44.7461 2.47087 44.8051 2.44408 44.8658 2.41649C44.9281 2.38798 44.9903 2.35947 45.0544 2.3301C45.9762 1.91369 46.9097 1.66178 47.8947 1.42273C48.0289 1.38981 48.1626 1.35579 48.2961 1.32029C50.2554 0.810148 52.3078 0.589293 54.3232 0.414479C54.5978 0.390295 54.8721 0.363507 55.1464 0.336373C55.2662 0.324619 55.386 0.31287 55.5059 0.301196C55.589 0.292966 55.6722 0.284497 55.7553 0.275755C59.6091 -0.120828 63.6098 -0.0487226 67.4669 0.233905Z" fill="#E24105"/>
<path d="M61.8253 1.33359C61.8795 1.33354 61.9337 1.33349 61.9895 1.33344C63.474 1.33227 64.9553 1.34939 66.4381 1.4224C66.5084 1.42585 66.5787 1.4293 66.6511 1.43285C67.8498 1.49347 69.0448 1.59002 70.2376 1.71956C70.2798 1.72413 70.322 1.7287 70.3655 1.73341C72.48 1.96446 74.687 2.23754 76.7106 2.89237C76.847 2.93619 76.9838 2.97866 77.1206 3.02112C79.3726 3.72664 79.3726 3.72664 79.8695 4.46956C79.9188 4.5716 79.9188 4.5716 79.9398 4.73555C79.6265 5.40168 78.8178 5.69909 78.1662 5.96517C78.0956 5.99492 78.0956 5.99492 78.0236 6.02527C77.4697 6.24233 77.0409 6.07271 76.4904 5.90936C74.951 5.45496 73.3892 5.15014 71.8057 4.88562C71.6001 4.85127 71.3946 4.81582 71.1893 4.77995C69.7743 4.53605 68.3497 4.39969 66.9183 4.2881C66.8591 4.28348 66.8 4.27885 66.7391 4.27408C66.566 4.26065 66.3928 4.24752 66.2197 4.23452C66.17 4.23072 66.1203 4.22691 66.0691 4.22299C65.1782 4.15769 64.2885 4.12574 63.3952 4.12522C63.2988 4.125 63.2025 4.12476 63.1061 4.12452C62.8007 4.12389 62.4953 4.12396 62.1898 4.12415C62.1378 4.12417 62.0857 4.12418 62.0321 4.1242C59.7291 4.12456 59.7291 4.12456 57.4299 4.2437C57.3848 4.24715 57.3398 4.2506 57.2934 4.25416C53.8131 4.52381 50.0834 4.94141 46.7831 6.11738C46.3475 6.21351 45.9925 6.05243 45.6036 5.87637C45.5542 5.8543 45.5047 5.83223 45.4538 5.8095C44.9184 5.56483 44.4162 5.27821 44.0824 4.7902C44.0776 4.54796 44.1246 4.39676 44.2892 4.21979C45.5989 3.06472 47.7618 2.68759 49.4346 2.3693C49.6351 2.33084 49.8351 2.29032 50.0352 2.24962C52.0939 1.84166 54.2174 1.61136 56.3153 1.50779C56.442 1.50139 56.5687 1.49491 56.6954 1.48829C56.8088 1.48238 56.9222 1.47671 57.0356 1.47106C57.1998 1.46175 57.3626 1.44667 57.5261 1.42951C58.9462 1.28735 60.3995 1.33417 61.8253 1.33359Z" fill="white"/>
<path d="M61.5656 5.19297C61.885 5.1936 62.2043 5.19323 62.5237 5.1926C63.8769 5.19034 65.2196 5.20423 66.5685 5.31652C66.658 5.32327 66.7476 5.32993 66.8371 5.33646C69.5843 5.54056 72.5971 5.77404 75.2051 6.68277C75.0501 6.78349 74.9815 6.81215 74.8066 6.8448C74.7612 6.85347 74.7157 6.86215 74.6689 6.87108C74.6203 6.87995 74.5717 6.88882 74.5216 6.89796C74.4713 6.90739 74.421 6.91682 74.3692 6.92653C74.2664 6.94574 74.1637 6.9648 74.0609 6.98369C73.9321 7.00754 73.8036 7.03223 73.6751 7.05742C73.2533 7.1384 72.8347 7.20173 72.4071 7.24381C72.1995 7.26497 71.9975 7.29556 71.7931 7.33708C71.4981 7.39637 71.2034 7.43526 70.9043 7.46836C70.8436 7.47509 70.783 7.48181 70.7205 7.48874C70.1254 7.55228 69.5294 7.6051 68.933 7.65572C68.8252 7.66487 68.7174 7.67411 68.6097 7.68347C68.2099 7.71793 67.81 7.74795 67.4097 7.77577C67.3398 7.78073 67.27 7.78569 67.198 7.7908C65.6692 7.89701 64.1413 7.9021 62.6092 7.89932C62.2647 7.8987 61.9202 7.89907 61.5757 7.8997C59.1945 7.90338 56.8255 7.83506 54.4547 7.61182C54.3897 7.60585 54.3247 7.59988 54.2577 7.59373C52.883 7.46519 51.5162 7.25369 50.1542 7.03309C50.1142 7.02662 50.0743 7.02015 50.0331 7.01348C48.8803 6.82493 48.8803 6.82493 48.7344 6.68277C50.9082 6.10294 53.1116 5.74716 55.3511 5.5159C55.5952 5.49062 55.839 5.46337 56.0827 5.43458C57.9099 5.2199 59.7273 5.18935 61.5656 5.19297Z" fill="white"/>
<path d="M51.0353 13.8963C51.1938 13.9745 51.3234 14.0793 51.4594 14.19C51.5383 14.2508 51.6174 14.3114 51.6966 14.3719C51.7361 14.4024 51.7756 14.4328 51.8163 14.4642C53.4632 15.7088 55.5516 16.6012 57.5699 17.0577C57.89 17.1368 58.0329 17.2304 58.2138 17.5032C58.254 17.7472 58.2321 17.8535 58.1086 18.0702C57.9894 18.2136 57.9894 18.2136 57.8773 18.2683C57.4362 18.3074 57.052 18.2352 56.6329 18.1077C56.5748 18.0905 56.5167 18.0732 56.4567 18.0555C54.4387 17.4447 52.5646 16.5464 50.867 15.3172C50.8362 15.2949 50.8053 15.2726 50.7735 15.2496C50.2868 14.8942 50.2868 14.8942 50.194 14.6614C50.1699 14.4801 50.1538 14.3441 50.253 14.1832C50.4811 13.9104 50.6783 13.8379 51.0353 13.8963Z" fill="#E24105"/>
<path d="M38.3047 4.38721C39.8038 4.38721 41.3028 4.38721 42.8473 4.38721C42.8658 4.96431 42.8843 5.54141 42.9034 6.13601C42.7646 6.0695 42.6258 6.003 42.4828 5.93448C41.749 5.59276 40.9726 5.33223 40.1539 5.30558C40.1024 5.30384 40.0509 5.3021 39.9978 5.3003C39.8952 5.29735 39.7925 5.29541 39.6898 5.29464C39.2269 5.28335 38.807 5.14992 38.4729 4.82441C38.3047 4.54173 38.3047 4.54173 38.3047 4.38721Z" fill="white"/>
<path d="M48.0725 11.1982C48.2993 11.2021 48.4305 11.2416 48.5982 11.4015C48.7225 11.541 48.8378 11.686 48.9516 11.8338C49.1311 12.0586 49.3234 12.2725 49.5152 12.4874C49.7611 12.7639 49.8854 12.9179 49.8787 13.2831C49.8435 13.4769 49.732 13.5623 49.5762 13.678C49.3933 13.7671 49.2746 13.7582 49.0714 13.7326C48.898 13.6285 48.7638 13.4923 48.6228 13.3501C48.5733 13.3005 48.5239 13.2509 48.4729 13.1998C47.4778 12.1803 47.4778 12.1803 47.4808 11.6581C47.5146 11.4729 47.6366 11.3871 47.7815 11.2734C47.8685 11.1887 47.9518 11.2034 48.0725 11.1982Z" fill="#E24105"/>
<path d="M1.428 15.844H1.404C1.228 15.844 1.008 15.684 0.744 15.364C0.48 15.036 0.348 14.752 0.348 14.512C0.348 14.264 0.58 13.168 1.044 11.224C1.516 9.28 1.752 8.052 1.752 7.54C1.752 7.22 1.868 7.06 2.1 7.06C2.292 7.06 2.524 7.252 2.796 7.636C3.068 8.012 3.204 8.372 3.204 8.716C3.204 8.924 3.1 9.456 2.892 10.312C3.548 9.44 4.164 8.712 4.74 8.128C5.316 7.536 5.708 7.24 5.916 7.24C6.132 7.24 6.348 7.332 6.564 7.516C6.78 7.692 6.888 7.848 6.888 7.984C6.888 8.112 6.684 8.368 6.276 8.752C5.868 9.136 5.364 9.624 4.764 10.216C4.164 10.808 3.7 11.36 3.372 11.872C3.372 12.488 3.728 13.108 4.44 13.732C4.656 13.916 4.944 14.108 5.304 14.308C5.664 14.5 5.944 14.668 6.144 14.812C6.352 14.948 6.456 15.088 6.456 15.232C6.456 15.64 6.168 15.844 5.592 15.844C5.016 15.844 4.396 15.612 3.732 15.148C3.068 14.676 2.572 14.052 2.244 13.276C2.036 13.868 1.908 14.3 1.86 14.572C1.812 14.836 1.776 15.012 1.752 15.1C1.736 15.188 1.72 15.26 1.704 15.316C1.688 15.364 1.672 15.42 1.656 15.484C1.64 15.548 1.624 15.6 1.608 15.64C1.592 15.672 1.576 15.704 1.56 15.736C1.512 15.808 1.468 15.844 1.428 15.844ZM13.4467 11.344C13.7668 11.344 13.9948 11.376 14.1308 11.44C14.2748 11.496 14.3468 11.604 14.3468 11.764C14.3468 11.98 13.9988 12.2 13.3027 12.424C13.3188 13.032 13.3268 13.616 13.3268 14.176C13.3268 14.728 13.2828 15.144 13.1948 15.424C13.1068 15.696 12.9668 15.832 12.7747 15.832C12.5828 15.832 12.4308 15.736 12.3188 15.544C12.2148 15.344 12.1267 15.02 12.0547 14.572C11.9908 14.124 11.9228 13.532 11.8508 12.796C11.0348 12.98 10.4468 13.128 10.0868 13.24C9.46275 14.968 9.04675 15.832 8.83875 15.832C8.67075 15.832 8.44675 15.72 8.16675 15.496C7.89475 15.272 7.75875 15.04 7.75875 14.8C7.75875 14.664 7.91475 14.24 8.22675 13.528C8.09075 13.44 7.97075 13.316 7.86675 13.156C7.77075 12.988 7.72275 12.828 7.72275 12.676C7.72275 12.412 8.11875 12.16 8.91075 11.92C8.97475 11.76 9.03875 11.58 9.10275 11.38C9.17475 11.172 9.34675 10.692 9.61875 9.94C9.89875 9.188 10.1187 8.56 10.2787 8.056C10.3507 7.816 10.5987 7.592 11.0228 7.384C11.4548 7.176 11.7908 7.072 12.0308 7.072C12.3108 7.072 12.5588 7.46 12.7747 8.236C12.9988 9.012 13.1548 10.048 13.2428 11.344H13.4467ZM10.6748 11.548C10.9148 11.516 11.2628 11.476 11.7188 11.428C11.6948 11.196 11.6548 10.8 11.5988 10.24C11.5508 9.68 11.5148 9.276 11.4908 9.028C11.3548 9.476 11.0828 10.316 10.6748 11.548ZM16.3373 7.036C16.9613 7.036 17.6413 7.164 18.3773 7.42C19.1213 7.676 19.8093 8.012 20.4413 8.428C21.0813 8.844 21.6133 9.344 22.0373 9.928C22.4693 10.512 22.6853 11.104 22.6853 11.704C22.6853 12.152 22.3213 12.712 21.5933 13.384C20.8733 14.048 20.0373 14.624 19.0853 15.112C18.1333 15.6 17.3533 15.844 16.7453 15.844C16.6093 15.844 16.3893 15.668 16.0853 15.316C15.7893 14.956 15.6413 14.692 15.6413 14.524C15.6413 14.196 15.8573 13.284 16.2893 11.788C16.7293 10.284 17.0013 9.252 17.1053 8.692C16.8173 8.5 16.5773 8.272 16.3853 8.008C16.1933 7.736 16.0973 7.508 16.0973 7.324C16.0973 7.132 16.1773 7.036 16.3373 7.036ZM20.9573 11.368C20.9573 11.112 20.7213 10.776 20.2493 10.36C19.7773 9.936 19.2293 9.584 18.6053 9.304C18.5573 9.904 18.2173 11.188 17.5853 13.156C17.5533 13.26 17.5013 13.432 17.4293 13.672C17.3653 13.904 17.3173 14.06 17.2853 14.14C18.0693 13.876 18.8773 13.432 19.7093 12.808C20.5413 12.176 20.9573 11.696 20.9573 11.368ZM29.2375 11.344C29.5575 11.344 29.7855 11.376 29.9215 11.44C30.0655 11.496 30.1375 11.604 30.1375 11.764C30.1375 11.98 29.7895 12.2 29.0935 12.424C29.1095 13.032 29.1175 13.616 29.1175 14.176C29.1175 14.728 29.0735 15.144 28.9855 15.424C28.8975 15.696 28.7575 15.832 28.5655 15.832C28.3735 15.832 28.2215 15.736 28.1095 15.544C28.0055 15.344 27.9175 15.02 27.8455 14.572C27.7815 14.124 27.7135 13.532 27.6415 12.796C26.8255 12.98 26.2375 13.128 25.8775 13.24C25.2535 14.968 24.8375 15.832 24.6295 15.832C24.4615 15.832 24.2375 15.72 23.9575 15.496C23.6855 15.272 23.5495 15.04 23.5495 14.8C23.5495 14.664 23.7055 14.24 24.0175 13.528C23.8815 13.44 23.7615 13.316 23.6575 13.156C23.5615 12.988 23.5135 12.828 23.5135 12.676C23.5135 12.412 23.9095 12.16 24.7015 11.92C24.7655 11.76 24.8295 11.58 24.8935 11.38C24.9655 11.172 25.1375 10.692 25.4095 9.94C25.6895 9.188 25.9095 8.56 26.0695 8.056C26.1415 7.816 26.3895 7.592 26.8135 7.384C27.2455 7.176 27.5815 7.072 27.8215 7.072C28.1015 7.072 28.3495 7.46 28.5655 8.236C28.7895 9.012 28.9455 10.048 29.0335 11.344H29.2375ZM26.4655 11.548C26.7055 11.516 27.0535 11.476 27.5095 11.428C27.4855 11.196 27.4455 10.8 27.3895 10.24C27.3415 9.68 27.3055 9.276 27.2815 9.028C27.1455 9.476 26.8735 10.316 26.4655 11.548ZM32.4641 15.844C32.3041 15.844 32.0881 15.68 31.8161 15.352C31.5441 15.016 31.4081 14.772 31.4081 14.62C31.4081 14.468 31.6041 13.356 31.9961 11.284C32.3961 9.204 32.6041 7.928 32.6201 7.456C32.6361 7.192 32.7601 7.06 32.9921 7.06C33.1841 7.06 33.4401 7.252 33.7601 7.636C34.0801 8.02 34.2401 8.38 34.2401 8.716C34.2401 8.86 34.1281 9.404 33.9041 10.348C33.6881 11.284 33.5401 11.94 33.4601 12.316C33.3881 12.684 33.3241 13.016 33.2681 13.312C33.2121 13.6 33.1681 13.828 33.1361 13.996C32.9121 15.02 32.7361 15.608 32.6081 15.76C32.5601 15.816 32.5121 15.844 32.4641 15.844Z" fill="#E44205"/>
<path d="M90.94 8.764C90.076 8.812 89.604 8.836 89.524 8.836C89.332 8.836 89.14 8.72 88.948 8.488C88.756 8.248 88.66 8 88.66 7.744C88.66 7.352 89.8 7.156 92.08 7.156C93.248 7.156 94.108 7.276 94.66 7.516C95.212 7.756 95.488 8.048 95.488 8.392C95.488 8.496 95.428 8.596 95.308 8.692C95.188 8.78 95.036 8.824 94.852 8.824C94.668 8.824 94.332 8.812 93.844 8.788C93.356 8.764 92.912 8.748 92.512 8.74C92.544 8.836 92.56 8.948 92.56 9.076C92.56 9.204 92.512 9.456 92.416 9.832C92.328 10.208 92.2 10.732 92.032 11.404C91.864 12.068 91.68 12.876 91.48 13.828C91.28 14.772 91.14 15.336 91.06 15.52C90.988 15.696 90.916 15.784 90.844 15.784C90.676 15.784 90.464 15.632 90.208 15.328C89.96 15.016 89.836 14.764 89.836 14.572C89.836 14.38 90 13.588 90.328 12.196C90.656 10.796 90.86 9.652 90.94 8.764ZM100.755 11.344C101.075 11.344 101.303 11.376 101.439 11.44C101.583 11.496 101.655 11.604 101.655 11.764C101.655 11.98 101.307 12.2 100.611 12.424C100.627 13.032 100.635 13.616 100.635 14.176C100.635 14.728 100.591 15.144 100.503 15.424C100.415 15.696 100.275 15.832 100.083 15.832C99.8913 15.832 99.7393 15.736 99.6273 15.544C99.5233 15.344 99.4353 15.02 99.3633 14.572C99.2993 14.124 99.2313 13.532 99.1593 12.796C98.3433 12.98 97.7553 13.128 97.3953 13.24C96.7713 14.968 96.3553 15.832 96.1473 15.832C95.9793 15.832 95.7553 15.72 95.4753 15.496C95.2033 15.272 95.0673 15.04 95.0673 14.8C95.0673 14.664 95.2233 14.24 95.5353 13.528C95.3993 13.44 95.2793 13.316 95.1753 13.156C95.0793 12.988 95.0313 12.828 95.0313 12.676C95.0313 12.412 95.4273 12.16 96.2193 11.92C96.2833 11.76 96.3473 11.58 96.4113 11.38C96.4833 11.172 96.6553 10.692 96.9273 9.94C97.2073 9.188 97.4273 8.56 97.5873 8.056C97.6593 7.816 97.9073 7.592 98.3313 7.384C98.7633 7.176 99.0993 7.072 99.3393 7.072C99.6193 7.072 99.8673 7.46 100.083 8.236C100.307 9.012 100.463 10.048 100.551 11.344H100.755ZM97.9833 11.548C98.2233 11.516 98.5713 11.476 99.0273 11.428C99.0033 11.196 98.9633 10.8 98.9073 10.24C98.8593 9.68 98.8233 9.276 98.7993 9.028C98.6633 9.476 98.3913 10.316 97.9833 11.548ZM103.646 7.036C104.27 7.036 104.95 7.164 105.686 7.42C106.43 7.676 107.118 8.012 107.75 8.428C108.39 8.844 108.922 9.344 109.346 9.928C109.778 10.512 109.994 11.104 109.994 11.704C109.994 12.152 109.63 12.712 108.902 13.384C108.182 14.048 107.346 14.624 106.394 15.112C105.442 15.6 104.662 15.844 104.054 15.844C103.918 15.844 103.698 15.668 103.394 15.316C103.098 14.956 102.95 14.692 102.95 14.524C102.95 14.196 103.166 13.284 103.598 11.788C104.038 10.284 104.31 9.252 104.414 8.692C104.126 8.5 103.886 8.272 103.694 8.008C103.502 7.736 103.406 7.508 103.406 7.324C103.406 7.132 103.486 7.036 103.646 7.036ZM108.266 11.368C108.266 11.112 108.03 10.776 107.558 10.36C107.086 9.936 106.538 9.584 105.914 9.304C105.866 9.904 105.526 11.188 104.894 13.156C104.862 13.26 104.81 13.432 104.738 13.672C104.674 13.904 104.626 14.06 104.594 14.14C105.378 13.876 106.186 13.432 107.018 12.808C107.85 12.176 108.266 11.696 108.266 11.368ZM111.866 15.844H111.842C111.666 15.844 111.446 15.684 111.182 15.364C110.918 15.036 110.786 14.752 110.786 14.512C110.786 14.264 111.018 13.168 111.482 11.224C111.954 9.28 112.19 8.052 112.19 7.54C112.19 7.22 112.306 7.06 112.538 7.06C112.73 7.06 112.962 7.252 113.234 7.636C113.506 8.012 113.642 8.372 113.642 8.716C113.642 8.924 113.538 9.456 113.33 10.312C113.986 9.44 114.602 8.712 115.178 8.128C115.754 7.536 116.146 7.24 116.354 7.24C116.57 7.24 116.786 7.332 117.002 7.516C117.218 7.692 117.326 7.848 117.326 7.984C117.326 8.112 117.122 8.368 116.714 8.752C116.306 9.136 115.802 9.624 115.202 10.216C114.602 10.808 114.138 11.36 113.81 11.872C113.81 12.488 114.166 13.108 114.878 13.732C115.094 13.916 115.382 14.108 115.742 14.308C116.102 14.5 116.382 14.668 116.582 14.812C116.79 14.948 116.894 15.088 116.894 15.232C116.894 15.64 116.606 15.844 116.03 15.844C115.454 15.844 114.834 15.612 114.17 15.148C113.506 14.676 113.01 14.052 112.682 13.276C112.474 13.868 112.346 14.3 112.298 14.572C112.25 14.836 112.214 15.012 112.19 15.1C112.174 15.188 112.158 15.26 112.142 15.316C112.126 15.364 112.11 15.42 112.094 15.484C112.078 15.548 112.062 15.6 112.046 15.64C112.03 15.672 112.014 15.704 111.998 15.736C111.95 15.808 111.906 15.844 111.866 15.844ZM123.885 11.344C124.205 11.344 124.433 11.376 124.569 11.44C124.713 11.496 124.785 11.604 124.785 11.764C124.785 11.98 124.437 12.2 123.741 12.424C123.757 13.032 123.765 13.616 123.765 14.176C123.765 14.728 123.721 15.144 123.633 15.424C123.545 15.696 123.405 15.832 123.213 15.832C123.021 15.832 122.869 15.736 122.757 15.544C122.653 15.344 122.565 15.02 122.493 14.572C122.429 14.124 122.361 13.532 122.289 12.796C121.473 12.98 120.885 13.128 120.525 13.24C119.901 14.968 119.485 15.832 119.277 15.832C119.109 15.832 118.885 15.72 118.605 15.496C118.333 15.272 118.197 15.04 118.197 14.8C118.197 14.664 118.353 14.24 118.665 13.528C118.529 13.44 118.409 13.316 118.305 13.156C118.209 12.988 118.161 12.828 118.161 12.676C118.161 12.412 118.557 12.16 119.349 11.92C119.413 11.76 119.477 11.58 119.541 11.38C119.613 11.172 119.785 10.692 120.057 9.94C120.337 9.188 120.557 8.56 120.717 8.056C120.789 7.816 121.037 7.592 121.461 7.384C121.893 7.176 122.229 7.072 122.469 7.072C122.749 7.072 122.997 7.46 123.213 8.236C123.437 9.012 123.593 10.048 123.681 11.344H123.885ZM121.113 11.548C121.353 11.516 121.701 11.476 122.157 11.428C122.133 11.196 122.093 10.8 122.037 10.24C121.989 9.68 121.953 9.276 121.929 9.028C121.793 9.476 121.521 10.316 121.113 11.548Z" fill="#E54205"/>
</svg>
