<svg width="90" height="24" viewBox="0 0 90 24" fill="none" xmlns="http://www.w3.org/2000/svg">
<path d="M30.4669 3.2339C30.5865 3.24247 30.7061 3.25104 30.8256 3.2596C33.4297 3.44831 36.0031 3.72725 38.5524 4.29229C38.6862 4.32149 38.8201 4.34886 38.9546 4.37494C40.0496 4.59941 41.1693 4.96442 42.1811 5.43015C42.2468 5.46023 42.2468 5.46023 42.3139 5.49091C42.4975 5.5799 42.6577 5.65945 42.805 5.80085C43.3313 6.28148 43.9807 6.18784 44.6585 6.17924C44.7901 6.17923 44.9217 6.17944 45.0533 6.17986C45.3983 6.18048 45.7432 6.17865 46.0882 6.17615C46.6412 6.1725 47.1943 6.17237 47.7474 6.17269C47.9402 6.17241 48.1329 6.17094 48.3257 6.16931C48.4439 6.16895 48.5621 6.16861 48.6803 6.16831C48.7337 6.16755 48.7871 6.16678 48.8421 6.16599C49.1847 6.16636 49.4337 6.20765 49.6954 6.44288C49.7356 6.49107 49.7356 6.49107 49.7767 6.54023C49.8042 6.57235 49.8318 6.60448 49.8601 6.63757C50.023 6.86505 50.0112 7.12202 49.9835 7.3873C49.8826 7.84244 49.7252 8.22811 49.4227 8.5896C49.3911 8.62778 49.3595 8.66597 49.3269 8.7053C48.9377 9.12849 48.3831 9.37855 47.8028 9.42125C47.7442 9.42381 47.6856 9.42636 47.6252 9.42899C46.8774 9.46701 46.1914 9.50472 45.4969 9.7919C45.4294 9.81952 45.3619 9.84713 45.2923 9.87558C44.6341 10.1706 43.9185 10.6309 43.6391 11.3123C43.5809 11.4876 43.5285 11.6637 43.478 11.8413C43.4399 11.9678 43.4016 12.0944 43.3632 12.2208C43.3355 12.3126 43.3355 12.3126 43.3072 12.4062C43.2356 12.6373 43.1569 12.8649 43.0714 13.0914C43.0468 13.1572 43.0222 13.223 42.9969 13.2908C42.9149 13.4581 42.8394 13.5552 42.6928 13.672C42.4879 13.7386 42.3475 13.7481 42.132 13.7267C41.9423 13.6206 41.8302 13.5552 41.7607 13.3516C41.7043 12.9676 41.8204 12.685 41.9708 12.3331C42.0181 12.216 42.0652 12.0988 42.1121 11.9815C42.1349 11.9247 42.1578 11.8678 42.1814 11.8093C42.4807 11.0494 42.6203 10.2658 42.7489 9.464C42.7166 9.47992 42.6842 9.49584 42.651 9.51225C40.4599 10.5833 38.1144 11.0498 35.7037 11.3932C35.2313 11.4606 35.2313 11.4606 34.7614 11.542C34.347 11.6172 33.9282 11.6579 33.5094 11.7012C33.4646 11.7059 33.4198 11.7106 33.3737 11.7154C32.6778 11.7876 31.9813 11.8497 31.2836 11.9028C31.244 11.9058 31.2044 11.9089 31.1636 11.9121C30.8381 11.9371 30.5124 11.9578 30.1865 11.9779C30.1157 11.9824 30.045 11.987 29.972 11.9916C28.5224 12.0834 27.0775 12.1027 25.6252 12.0979C25.4019 12.0973 25.1786 12.0973 24.9554 12.0973C23.2105 12.0973 21.4692 12.0698 19.7272 11.9642C19.6709 11.9609 19.6146 11.9576 19.5566 11.9541C17.7128 11.8432 15.8562 11.6852 14.0349 11.3767C13.9418 11.3614 13.8487 11.3461 13.7556 11.3309C8.92147 10.5323 8.92147 10.5323 7.19286 9.40935C7.47791 10.893 7.90222 12.3158 8.59492 13.672C8.62241 13.7265 8.62241 13.7265 8.65045 13.7821C9.06649 14.5987 9.58692 15.3611 10.1652 16.0766C10.2054 16.1264 10.2456 16.1761 10.287 16.2274C10.9992 17.0912 11.7932 17.9066 12.6889 18.5905C12.7562 18.6439 12.8234 18.6973 12.8905 18.7509C13.3129 19.087 13.7397 19.402 14.2031 19.6835C14.2419 19.7072 14.2807 19.7308 14.3206 19.7552C16.9351 21.3406 19.7855 22.3301 22.8523 22.6195C22.94 22.628 23.0278 22.6371 23.1152 22.6482C23.4671 22.6912 23.8145 22.6981 24.1689 22.6985C24.2312 22.6987 24.2935 22.6988 24.3578 22.699C24.4895 22.6993 24.6212 22.6994 24.753 22.6994C24.9502 22.6995 25.1475 22.7005 25.3447 22.7016C29.5291 22.712 33.7473 21.3601 37.0285 18.8091C37.0856 18.7653 37.1426 18.7214 37.2014 18.6761C37.6838 18.2988 38.1443 17.9005 38.5657 17.4591C38.6312 17.3918 38.6312 17.3918 38.698 17.3231C38.7846 17.2338 38.8699 17.1433 38.9538 17.0517C39.1665 16.8337 39.309 16.7039 39.6265 16.694C39.8362 16.7044 39.943 16.7524 40.0955 16.893C40.1993 17.0398 40.2545 17.1615 40.2602 17.3404C40.1883 17.7113 39.8517 17.9766 39.5859 18.2313C39.5037 18.3101 39.423 18.3904 39.3426 18.4708C39.0688 18.7433 38.7873 19.0023 38.4867 19.2463C38.4405 19.2838 38.4405 19.2838 38.3934 19.3221C37.496 20.0481 36.5731 20.6869 35.5704 21.2684C35.5286 21.2928 35.4867 21.3173 35.4436 21.3425C34.253 22.0326 32.9572 22.5396 31.6446 22.9625C31.5866 22.9814 31.5286 23.0003 31.4688 23.0197C28.2924 24.0367 24.788 24.2436 21.4938 23.7276C21.4323 23.7183 21.3707 23.709 21.3074 23.6994C20.7554 23.6142 20.2139 23.5112 19.679 23.3513C19.5245 23.3053 19.3704 23.2622 19.2146 23.2211C15.6115 22.2646 11.955 20.2703 9.61118 17.3703C9.5313 17.2723 9.449 17.176 9.36451 17.0817C8.68051 16.3169 8.12683 15.4418 7.64152 14.5464C7.61452 14.4977 7.61452 14.4977 7.58697 14.448C7.09932 13.565 6.66852 12.6133 6.41823 11.6398C6.32775 11.2897 6.22305 11.0335 5.95906 10.7756C5.92624 10.7396 5.89342 10.7036 5.8596 10.6665C5.05928 9.82456 3.90593 9.52369 2.76589 9.46742C2.04108 9.42127 1.41255 9.35876 0.855593 8.86285C0.82176 8.83545 0.787926 8.80804 0.753068 8.77981C0.315867 8.39915 0.0569768 7.82748 0.00231305 7.26284C-0.00936676 6.98923 0.0191009 6.79884 0.182608 6.56755C0.561666 6.19555 0.561666 6.19555 0.855562 6.17849C0.89859 6.17864 0.941619 6.17878 0.98595 6.17893C1.03547 6.17895 1.08499 6.17897 1.13601 6.17898C1.1902 6.17927 1.24439 6.17956 1.30022 6.17985C1.41878 6.18 1.53735 6.18015 1.65591 6.18029C1.71888 6.18046 1.78185 6.18062 1.84672 6.1808C2.18006 6.18142 2.51339 6.1803 2.84672 6.17945C3.27097 6.17845 3.6952 6.17798 4.11944 6.17956C4.46219 6.18079 4.8049 6.18016 5.14764 6.1783C5.27808 6.17793 5.40853 6.17824 5.53897 6.17925C5.72197 6.18057 5.9048 6.17952 6.08779 6.17793C6.1413 6.17888 6.19481 6.17983 6.24994 6.18081C6.6736 6.1732 6.88304 6.01562 7.19286 5.7478C7.36374 5.64938 7.36374 5.64938 7.51534 5.57852C7.57204 5.55183 7.62875 5.52514 7.68717 5.49765C7.74613 5.47087 7.8051 5.44408 7.86585 5.41649C7.92807 5.38798 7.99028 5.35947 8.05439 5.3301C8.97616 4.91369 9.90967 4.66178 10.8947 4.42273C11.0289 4.38981 11.1626 4.35579 11.2961 4.32029C13.2554 3.81015 15.3078 3.58929 17.3232 3.41448C17.5978 3.39029 17.8721 3.36351 18.1464 3.33637C18.2662 3.32462 18.386 3.31287 18.5059 3.3012C18.589 3.29297 18.6722 3.2845 18.7553 3.27576C22.6091 2.87917 26.6098 2.95128 30.4669 3.2339Z" fill="#E24105"/>
<path d="M24.8253 4.33359C24.8795 4.33354 24.9337 4.33349 24.9895 4.33344C26.474 4.33227 27.9553 4.34939 29.4381 4.4224C29.5084 4.42585 29.5787 4.4293 29.6511 4.43285C30.8498 4.49347 32.0448 4.59002 33.2376 4.71956C33.2798 4.72413 33.322 4.7287 33.3655 4.73341C35.48 4.96446 37.687 5.23754 39.7106 5.89237C39.847 5.93619 39.9838 5.97866 40.1206 6.02112C42.3726 6.72664 42.3726 6.72664 42.8695 7.46956C42.9188 7.5716 42.9188 7.5716 42.9398 7.73555C42.6265 8.40168 41.8178 8.69909 41.1662 8.96517C41.0956 8.99492 41.0956 8.99492 41.0236 9.02527C40.4697 9.24233 40.0409 9.07271 39.4904 8.90936C37.951 8.45496 36.3892 8.15014 34.8057 7.88562C34.6001 7.85127 34.3946 7.81582 34.1893 7.77995C32.7743 7.53605 31.3497 7.39969 29.9183 7.2881C29.8591 7.28348 29.8 7.27885 29.7391 7.27408C29.566 7.26065 29.3928 7.24752 29.2197 7.23452C29.17 7.23072 29.1203 7.22691 29.0691 7.22299C28.1782 7.15769 27.2885 7.12574 26.3952 7.12522C26.2988 7.125 26.2025 7.12476 26.1061 7.12452C25.8007 7.12389 25.4953 7.12396 25.1898 7.12415C25.1378 7.12417 25.0857 7.12418 25.0321 7.1242C22.7291 7.12456 22.7291 7.12456 20.4299 7.2437C20.3848 7.24715 20.3398 7.2506 20.2934 7.25416C16.8131 7.52381 13.0834 7.94141 9.78306 9.11738C9.34752 9.21351 8.9925 9.05243 8.60358 8.87637C8.55416 8.8543 8.50475 8.83223 8.45383 8.8095C7.91844 8.56483 7.41622 8.27821 7.08236 7.7902C7.07758 7.54796 7.12459 7.39676 7.28916 7.21979C8.59885 6.06472 10.7618 5.68759 12.4346 5.3693C12.6351 5.33084 12.8351 5.29032 13.0352 5.24962C15.0939 4.84166 17.2174 4.61136 19.3153 4.50779C19.442 4.50139 19.5687 4.49491 19.6954 4.48829C19.8088 4.48238 19.9222 4.47671 20.0356 4.47106C20.1998 4.46175 20.3626 4.44667 20.5261 4.42951C21.9462 4.28735 23.3995 4.33417 24.8253 4.33359Z" fill="white"/>
<path d="M24.5656 8.19297C24.885 8.1936 25.2043 8.19323 25.5237 8.1926C26.8769 8.19034 28.2196 8.20423 29.5685 8.31652C29.658 8.32327 29.7476 8.32993 29.8371 8.33646C32.5843 8.54056 35.5971 8.77404 38.2051 9.68277C38.0501 9.78349 37.9815 9.81215 37.8066 9.8448C37.7612 9.85347 37.7157 9.86215 37.6689 9.87108C37.6203 9.87995 37.5717 9.88882 37.5216 9.89796C37.4713 9.90739 37.421 9.91682 37.3692 9.92653C37.2664 9.94574 37.1637 9.9648 37.0609 9.98369C36.9321 10.0075 36.8036 10.0322 36.6751 10.0574C36.2533 10.1384 35.8347 10.2017 35.4071 10.2438C35.1995 10.265 34.9975 10.2956 34.7931 10.3371C34.4981 10.3964 34.2034 10.4353 33.9043 10.4684C33.8436 10.4751 33.783 10.4818 33.7205 10.4887C33.1254 10.5523 32.5294 10.6051 31.933 10.6557C31.8252 10.6649 31.7174 10.6741 31.6097 10.6835C31.2099 10.7179 30.81 10.7479 30.4097 10.7758C30.3398 10.7807 30.27 10.7857 30.198 10.7908C28.6692 10.897 27.1413 10.9021 25.6092 10.8993C25.2647 10.8987 24.9202 10.8991 24.5757 10.8997C22.1945 10.9034 19.8255 10.8351 17.4547 10.6118C17.3897 10.6059 17.3247 10.5999 17.2577 10.5937C15.883 10.4652 14.5162 10.2537 13.1542 10.0331C13.1142 10.0266 13.0743 10.0201 13.0331 10.0135C11.8803 9.82493 11.8803 9.82493 11.7344 9.68277C13.9082 9.10294 16.1116 8.74716 18.3511 8.5159C18.5952 8.49062 18.839 8.46337 19.0827 8.43458C20.9099 8.2199 22.7273 8.18935 24.5656 8.19297Z" fill="white"/>
<path d="M14.0353 16.8963C14.1938 16.9745 14.3234 17.0793 14.4594 17.19C14.5383 17.2508 14.6174 17.3114 14.6966 17.3719C14.7361 17.4024 14.7756 17.4328 14.8163 17.4642C16.4632 18.7088 18.5516 19.6012 20.5699 20.0577C20.89 20.1368 21.0329 20.2304 21.2138 20.5032C21.254 20.7472 21.2321 20.8535 21.1086 21.0702C20.9894 21.2136 20.9894 21.2136 20.8773 21.2683C20.4362 21.3074 20.052 21.2352 19.6329 21.1077C19.5748 21.0905 19.5167 21.0732 19.4567 21.0555C17.4387 20.4447 15.5646 19.5464 13.867 18.3172C13.8362 18.2949 13.8053 18.2726 13.7735 18.2496C13.2868 17.8942 13.2868 17.8942 13.194 17.6614C13.1699 17.4801 13.1538 17.3441 13.253 17.1832C13.4811 16.9104 13.6783 16.8379 14.0353 16.8963Z" fill="#E24105"/>
<path d="M1.30469 7.38721C2.80376 7.38721 4.30283 7.38721 5.84733 7.38721C5.86584 7.96431 5.88435 8.54141 5.90342 9.13601C5.76461 9.0695 5.62581 9.003 5.4828 8.93448C4.74897 8.59276 3.97263 8.33223 3.15386 8.30558C3.10237 8.30384 3.05087 8.3021 2.99782 8.3003C2.89518 8.29735 2.79251 8.29541 2.68983 8.29464C2.22694 8.28335 1.80698 8.14992 1.47293 7.82441C1.30469 7.54173 1.30469 7.54173 1.30469 7.38721Z" fill="white"/>
<path d="M11.0725 14.1982C11.2993 14.2021 11.4305 14.2416 11.5982 14.4015C11.7225 14.541 11.8378 14.686 11.9516 14.8338C12.1311 15.0586 12.3234 15.2725 12.5152 15.4874C12.7611 15.7639 12.8854 15.9179 12.8787 16.2831C12.8435 16.4769 12.732 16.5623 12.5762 16.678C12.3933 16.7671 12.2746 16.7582 12.0714 16.7326C11.898 16.6285 11.7638 16.4923 11.6228 16.3501C11.5733 16.3005 11.5239 16.2509 11.4729 16.1998C10.4778 15.1803 10.4778 15.1803 10.4808 14.6581C10.5146 14.4729 10.6366 14.3871 10.7815 14.2734C10.8685 14.1887 10.9518 14.2034 11.0725 14.1982Z" fill="#E24105"/>
<path d="M30.4669 3.2339C30.5865 3.24247 30.7061 3.25104 30.8256 3.2596C33.4297 3.44831 36.0031 3.72725 38.5524 4.29229C38.6862 4.32149 38.8201 4.34886 38.9546 4.37494C40.0496 4.59941 41.1693 4.96442 42.1811 5.43015C42.2468 5.46023 42.2468 5.46023 42.3139 5.49091C42.4975 5.5799 42.6577 5.65945 42.805 5.80085C43.3313 6.28148 43.9807 6.18784 44.6585 6.17924C44.7901 6.17923 44.9217 6.17944 45.0533 6.17986C45.3983 6.18048 45.7432 6.17865 46.0882 6.17615C46.6412 6.1725 47.1943 6.17237 47.7474 6.17269C47.9402 6.17241 48.1329 6.17094 48.3257 6.16931C48.4439 6.16895 48.5621 6.16861 48.6803 6.16831C48.7337 6.16755 48.7871 6.16678 48.8421 6.16599C49.1847 6.16636 49.4337 6.20765 49.6954 6.44288C49.7356 6.49107 49.7356 6.49107 49.7767 6.54023C49.8042 6.57235 49.8318 6.60448 49.8601 6.63757C50.023 6.86505 50.0112 7.12202 49.9835 7.3873C49.8826 7.84244 49.7252 8.22811 49.4227 8.5896C49.3911 8.62778 49.3595 8.66597 49.3269 8.7053C48.9377 9.12849 48.3831 9.37855 47.8028 9.42125C47.7442 9.42381 47.6856 9.42636 47.6252 9.42899C46.8774 9.46701 46.1914 9.50472 45.4969 9.7919C45.4294 9.81952 45.3619 9.84713 45.2923 9.87558C44.6341 10.1706 43.9185 10.6309 43.6391 11.3123C43.5809 11.4876 43.5285 11.6637 43.478 11.8413C43.4399 11.9678 43.4016 12.0944 43.3632 12.2208C43.3355 12.3126 43.3355 12.3126 43.3072 12.4062C43.2356 12.6373 43.1569 12.8649 43.0714 13.0914C43.0468 13.1572 43.0222 13.223 42.9969 13.2908C42.9149 13.4581 42.8394 13.5552 42.6928 13.672C42.4879 13.7386 42.3475 13.7481 42.132 13.7267C41.9423 13.6206 41.8302 13.5552 41.7607 13.3516C41.7043 12.9676 41.8204 12.685 41.9708 12.3331C42.0181 12.216 42.0652 12.0988 42.1121 11.9815C42.1349 11.9247 42.1578 11.8678 42.1814 11.8093C42.4807 11.0494 42.6203 10.2658 42.7489 9.464C42.7166 9.47992 42.6842 9.49584 42.651 9.51225C40.4599 10.5833 38.1144 11.0498 35.7037 11.3932C35.2313 11.4606 35.2313 11.4606 34.7614 11.542C34.347 11.6172 33.9282 11.6579 33.5094 11.7012C33.4646 11.7059 33.4198 11.7106 33.3737 11.7154C32.6778 11.7876 31.9813 11.8497 31.2836 11.9028C31.244 11.9058 31.2044 11.9089 31.1636 11.9121C30.8381 11.9371 30.5124 11.9578 30.1865 11.9779C30.1157 11.9824 30.045 11.987 29.972 11.9916C28.5224 12.0834 27.0775 12.1027 25.6252 12.0979C25.4019 12.0973 25.1786 12.0973 24.9554 12.0973C23.2105 12.0973 21.4692 12.0698 19.7272 11.9642C19.6709 11.9609 19.6146 11.9576 19.5566 11.9541C17.7128 11.8432 15.8562 11.6852 14.0349 11.3767C13.9418 11.3614 13.8487 11.3461 13.7556 11.3309C8.92147 10.5323 8.92147 10.5323 7.19286 9.40935C7.47791 10.893 7.90222 12.3158 8.59492 13.672C8.62241 13.7265 8.62241 13.7265 8.65045 13.7821C9.06649 14.5987 9.58692 15.3611 10.1652 16.0766C10.2054 16.1264 10.2456 16.1761 10.287 16.2274C10.9992 17.0912 11.7932 17.9066 12.6889 18.5905C12.7562 18.6439 12.8234 18.6973 12.8905 18.7509C13.3129 19.087 13.7397 19.402 14.2031 19.6835C14.2419 19.7072 14.2807 19.7308 14.3206 19.7552C16.9351 21.3406 19.7855 22.3301 22.8523 22.6195C22.94 22.628 23.0278 22.6371 23.1152 22.6482C23.4671 22.6912 23.8145 22.6981 24.1689 22.6985C24.2312 22.6987 24.2935 22.6988 24.3578 22.699C24.4895 22.6993 24.6212 22.6994 24.753 22.6994C24.9502 22.6995 25.1475 22.7005 25.3447 22.7016C29.5291 22.712 33.7473 21.3601 37.0285 18.8091C37.0856 18.7653 37.1426 18.7214 37.2014 18.6761C37.6838 18.2988 38.1443 17.9005 38.5657 17.4591C38.6312 17.3918 38.6312 17.3918 38.698 17.3231C38.7846 17.2338 38.8699 17.1433 38.9538 17.0517C39.1665 16.8337 39.309 16.7039 39.6265 16.694C39.8362 16.7044 39.943 16.7524 40.0955 16.893C40.1993 17.0398 40.2545 17.1615 40.2602 17.3404C40.1883 17.7113 39.8517 17.9766 39.5859 18.2313C39.5037 18.3101 39.423 18.3904 39.3426 18.4708C39.0688 18.7433 38.7873 19.0023 38.4867 19.2463C38.4405 19.2838 38.4405 19.2838 38.3934 19.3221C37.496 20.0481 36.5731 20.6869 35.5704 21.2684C35.5286 21.2928 35.4867 21.3173 35.4436 21.3425C34.253 22.0326 32.9572 22.5396 31.6446 22.9625C31.5866 22.9814 31.5286 23.0003 31.4688 23.0197C28.2924 24.0367 24.788 24.2436 21.4938 23.7276C21.4323 23.7183 21.3707 23.709 21.3074 23.6994C20.7554 23.6142 20.2139 23.5112 19.679 23.3513C19.5245 23.3053 19.3704 23.2622 19.2146 23.2211C15.6115 22.2646 11.955 20.2703 9.61118 17.3703C9.5313 17.2723 9.449 17.176 9.36451 17.0817C8.68051 16.3169 8.12683 15.4418 7.64152 14.5464C7.61452 14.4977 7.61452 14.4977 7.58697 14.448C7.09932 13.565 6.66852 12.6133 6.41823 11.6398C6.32775 11.2897 6.22305 11.0335 5.95906 10.7756C5.92624 10.7396 5.89342 10.7036 5.8596 10.6665C5.05928 9.82456 3.90593 9.52369 2.76589 9.46742C2.04108 9.42127 1.41255 9.35876 0.855593 8.86285C0.82176 8.83545 0.787926 8.80804 0.753068 8.77981C0.315867 8.39915 0.0569768 7.82748 0.00231305 7.26284C-0.00936676 6.98923 0.0191009 6.79884 0.182608 6.56755C0.561666 6.19555 0.561666 6.19555 0.855562 6.17849C0.89859 6.17864 0.941619 6.17878 0.98595 6.17893C1.03547 6.17895 1.08499 6.17897 1.13601 6.17898C1.1902 6.17927 1.24439 6.17956 1.30022 6.17985C1.41878 6.18 1.53735 6.18015 1.65591 6.18029C1.71888 6.18046 1.78185 6.18062 1.84672 6.1808C2.18006 6.18142 2.51339 6.1803 2.84672 6.17945C3.27097 6.17845 3.6952 6.17798 4.11944 6.17956C4.46219 6.18079 4.8049 6.18016 5.14764 6.1783C5.27808 6.17793 5.40853 6.17824 5.53897 6.17925C5.72197 6.18057 5.9048 6.17952 6.08779 6.17793C6.1413 6.17888 6.19481 6.17983 6.24994 6.18081C6.6736 6.1732 6.88304 6.01562 7.19286 5.7478C7.36374 5.64938 7.36374 5.64938 7.51534 5.57852C7.57204 5.55183 7.62875 5.52514 7.68717 5.49765C7.74613 5.47087 7.8051 5.44408 7.86585 5.41649C7.92807 5.38798 7.99028 5.35947 8.05439 5.3301C8.97616 4.91369 9.90967 4.66178 10.8947 4.42273C11.0289 4.38981 11.1626 4.35579 11.2961 4.32029C13.2554 3.81015 15.3078 3.58929 17.3232 3.41448C17.5978 3.39029 17.8721 3.36351 18.1464 3.33637C18.2662 3.32462 18.386 3.31287 18.5059 3.3012C18.589 3.29297 18.6722 3.2845 18.7553 3.27576C22.6091 2.87917 26.6098 2.95128 30.4669 3.2339Z" fill="#E24105"/>
<path d="M24.8253 4.33359C24.8795 4.33354 24.9337 4.33349 24.9895 4.33344C26.474 4.33227 27.9553 4.34939 29.4381 4.4224C29.5084 4.42585 29.5787 4.4293 29.6511 4.43285C30.8498 4.49347 32.0448 4.59002 33.2376 4.71956C33.2798 4.72413 33.322 4.7287 33.3655 4.73341C35.48 4.96446 37.687 5.23754 39.7106 5.89237C39.847 5.93619 39.9838 5.97866 40.1206 6.02112C42.3726 6.72664 42.3726 6.72664 42.8695 7.46956C42.9188 7.5716 42.9188 7.5716 42.9398 7.73555C42.6265 8.40168 41.8178 8.69909 41.1662 8.96517C41.0956 8.99492 41.0956 8.99492 41.0236 9.02527C40.4697 9.24233 40.0409 9.07271 39.4904 8.90936C37.951 8.45496 36.3892 8.15014 34.8057 7.88562C34.6001 7.85127 34.3946 7.81582 34.1893 7.77995C32.7743 7.53605 31.3497 7.39969 29.9183 7.2881C29.8591 7.28348 29.8 7.27885 29.7391 7.27408C29.566 7.26065 29.3928 7.24752 29.2197 7.23452C29.17 7.23072 29.1203 7.22691 29.0691 7.22299C28.1782 7.15769 27.2885 7.12574 26.3952 7.12522C26.2988 7.125 26.2025 7.12476 26.1061 7.12452C25.8007 7.12389 25.4953 7.12396 25.1898 7.12415C25.1378 7.12417 25.0857 7.12418 25.0321 7.1242C22.7291 7.12456 22.7291 7.12456 20.4299 7.2437C20.3848 7.24715 20.3398 7.2506 20.2934 7.25416C16.8131 7.52381 13.0834 7.94141 9.78306 9.11738C9.34752 9.21351 8.9925 9.05243 8.60358 8.87637C8.55416 8.8543 8.50475 8.83223 8.45383 8.8095C7.91844 8.56483 7.41622 8.27821 7.08236 7.7902C7.07758 7.54796 7.12459 7.39676 7.28916 7.21979C8.59885 6.06472 10.7618 5.68759 12.4346 5.3693C12.6351 5.33084 12.8351 5.29032 13.0352 5.24962C15.0939 4.84166 17.2174 4.61136 19.3153 4.50779C19.442 4.50139 19.5687 4.49491 19.6954 4.48829C19.8088 4.48238 19.9222 4.47671 20.0356 4.47106C20.1998 4.46175 20.3626 4.44667 20.5261 4.42951C21.9462 4.28735 23.3995 4.33417 24.8253 4.33359Z" fill="white"/>
<path d="M24.5656 8.19297C24.885 8.1936 25.2043 8.19323 25.5237 8.1926C26.8769 8.19034 28.2196 8.20423 29.5685 8.31652C29.658 8.32327 29.7476 8.32993 29.8371 8.33646C32.5843 8.54056 35.5971 8.77404 38.2051 9.68277C38.0501 9.78349 37.9815 9.81215 37.8066 9.8448C37.7612 9.85347 37.7157 9.86215 37.6689 9.87108C37.6203 9.87995 37.5717 9.88882 37.5216 9.89796C37.4713 9.90739 37.421 9.91682 37.3692 9.92653C37.2664 9.94574 37.1637 9.9648 37.0609 9.98369C36.9321 10.0075 36.8036 10.0322 36.6751 10.0574C36.2533 10.1384 35.8347 10.2017 35.4071 10.2438C35.1995 10.265 34.9975 10.2956 34.7931 10.3371C34.4981 10.3964 34.2034 10.4353 33.9043 10.4684C33.8436 10.4751 33.783 10.4818 33.7205 10.4887C33.1254 10.5523 32.5294 10.6051 31.933 10.6557C31.8252 10.6649 31.7174 10.6741 31.6097 10.6835C31.2099 10.7179 30.81 10.7479 30.4097 10.7758C30.3398 10.7807 30.27 10.7857 30.198 10.7908C28.6692 10.897 27.1413 10.9021 25.6092 10.8993C25.2647 10.8987 24.9202 10.8991 24.5757 10.8997C22.1945 10.9034 19.8255 10.8351 17.4547 10.6118C17.3897 10.6059 17.3247 10.5999 17.2577 10.5937C15.883 10.4652 14.5162 10.2537 13.1542 10.0331C13.1142 10.0266 13.0743 10.0201 13.0331 10.0135C11.8803 9.82493 11.8803 9.82493 11.7344 9.68277C13.9082 9.10294 16.1116 8.74716 18.3511 8.5159C18.5952 8.49062 18.839 8.46337 19.0827 8.43458C20.9099 8.2199 22.7273 8.18935 24.5656 8.19297Z" fill="white"/>
<path d="M14.0353 16.8963C14.1938 16.9745 14.3234 17.0793 14.4594 17.19C14.5383 17.2508 14.6174 17.3114 14.6966 17.3719C14.7361 17.4024 14.7756 17.4328 14.8163 17.4642C16.4632 18.7088 18.5516 19.6012 20.5699 20.0577C20.89 20.1368 21.0329 20.2304 21.2138 20.5032C21.254 20.7472 21.2321 20.8535 21.1086 21.0702C20.9894 21.2136 20.9894 21.2136 20.8773 21.2683C20.4362 21.3074 20.052 21.2352 19.6329 21.1077C19.5748 21.0905 19.5167 21.0732 19.4567 21.0555C17.4387 20.4447 15.5646 19.5464 13.867 18.3172C13.8362 18.2949 13.8053 18.2726 13.7735 18.2496C13.2868 17.8942 13.2868 17.8942 13.194 17.6614C13.1699 17.4801 13.1538 17.3441 13.253 17.1832C13.4811 16.9104 13.6783 16.8379 14.0353 16.8963Z" fill="#E24105"/>
<path d="M1.30469 7.38721C2.80376 7.38721 4.30283 7.38721 5.84733 7.38721C5.86584 7.96431 5.88435 8.54141 5.90342 9.13601C5.76461 9.0695 5.62581 9.003 5.4828 8.93448C4.74897 8.59276 3.97263 8.33223 3.15386 8.30558C3.10237 8.30384 3.05087 8.3021 2.99782 8.3003C2.89518 8.29735 2.79251 8.29541 2.68983 8.29464C2.22694 8.28335 1.80698 8.14992 1.47293 7.82441C1.30469 7.54173 1.30469 7.54173 1.30469 7.38721Z" fill="white"/>
<path d="M11.0725 14.1982C11.2993 14.2021 11.4305 14.2416 11.5982 14.4015C11.7225 14.541 11.8378 14.686 11.9516 14.8338C12.1311 15.0586 12.3234 15.2725 12.5152 15.4874C12.7611 15.7639 12.8854 15.9179 12.8787 16.2831C12.8435 16.4769 12.732 16.5623 12.5762 16.678C12.3933 16.7671 12.2746 16.7582 12.0714 16.7326C11.898 16.6285 11.7638 16.4923 11.6228 16.3501C11.5733 16.3005 11.5239 16.2509 11.4729 16.1998C10.4778 15.1803 10.4778 15.1803 10.4808 14.6581C10.5146 14.4729 10.6366 14.3871 10.7815 14.2734C10.8685 14.1887 10.9518 14.2034 11.0725 14.1982Z" fill="#E24105"/>
<path d="M53.428 12.844H53.404C53.228 12.844 53.008 12.684 52.744 12.364C52.48 12.036 52.348 11.752 52.348 11.512C52.348 11.264 52.58 10.168 53.044 8.224C53.516 6.28 53.752 5.052 53.752 4.54C53.752 4.22 53.868 4.06 54.1 4.06C54.292 4.06 54.524 4.252 54.796 4.636C55.068 5.012 55.204 5.372 55.204 5.716C55.204 5.924 55.1 6.456 54.892 7.312C55.548 6.44 56.164 5.712 56.74 5.128C57.316 4.536 57.708 4.24 57.916 4.24C58.132 4.24 58.348 4.332 58.564 4.516C58.78 4.692 58.888 4.848 58.888 4.984C58.888 5.112 58.684 5.368 58.276 5.752C57.868 6.136 57.364 6.624 56.764 7.216C56.164 7.808 55.7 8.36 55.372 8.872C55.372 9.488 55.728 10.108 56.44 10.732C56.656 10.916 56.944 11.108 57.304 11.308C57.664 11.5 57.944 11.668 58.144 11.812C58.352 11.948 58.456 12.088 58.456 12.232C58.456 12.64 58.168 12.844 57.592 12.844C57.016 12.844 56.396 12.612 55.732 12.148C55.068 11.676 54.572 11.052 54.244 10.276C54.036 10.868 53.908 11.3 53.86 11.572C53.812 11.836 53.776 12.012 53.752 12.1C53.736 12.188 53.72 12.26 53.704 12.316C53.688 12.364 53.672 12.42 53.656 12.484C53.64 12.548 53.624 12.6 53.608 12.64C53.592 12.672 53.576 12.704 53.56 12.736C53.512 12.808 53.468 12.844 53.428 12.844ZM65.4467 8.344C65.7668 8.344 65.9948 8.376 66.1308 8.44C66.2748 8.496 66.3468 8.604 66.3468 8.764C66.3468 8.98 65.9988 9.2 65.3027 9.424C65.3188 10.032 65.3268 10.616 65.3268 11.176C65.3268 11.728 65.2828 12.144 65.1948 12.424C65.1068 12.696 64.9668 12.832 64.7747 12.832C64.5828 12.832 64.4308 12.736 64.3188 12.544C64.2148 12.344 64.1267 12.02 64.0547 11.572C63.9908 11.124 63.9228 10.532 63.8508 9.796C63.0348 9.98 62.4468 10.128 62.0868 10.24C61.4628 11.968 61.0467 12.832 60.8387 12.832C60.6707 12.832 60.4467 12.72 60.1667 12.496C59.8947 12.272 59.7587 12.04 59.7587 11.8C59.7587 11.664 59.9147 11.24 60.2267 10.528C60.0907 10.44 59.9707 10.316 59.8667 10.156C59.7707 9.988 59.7227 9.828 59.7227 9.676C59.7227 9.412 60.1187 9.16 60.9108 8.92C60.9748 8.76 61.0387 8.58 61.1027 8.38C61.1747 8.172 61.3467 7.692 61.6188 6.94C61.8988 6.188 62.1187 5.56 62.2787 5.056C62.3507 4.816 62.5987 4.592 63.0228 4.384C63.4548 4.176 63.7908 4.072 64.0308 4.072C64.3108 4.072 64.5588 4.46 64.7747 5.236C64.9988 6.012 65.1548 7.048 65.2428 8.344H65.4467ZM62.6748 8.548C62.9148 8.516 63.2628 8.476 63.7188 8.428C63.6948 8.196 63.6548 7.8 63.5988 7.24C63.5508 6.68 63.5148 6.276 63.4908 6.028C63.3548 6.476 63.0828 7.316 62.6748 8.548ZM68.3373 4.036C68.9613 4.036 69.6413 4.164 70.3773 4.42C71.1213 4.676 71.8093 5.012 72.4413 5.428C73.0813 5.844 73.6133 6.344 74.0373 6.928C74.4693 7.512 74.6853 8.104 74.6853 8.704C74.6853 9.152 74.3213 9.712 73.5933 10.384C72.8733 11.048 72.0373 11.624 71.0853 12.112C70.1333 12.6 69.3533 12.844 68.7453 12.844C68.6093 12.844 68.3893 12.668 68.0853 12.316C67.7893 11.956 67.6413 11.692 67.6413 11.524C67.6413 11.196 67.8573 10.284 68.2893 8.788C68.7293 7.284 69.0013 6.252 69.1053 5.692C68.8173 5.5 68.5773 5.272 68.3853 5.008C68.1933 4.736 68.0973 4.508 68.0973 4.324C68.0973 4.132 68.1773 4.036 68.3373 4.036ZM72.9573 8.368C72.9573 8.112 72.7213 7.776 72.2493 7.36C71.7773 6.936 71.2293 6.584 70.6053 6.304C70.5573 6.904 70.2173 8.188 69.5853 10.156C69.5533 10.26 69.5013 10.432 69.4293 10.672C69.3653 10.904 69.3173 11.06 69.2853 11.14C70.0693 10.876 70.8773 10.432 71.7093 9.808C72.5413 9.176 72.9573 8.696 72.9573 8.368ZM81.2375 8.344C81.5575 8.344 81.7855 8.376 81.9215 8.44C82.0655 8.496 82.1375 8.604 82.1375 8.764C82.1375 8.98 81.7895 9.2 81.0935 9.424C81.1095 10.032 81.1175 10.616 81.1175 11.176C81.1175 11.728 81.0735 12.144 80.9855 12.424C80.8975 12.696 80.7575 12.832 80.5655 12.832C80.3735 12.832 80.2215 12.736 80.1095 12.544C80.0055 12.344 79.9175 12.02 79.8455 11.572C79.7815 11.124 79.7135 10.532 79.6415 9.796C78.8255 9.98 78.2375 10.128 77.8775 10.24C77.2535 11.968 76.8375 12.832 76.6295 12.832C76.4615 12.832 76.2375 12.72 75.9575 12.496C75.6855 12.272 75.5495 12.04 75.5495 11.8C75.5495 11.664 75.7055 11.24 76.0175 10.528C75.8815 10.44 75.7615 10.316 75.6575 10.156C75.5615 9.988 75.5135 9.828 75.5135 9.676C75.5135 9.412 75.9095 9.16 76.7015 8.92C76.7655 8.76 76.8295 8.58 76.8935 8.38C76.9655 8.172 77.1375 7.692 77.4095 6.94C77.6895 6.188 77.9095 5.56 78.0695 5.056C78.1415 4.816 78.3895 4.592 78.8135 4.384C79.2455 4.176 79.5815 4.072 79.8215 4.072C80.1015 4.072 80.3495 4.46 80.5655 5.236C80.7895 6.012 80.9455 7.048 81.0335 8.344H81.2375ZM78.4655 8.548C78.7055 8.516 79.0535 8.476 79.5095 8.428C79.4855 8.196 79.4455 7.8 79.3895 7.24C79.3415 6.68 79.3055 6.276 79.2815 6.028C79.1455 6.476 78.8735 7.316 78.4655 8.548ZM84.4641 12.844C84.3041 12.844 84.0881 12.68 83.8161 12.352C83.5441 12.016 83.4081 11.772 83.4081 11.62C83.4081 11.468 83.6041 10.356 83.9961 8.284C84.3961 6.204 84.6041 4.928 84.6201 4.456C84.6361 4.192 84.7601 4.06 84.9921 4.06C85.1841 4.06 85.4401 4.252 85.7601 4.636C86.0801 5.02 86.2401 5.38 86.2401 5.716C86.2401 5.86 86.1281 6.404 85.9041 7.348C85.6881 8.284 85.5401 8.94 85.4601 9.316C85.3881 9.684 85.3241 10.016 85.2681 10.312C85.2121 10.6 85.1681 10.828 85.1361 10.996C84.9121 12.02 84.7361 12.608 84.6081 12.76C84.5601 12.816 84.5121 12.844 84.4641 12.844Z" fill="#E44205"/>
<path d="M53.94 16.764C53.076 16.812 52.604 16.836 52.524 16.836C52.332 16.836 52.14 16.72 51.948 16.488C51.756 16.248 51.66 16 51.66 15.744C51.66 15.352 52.8 15.156 55.08 15.156C56.248 15.156 57.108 15.276 57.66 15.516C58.212 15.756 58.488 16.048 58.488 16.392C58.488 16.496 58.428 16.596 58.308 16.692C58.188 16.78 58.036 16.824 57.852 16.824C57.668 16.824 57.332 16.812 56.844 16.788C56.356 16.764 55.912 16.748 55.512 16.74C55.544 16.836 55.56 16.948 55.56 17.076C55.56 17.204 55.512 17.456 55.416 17.832C55.328 18.208 55.2 18.732 55.032 19.404C54.864 20.068 54.68 20.876 54.48 21.828C54.28 22.772 54.14 23.336 54.06 23.52C53.988 23.696 53.916 23.784 53.844 23.784C53.676 23.784 53.464 23.632 53.208 23.328C52.96 23.016 52.836 22.764 52.836 22.572C52.836 22.38 53 21.588 53.328 20.196C53.656 18.796 53.86 17.652 53.94 16.764ZM63.7553 19.344C64.0753 19.344 64.3033 19.376 64.4393 19.44C64.5833 19.496 64.6553 19.604 64.6553 19.764C64.6553 19.98 64.3073 20.2 63.6113 20.424C63.6273 21.032 63.6353 21.616 63.6353 22.176C63.6353 22.728 63.5913 23.144 63.5033 23.424C63.4153 23.696 63.2753 23.832 63.0833 23.832C62.8913 23.832 62.7393 23.736 62.6273 23.544C62.5233 23.344 62.4353 23.02 62.3633 22.572C62.2993 22.124 62.2313 21.532 62.1593 20.796C61.3433 20.98 60.7553 21.128 60.3953 21.24C59.7713 22.968 59.3553 23.832 59.1473 23.832C58.9793 23.832 58.7553 23.72 58.4753 23.496C58.2033 23.272 58.0673 23.04 58.0673 22.8C58.0673 22.664 58.2233 22.24 58.5353 21.528C58.3993 21.44 58.2793 21.316 58.1753 21.156C58.0793 20.988 58.0313 20.828 58.0313 20.676C58.0313 20.412 58.4273 20.16 59.2193 19.92C59.2833 19.76 59.3473 19.58 59.4113 19.38C59.4833 19.172 59.6553 18.692 59.9273 17.94C60.2073 17.188 60.4273 16.56 60.5873 16.056C60.6593 15.816 60.9073 15.592 61.3313 15.384C61.7633 15.176 62.0993 15.072 62.3393 15.072C62.6193 15.072 62.8673 15.46 63.0833 16.236C63.3073 17.012 63.4633 18.048 63.5513 19.344H63.7553ZM60.9833 19.548C61.2233 19.516 61.5713 19.476 62.0273 19.428C62.0033 19.196 61.9633 18.8 61.9073 18.24C61.8593 17.68 61.8233 17.276 61.7993 17.028C61.6633 17.476 61.3913 18.316 60.9833 19.548ZM66.6459 15.036C67.2699 15.036 67.9499 15.164 68.6859 15.42C69.4299 15.676 70.1179 16.012 70.7499 16.428C71.3899 16.844 71.9219 17.344 72.3459 17.928C72.7779 18.512 72.9939 19.104 72.9939 19.704C72.9939 20.152 72.6299 20.712 71.9019 21.384C71.1819 22.048 70.3459 22.624 69.3939 23.112C68.4419 23.6 67.6619 23.844 67.0539 23.844C66.9179 23.844 66.6979 23.668 66.3939 23.316C66.0979 22.956 65.9499 22.692 65.9499 22.524C65.9499 22.196 66.1659 21.284 66.5979 19.788C67.0379 18.284 67.3099 17.252 67.4139 16.692C67.1259 16.5 66.8859 16.272 66.6939 16.008C66.5019 15.736 66.4059 15.508 66.4059 15.324C66.4059 15.132 66.4859 15.036 66.6459 15.036ZM71.2659 19.368C71.2659 19.112 71.0299 18.776 70.5579 18.36C70.0859 17.936 69.5379 17.584 68.9139 17.304C68.8659 17.904 68.5259 19.188 67.8939 21.156C67.8619 21.26 67.8099 21.432 67.7379 21.672C67.6739 21.904 67.6259 22.06 67.5939 22.14C68.3779 21.876 69.1859 21.432 70.0179 20.808C70.8499 20.176 71.2659 19.696 71.2659 19.368ZM74.8661 23.844H74.8421C74.6661 23.844 74.4461 23.684 74.1821 23.364C73.9181 23.036 73.7861 22.752 73.7861 22.512C73.7861 22.264 74.0181 21.168 74.4821 19.224C74.9541 17.28 75.1901 16.052 75.1901 15.54C75.1901 15.22 75.3061 15.06 75.5381 15.06C75.7301 15.06 75.9621 15.252 76.2341 15.636C76.5061 16.012 76.6421 16.372 76.6421 16.716C76.6421 16.924 76.5381 17.456 76.3301 18.312C76.9861 17.44 77.6021 16.712 78.1781 16.128C78.7541 15.536 79.1461 15.24 79.3541 15.24C79.5701 15.24 79.7861 15.332 80.0021 15.516C80.2181 15.692 80.3261 15.848 80.3261 15.984C80.3261 16.112 80.1221 16.368 79.7141 16.752C79.3061 17.136 78.8021 17.624 78.2021 18.216C77.6021 18.808 77.1381 19.36 76.8101 19.872C76.8101 20.488 77.1661 21.108 77.8781 21.732C78.0941 21.916 78.3821 22.108 78.7421 22.308C79.1021 22.5 79.3821 22.668 79.5821 22.812C79.7901 22.948 79.8941 23.088 79.8941 23.232C79.8941 23.64 79.6061 23.844 79.0301 23.844C78.4541 23.844 77.8341 23.612 77.1701 23.148C76.5061 22.676 76.0101 22.052 75.6821 21.276C75.4741 21.868 75.3461 22.3 75.2981 22.572C75.2501 22.836 75.2141 23.012 75.1901 23.1C75.1741 23.188 75.1581 23.26 75.1421 23.316C75.1261 23.364 75.1101 23.42 75.0941 23.484C75.0781 23.548 75.0621 23.6 75.0461 23.64C75.0301 23.672 75.0141 23.704 74.9981 23.736C74.9501 23.808 74.9061 23.844 74.8661 23.844ZM86.8849 19.344C87.2049 19.344 87.4329 19.376 87.5689 19.44C87.7129 19.496 87.7849 19.604 87.7849 19.764C87.7849 19.98 87.4369 20.2 86.7409 20.424C86.7569 21.032 86.7649 21.616 86.7649 22.176C86.7649 22.728 86.7209 23.144 86.6329 23.424C86.5449 23.696 86.4049 23.832 86.2129 23.832C86.0209 23.832 85.8689 23.736 85.7569 23.544C85.6529 23.344 85.5649 23.02 85.4929 22.572C85.4289 22.124 85.3609 21.532 85.2889 20.796C84.4729 20.98 83.8849 21.128 83.5249 21.24C82.9009 22.968 82.4849 23.832 82.2769 23.832C82.1089 23.832 81.8849 23.72 81.6049 23.496C81.3329 23.272 81.1969 23.04 81.1969 22.8C81.1969 22.664 81.3529 22.24 81.6649 21.528C81.5289 21.44 81.4089 21.316 81.3049 21.156C81.2089 20.988 81.1609 20.828 81.1609 20.676C81.1609 20.412 81.5569 20.16 82.3489 19.92C82.4129 19.76 82.4769 19.58 82.5409 19.38C82.6129 19.172 82.7849 18.692 83.0569 17.94C83.3369 17.188 83.5569 16.56 83.7169 16.056C83.7889 15.816 84.0369 15.592 84.4609 15.384C84.8929 15.176 85.2289 15.072 85.4689 15.072C85.7489 15.072 85.9969 15.46 86.2129 16.236C86.4369 17.012 86.5929 18.048 86.6809 19.344H86.8849ZM84.1129 19.548C84.3529 19.516 84.7009 19.476 85.1569 19.428C85.1329 19.196 85.0929 18.8 85.0369 18.24C84.9889 17.68 84.9529 17.276 84.9289 17.028C84.7929 17.476 84.5209 18.316 84.1129 19.548Z" fill="#E54205"/>
</svg>
