<?xml version="1.0" encoding="UTF-8"?>
<svg version="1.1" xmlns="http://www.w3.org/2000/svg" width="1199" height="1199">
<path d="M0 0 C395.67 0 791.34 0 1199 0 C1199 395.67 1199 791.34 1199 1199 C803.33 1199 407.66 1199 0 1199 C0 803.33 0 407.66 0 0 Z " fill="#E84205" transform="translate(0,0)"/>
<path d="M0 0 C2.13199603 0.15677462 4.26399474 0.31351264 6.39599609 0.47021484 C52.82980052 3.92316687 98.71588861 9.02744112 144.171875 19.36669922 C146.55800607 19.90102449 148.94573982 20.40171601 151.34375 20.87890625 C170.86895265 24.98634217 190.83503473 31.66545001 208.875 40.1875 C210.04724121 40.73784912 210.04724121 40.73784912 211.24316406 41.29931641 C214.51690573 42.92765817 217.37383526 44.3832946 220.00093079 46.97070312 C229.38421058 55.7654024 240.96432894 54.0519519 253.05078125 53.89453125 C255.39723513 53.89443252 257.7436922 53.89829602 260.09013367 53.90592957 C266.24158049 53.91733244 272.39189534 53.8838079 278.54315186 53.8380127 C288.40459321 53.77126589 298.26614544 53.76893893 308.12776756 53.77469444 C311.56578402 53.76960161 315.0031147 53.74272666 318.44099426 53.71284485 C320.54830766 53.70620516 322.65562279 53.70008867 324.76293945 53.69458008 C325.71526459 53.68057663 326.66758972 53.66657318 327.64877319 53.65214539 C333.75635255 53.65889267 338.19691503 54.4143451 342.86328125 58.71875 C343.58064453 59.60046875 343.58064453 59.60046875 344.3125 60.5 C344.80363281 61.0878125 345.29476562 61.675625 345.80078125 62.28125 C348.70501826 66.44367439 348.49376282 71.14582468 348 76 C346.2006936 84.32821817 343.39478109 91.38541992 338 98 C337.43667969 98.69867188 336.87335937 99.39734375 336.29296875 100.1171875 C329.35305747 107.86066745 319.4629199 112.43647468 309.1159668 113.21777344 C308.07093994 113.26450195 307.02591309 113.31123047 305.94921875 113.359375 C292.6153054 114.0550975 280.38276063 114.74501355 268 120 C266.79601562 120.5053125 265.59203125 121.010625 264.3515625 121.53125 C252.61453129 126.92875676 239.85516803 135.352893 234.87304688 147.82006836 C233.83544214 151.02857164 232.90141141 154.25067145 232 157.5 C231.32114458 159.8161141 230.63885324 162.13122391 229.953125 164.4453125 C229.4590918 166.12415527 229.4590918 166.12415527 228.95507812 167.83691406 C227.67837017 172.06519328 226.27580806 176.23068279 224.75 180.375 C224.31171875 181.57898438 223.8734375 182.78296875 223.421875 184.0234375 C221.95936291 187.08506996 220.61449105 188.86179221 218 191 C214.34711807 192.21762731 211.84245864 192.39075851 208 192 C204.6169223 190.0578628 202.6195885 188.86193663 201.37988281 185.13647461 C200.37467465 178.11059003 202.44372911 172.93825505 205.125 166.5 C205.96890978 164.35706554 206.80874716 162.21252292 207.64453125 160.06640625 C208.05268066 159.02629395 208.46083008 157.98618164 208.88134766 156.91455078 C214.21812519 143.01004396 216.70686281 128.67102106 219 114 C218.4237085 114.29132813 217.84741699 114.58265625 217.25366211 114.8828125 C178.18519836 134.48059852 136.36263564 143.01692211 93.37719727 149.30151367 C84.95447374 150.53400584 84.95447374 150.53400584 76.57421875 152.0234375 C69.1864107 153.40066326 61.71813446 154.14461509 54.25 154.9375 C53.45165741 155.02304138 52.65331482 155.10858276 51.83078003 155.19671631 C39.42211487 156.51867151 27.00344207 157.65464285 14.5625 158.625 C13.85653687 158.68130585 13.15057373 158.73761169 12.42321777 158.79562378 C6.61889121 159.25357935 0.8106661 159.63233864 -5 160 C-6.26204254 160.0829129 -7.52408508 160.16582581 -8.82437134 160.25125122 C-34.672144 161.93087429 -60.43669334 162.28440894 -86.33343506 162.19561768 C-90.31439226 162.18476994 -94.29531575 162.18519773 -98.27628517 162.18561745 C-129.39003146 162.18487954 -160.43828162 161.68163965 -191.5 159.75 C-192.50375671 159.68886017 -193.50751343 159.62772034 -194.54168701 159.56472778 C-227.41943677 157.53441828 -260.52360754 154.64343869 -293 149 C-294.66009783 148.71970588 -296.32026008 148.43979311 -297.98046875 148.16015625 C-384.17728328 133.54847781 -384.17728328 133.54847781 -415 113 C-409.9173548 140.14752833 -402.35143761 166.18254744 -390 191 C-389.50983398 191.99676758 -389.50983398 191.99676758 -389.00976562 193.01367188 C-381.59135026 207.95583507 -372.31149652 221.90662492 -362 235 C-361.28328125 235.91007813 -360.5665625 236.82015625 -359.828125 237.7578125 C-347.12871637 253.56452324 -332.97135241 268.4848139 -317 281 C-315.80026224 281.97562944 -314.60246185 282.95364441 -313.40625 283.93359375 C-305.87408002 290.08415738 -298.26290387 295.84761191 -290 301 C-289.30874023 301.43248047 -288.61748047 301.86496094 -287.90527344 302.31054688 C-241.28577595 331.32088718 -190.46046091 349.42751011 -135.77709961 354.72216797 C-134.21202841 354.87874388 -132.64765801 355.045709 -131.08784485 355.24806213 C-124.81453936 356.03465831 -118.61863961 356.16123339 -112.30078125 356.16796875 C-111.18930222 356.17129715 -110.07782318 356.17462555 -108.93266296 356.17805481 C-106.58361216 356.18309858 -104.23455426 356.18546393 -101.88549805 356.18530273 C-98.36819927 356.18746575 -94.85122682 356.2055839 -91.33398438 356.22460938 C-16.72137862 356.41464571 58.49276831 331.67781541 117 285 C118.01707031 284.19691406 119.03414062 283.39382813 120.08203125 282.56640625 C128.68512708 275.66177569 136.89478533 268.37280682 144.41015625 260.296875 C145.57792603 259.06505493 145.57792603 259.06505493 146.76928711 257.80834961 C148.31206277 256.17379727 149.83352171 254.51879567 151.33032227 252.84204102 C155.12231432 248.85192492 157.66378947 246.47830233 163.32421875 246.296875 C167.06452876 246.4869778 168.96849507 247.36580833 171.6875 249.9375 C173.53759669 252.62416215 174.52210533 254.85052849 174.625 258.125 C173.34173463 264.91127721 167.34015581 269.76662184 162.60009766 274.42626953 C161.13460428 275.86761379 159.69664819 277.33681876 158.26171875 278.80859375 C153.38051734 283.79607327 148.36084834 288.53406053 143 293 C142.17653076 293.68618408 142.17653076 293.68618408 141.33642578 294.38623047 C125.33654142 307.66986514 108.87997069 319.35887 91 330 C90.25411621 330.44730469 89.50823242 330.89460938 88.73974609 331.35546875 C67.50930035 343.98396542 44.40489792 353.26025619 21 361 C19.96536621 361.34514648 18.93073242 361.69029297 17.86474609 362.04589844 C-38.77314642 380.65436844 -101.26089444 384.44138015 -160 375 C-161.09699219 374.82919922 -162.19398438 374.65839844 -163.32421875 374.48242188 C-173.1665961 372.92353602 -182.82134628 371.04023556 -192.359375 368.11328125 C-195.11359594 367.27105704 -197.86177345 366.48246597 -200.640625 365.73046875 C-264.88640264 348.22856377 -330.08641977 311.73683031 -371.87890625 258.671875 C-373.30335018 256.87754784 -374.77091051 255.11669259 -376.27734375 253.390625 C-388.47378227 239.39536005 -398.34639131 223.38370974 -407 207 C-407.48146484 206.10861328 -407.48146484 206.10861328 -407.97265625 205.19921875 C-416.6680809 189.04051464 -424.34966087 171.62587491 -428.8125 153.8125 C-430.42590841 147.40719755 -432.29286073 142.71829362 -437 138 C-437.58523438 137.34128906 -438.17046875 136.68257812 -438.7734375 136.00390625 C-453.04390874 120.59762199 -473.60935003 115.09230703 -493.9375 114.0625 C-506.86163445 113.21807204 -518.0688784 112.07423279 -528 103 C-528.60328125 102.49855469 -529.2065625 101.99710937 -529.828125 101.48046875 C-537.62385164 94.51515647 -542.24013416 84.05457794 -543.21484375 73.72265625 C-543.42310674 68.71601397 -542.91550015 65.23217763 -540 61 C-533.24101137 54.19307528 -533.24101137 54.19307528 -528.00055504 53.88088799 C-527.23332933 53.88352716 -526.46610363 53.88616634 -525.67562866 53.8888855 C-524.79261078 53.8892128 -523.9095929 53.8895401 -522.99981689 53.88987732 C-522.03356384 53.89511917 -521.06731079 53.90036102 -520.07177734 53.90576172 C-517.95771295 53.90854863 -515.84364841 53.91121847 -513.72958374 53.91378784 C-512.6067738 53.91683804 -511.48396385 53.91988823 -510.32712936 53.92303085 C-504.38341853 53.93436371 -498.43978463 53.91387357 -492.49609375 53.8984375 C-484.93133604 53.88015387 -477.36698588 53.87142989 -469.80224609 53.90039062 C-463.69063797 53.92295391 -457.57991687 53.91146408 -451.46837234 53.87738419 C-449.14246505 53.87062239 -446.81648637 53.87627425 -444.49064255 53.89474106 C-441.22763604 53.91897388 -437.96749818 53.89964262 -434.70458984 53.87060547 C-433.75048218 53.88799271 -432.79637451 53.90537994 -431.81335449 53.92329407 C-424.258982 53.78401822 -420.52450733 50.90060878 -415 46 C-411.953125 44.19897461 -411.953125 44.19897461 -409.25 42.90234375 C-408.2388916 42.41403076 -407.2277832 41.92571777 -406.18603516 41.42260742 C-405.13464355 40.93252197 -404.08325195 40.44243652 -403 39.9375 C-401.89060059 39.41583252 -400.78120117 38.89416504 -399.63818359 38.35668945 C-383.20196609 30.73725877 -366.55663572 26.12768766 -348.99316406 21.75341797 C-346.60014145 21.15106334 -344.21636392 20.52861259 -341.8359375 19.87890625 C-306.89881506 10.54426489 -270.30171347 6.50300021 -234.36572266 3.30419922 C-229.46950475 2.86167147 -224.57849216 2.37150697 -219.6875 1.875 C-217.55088364 1.65991823 -215.41425997 1.44493716 -213.27749634 1.23132324 C-211.79466453 1.08071336 -210.31226548 0.92575896 -208.83041382 0.76579285 C-140.11213179 -6.49099556 -68.77717298 -5.17159078 0 0 Z " fill="#22201F" transform="translate(697,259)"/>
<path d="M0 0 C0.96623039 -0.00088371 1.93246078 -0.00176743 2.92797089 -0.00267792 C29.39833126 -0.02407963 55.81107616 0.28919204 82.25 1.625 C83.50351257 1.68812378 84.75702515 1.75124756 86.04852295 1.81628418 C107.42185858 2.92550761 128.73026069 4.69226334 150 7.0625 C150.75236938 7.14614807 151.50473877 7.22979614 152.27990723 7.315979 C189.9840844 11.54386962 229.33678824 16.54075433 265.42041016 28.52294922 C267.85196881 29.32485195 270.29080986 30.10201134 272.73046875 30.87890625 C312.8861106 43.7886891 312.8861106 43.7886891 321.74609375 57.3828125 C322.625 59.25 322.625 59.25 323 62.25 C317.41334449 74.43906657 302.99316961 79.88102764 291.375 84.75 C290.11574707 85.29430664 290.11574707 85.29430664 288.83105469 85.84960938 C278.95598932 89.82148474 271.30848743 86.71764741 261.49291992 83.72869873 C234.0442011 75.41388561 206.19606556 69.83619631 177.9609375 64.99609375 C174.29397639 64.36738066 170.63089528 63.71874909 166.96875 63.0625 C141.73767853 58.59941692 116.33564007 56.10431343 90.8125 54.0625 C89.75830872 53.97782471 88.70411743 53.89314941 87.61798096 53.8059082 C84.53080722 53.56014267 81.44326538 53.31983366 78.35546875 53.08203125 C77.46972672 53.01240677 76.58398468 52.94278229 75.67140198 52.87104797 C59.78470898 51.67613535 43.92112998 51.09156304 27.9921875 51.08203125 C26.273966 51.07794551 24.55574497 51.07366277 22.83752441 51.06919861 C17.39167144 51.05773794 11.94586109 51.05900729 6.5 51.0625 C5.57189766 51.06276688 4.64379532 51.06303375 3.68756866 51.06330872 C-37.37854156 51.06990237 -37.37854156 51.06990237 -78.375 53.25 C-79.1781665 53.31316406 -79.98133301 53.37632812 -80.80883789 53.44140625 C-142.86596363 58.37550102 -209.37017489 66.01692727 -268.21875 87.53515625 C-275.98485985 89.29406479 -282.31516758 86.346699 -289.25 83.125 C-290.13115479 82.72120117 -291.01230957 82.31740234 -291.92016602 81.90136719 C-301.46672197 77.42445911 -310.42184337 72.17973494 -316.375 63.25 C-316.46024106 58.81746502 -315.62193871 56.05075685 -312.6875 52.8125 C-289.3343239 31.67669618 -250.76679029 24.77583775 -220.93994141 18.95166016 C-217.36426043 18.24788621 -213.79779936 17.50654602 -210.23046875 16.76171875 C-173.52017355 9.29672963 -135.65682611 5.08261404 -98.25 3.1875 C-95.99062987 3.07039256 -93.73135589 2.95184785 -91.47219849 2.83070374 C-89.45020966 2.72262235 -87.42799258 2.618835 -85.40576172 2.51538086 C-82.47822298 2.3451418 -79.57467213 2.06916936 -76.65917969 1.75512695 C-51.33793766 -0.84614831 -25.4229558 0.0106807 0 0 Z " fill="#E74205" transform="translate(596.375,277.75)"/>
<path d="M0 0 C5.69519946 0.01140731 11.39021222 0.00461164 17.08540535 -0.00688457 C41.21320384 -0.04817992 65.15614095 0.20602616 89.20703125 2.26074219 C90.80372744 2.38423011 92.40055584 2.50603032 93.99755859 2.62548828 C142.98277724 6.36019284 196.70433818 10.63250648 243.20703125 27.26074219 C240.44266675 29.10365185 239.21994348 29.62813748 236.1015625 30.22558594 C235.29114502 30.38430176 234.48072754 30.54301758 233.64575195 30.70654297 C232.77909912 30.86880371 231.91244629 31.03106445 231.01953125 31.19824219 C230.12258545 31.37081543 229.22563965 31.54338867 228.30151367 31.72119141 C226.4697836 32.07267809 224.63750499 32.42131826 222.8046875 32.76708984 C220.50875447 33.20340343 218.21686737 33.65526623 215.92578125 34.11621094 C208.40425987 35.59795065 200.94115272 36.7568289 193.31567383 37.52685547 C189.61319418 37.91389338 186.01295157 38.47378961 182.3671875 39.23339844 C177.10819696 40.31827761 171.85321631 41.02999205 166.51953125 41.63574219 C165.43776611 41.75876709 164.35600098 41.88179199 163.24145508 42.00854492 C152.63107659 43.17125751 142.00301618 44.13773243 131.36972046 45.06402588 C129.44754897 45.23149697 127.52551964 45.40061141 125.60366821 45.57171631 C118.47603689 46.2023681 111.344334 46.75165238 104.20703125 47.26074219 C102.96149475 47.3514801 101.71595825 47.44221802 100.43267822 47.53570557 C73.17231353 49.47917364 45.92807589 49.57231878 18.60888672 49.52148438 C12.46622746 49.51014153 6.32374258 49.51683794 0.1810894 49.52836704 C-42.27889557 49.59584334 -84.51979477 48.34556574 -126.79296875 44.26074219 C-127.9521582 44.15149414 -129.11134766 44.04224609 -130.30566406 43.9296875 C-154.81811171 41.57759258 -179.19094086 37.70749171 -203.4765625 33.67089844 C-204.18889542 33.5525061 -204.90122833 33.43411377 -205.63514709 33.31213379 C-226.19169482 29.86201612 -226.19169482 29.86201612 -228.79296875 27.26074219 C-190.03103508 16.65073664 -150.74201879 10.14067778 -110.81074524 5.90893555 C-106.45792146 5.44647319 -102.11108568 4.94786546 -97.765625 4.42089844 C-65.18389162 0.49262917 -32.77742941 -0.06628968 0 0 Z " fill="#E74205" transform="translate(591.79296875,349.7392578125)"/>
<path d="M0 0 C1.36560059 0.00303635 1.36560059 0.00303635 2.75878906 0.00613403 C3.68723633 0.00517731 4.61568359 0.00422058 5.57226562 0.00323486 C7.53938871 0.00255298 9.50651403 0.00440781 11.47363281 0.00857544 C14.49581932 0.01392358 17.51785721 0.00863071 20.54003906 0.00222778 C22.44628939 0.00288856 24.35253963 0.00416972 26.25878906 0.00613403 C27.16918945 0.0041098 28.07958984 0.00208557 29.01757812 0 C35.39383938 0.02399685 35.39383938 0.02399685 36.50878906 1.13894653 C36.60147905 2.48989635 36.62626233 3.84561744 36.62231445 5.19973755 C36.62223892 6.06055435 36.62216339 6.92137115 36.62208557 7.80827332 C36.61692429 8.74368454 36.611763 9.67909576 36.60644531 10.64285278 C36.60503036 11.59586777 36.60361542 12.54888275 36.60215759 13.53077698 C36.59654058 16.58769819 36.58398522 19.6445473 36.57128906 22.70144653 C36.56627625 24.76850277 36.56171297 26.83556015 36.55761719 28.90261841 C36.54656563 33.98142241 36.52928961 39.06017223 36.50878906 44.13894653 C37.16878906 44.13894653 37.82878906 44.13894653 38.50878906 44.13894653 C38.66335571 43.0053772 38.66335571 43.0053772 38.82104492 41.84890747 C40.0114464 33.59295767 41.67003105 25.50431689 43.59545898 17.39578247 C44.08035075 15.35072843 44.55574475 13.30361497 45.03027344 11.25613403 C47.37141666 1.27631893 47.37141666 1.27631893 48.50878906 0.13894653 C49.89039021 0.04616323 51.27666944 0.02147611 52.66137695 0.02542114 C53.54221451 0.02549667 54.42305206 0.0255722 55.33058167 0.02565002 C56.28786667 0.03081131 57.24515167 0.0359726 58.23144531 0.04129028 C59.69426186 0.0434127 59.69426186 0.0434127 61.18663025 0.045578 C64.31488049 0.05119521 67.4430603 0.06375061 70.57128906 0.07644653 C72.68652241 0.08145932 74.80175687 0.08602261 76.91699219 0.09011841 C82.11428202 0.10117022 87.31153051 0.11792507 92.50878906 0.13894653 C91.86485696 5.57842062 90.08788438 10.27552273 88.10253906 15.33425903 C87.75147095 16.2424942 87.40040283 17.15072937 87.03869629 18.08648682 C85.86890627 21.10668641 84.68990818 24.12316042 83.50878906 27.13894653 C83.09564453 28.19529297 82.6825 29.2516394 82.25683594 30.33999634 C81.39580141 32.54130342 80.53446775 34.74249352 79.67285156 36.943573 C77.89842549 41.47946604 76.12883851 46.01723887 74.36035156 50.55545044 C73.44891344 52.88771786 72.53345777 55.21841871 71.61425781 57.54763794 C70.26602372 60.96712038 68.93290782 64.39216835 67.60253906 67.81863403 C67.19015991 68.85406342 66.77778076 69.8894928 66.35290527 70.95629883 C63.3304325 78.80525336 62.607111 84.37264706 65.37207031 92.48269653 C65.96084961 94.22873169 65.96084961 94.22873169 66.56152344 96.01004028 C67.18510742 97.80634888 67.18510742 97.80634888 67.82128906 99.63894653 C68.22541016 100.8364856 68.62953125 102.03402466 69.04589844 103.26785278 C70.58133196 107.77678439 72.12182686 112.23738539 74.00097656 116.61550903 C76.16769566 121.67867129 77.89275872 126.88177217 79.66726685 132.09338379 C80.55030521 134.68646174 81.43936801 137.27745981 82.32823181 139.86854553 C82.76979895 141.15577499 83.21109545 142.44309731 83.65211487 143.73051453 C85.43631085 148.93703783 87.24169287 154.13571539 89.07128906 159.32644653 C89.31016846 160.00755493 89.54904785 160.68866333 89.79516602 161.39041138 C90.61093369 163.69937139 91.41244251 165.94625342 92.50878906 168.13894653 C92.54878106 170.13854665 92.55225705 172.13941896 92.50878906 174.13894653 C86.27921326 174.21484421 80.04975611 174.26748157 73.81982422 174.30374146 C71.69933619 174.31885298 69.57887953 174.33934294 67.45849609 174.36526489 C64.41528596 174.4015444 61.37248804 174.41864896 58.32910156 174.43191528 C57.37697784 174.44739914 56.42485413 174.462883 55.44387817 174.47883606 C54.12273514 174.47917595 54.12273514 174.47917595 52.77490234 174.47952271 C51.60908127 174.48951546 51.60908127 174.48951546 50.41970825 174.49971008 C49.78910492 174.38065811 49.15850159 174.26160614 48.50878906 174.13894653 C46.28543821 170.80392025 45.82407814 168.51018981 45.07128906 164.59207153 C44.94568604 163.94381409 44.82008301 163.29555664 44.69067383 162.62765503 C44.42527266 161.2497215 44.16323134 159.87113722 43.90429688 158.49197388 C43.51771601 156.43641363 43.11970479 154.38334275 42.71972656 152.33035278 C40.98338372 143.30104362 39.62703676 134.26582116 38.50878906 125.13894653 C37.84878906 125.13894653 37.18878906 125.13894653 36.50878906 125.13894653 C36.5154509 126.01551407 36.5154509 126.01551407 36.52224731 126.90979004 C36.56639668 132.97638511 36.5966204 139.04293476 36.61865234 145.10964966 C36.62872765 147.37561902 36.64238825 149.64157534 36.65966797 151.90750122 C36.68384917 155.15916154 36.69525669 158.41065041 36.70410156 161.66238403 C36.71442413 162.68012909 36.7247467 163.69787415 36.73538208 164.74645996 C36.73560867 166.15769638 36.73560867 166.15769638 36.73583984 167.59744263 C36.74028107 168.42795135 36.74472229 169.25846008 36.7492981 170.11413574 C36.50878906 172.13894653 36.50878906 172.13894653 34.50878906 174.13894653 C31.42353967 174.31448073 28.42914704 174.3701745 25.34472656 174.33425903 C23.98391464 174.33001419 23.98391464 174.33001419 22.59561157 174.32568359 C19.69153783 174.31446806 16.78776994 174.28936116 13.88378906 174.26394653 C11.91764768 174.2539185 9.95150147 174.24479234 7.98535156 174.23660278 C3.15971247 174.21452425 -1.66569734 174.17998518 -6.49121094 174.13894653 C-7.94933753 171.22269334 -7.61721797 168.67160797 -7.61819458 165.41334534 C-7.61975457 164.7140546 -7.62131456 164.01476386 -7.62292182 163.2942825 C-7.62692599 160.93966696 -7.62374444 158.58511534 -7.62060547 156.23049927 C-7.62195976 154.54711875 -7.62373984 152.86373854 -7.62591553 151.18035889 C-7.63048625 146.59997039 -7.62870187 142.01960433 -7.62553644 137.43921542 C-7.6230114 132.65504821 -7.62535074 127.87088298 -7.62692261 123.0867157 C-7.6287437 115.05244602 -7.62633937 107.01818552 -7.62158203 98.98391724 C-7.61613768 89.68171021 -7.61790357 80.3795251 -7.62340844 71.07731861 C-7.62793906 63.10365372 -7.62859042 55.12999545 -7.62596977 47.15632969 C-7.62440695 42.38823243 -7.62421339 37.62014548 -7.62750626 32.85204887 C-7.6303843 28.37139352 -7.62841052 23.89076656 -7.622612 19.41011429 C-7.62128412 17.76088699 -7.62167898 16.11165732 -7.62387466 14.46243095 C-7.62658505 12.22077585 -7.62320647 9.97921321 -7.61819458 7.73756409 C-7.61781755 6.48007071 -7.61744053 5.22257734 -7.61705208 3.92697811 C-7.38079945 -1.30723855 -4.57421704 0.01721491 0 0 Z " fill="#20201F" transform="translate(164.4912109375,755.8610534667969)"/>
<path d="M0 0 C1.0374939 0.00303635 1.0374939 0.00303635 2.09594727 0.00613403 C2.80243408 0.00517731 3.5089209 0.00422058 4.23681641 0.00323486 C5.7331552 0.00255321 7.22949694 0.00440649 8.72583008 0.00857544 C11.02374884 0.01392396 13.32147213 0.00863003 15.61938477 0.00222778 C17.06990603 0.00288857 18.52042718 0.00416974 19.97094727 0.00613403 C20.66260986 0.0041098 21.35427246 0.00208557 22.06689453 0 C26.91849503 0.0239943 26.91849503 0.0239943 28.03344727 1.13894653 C28.13270776 3.38955711 28.15977161 5.64335038 28.16043091 7.89614868 C28.16277089 8.96830446 28.16277089 8.96830446 28.16515815 10.06211996 C28.1691706 12.47511912 28.16597758 14.8880562 28.1628418 17.30105591 C28.16419573 19.02369728 28.16597562 20.74633836 28.16815186 22.46897888 C28.17272714 27.16099311 28.17093624 31.85298545 28.16777277 36.54500008 C28.16524966 41.44395128 28.16758657 46.34290054 28.16915894 51.24185181 C28.17098078 59.47041156 28.16857395 67.69896236 28.16381836 75.92752075 C28.15837571 85.45521751 28.16013836 94.98289288 28.16564476 104.51058912 C28.17017549 112.67531502 28.17082665 120.84003447 28.1682061 129.00476122 C28.16664309 133.88800946 28.16645018 138.77124763 28.16974258 143.65449524 C28.17262071 148.24430028 28.1706467 152.8340776 28.16484833 157.42387962 C28.16352041 159.11342002 28.16391538 160.80296272 28.16611099 162.49250221 C28.16882127 164.7889483 28.1654429 167.08530413 28.16043091 169.38174438 C28.15986537 171.31417873 28.15986537 171.31417873 28.15928841 173.28565216 C28.03344727 176.13894653 28.03344727 176.13894653 27.03344727 177.13894653 C24.74193309 177.22685628 22.44772202 177.24588692 20.15454102 177.23660278 C19.12454735 177.23448036 19.12454735 177.23448036 18.07374573 177.23231506 C15.87276926 177.22670132 13.67189318 177.2141466 11.47094727 177.20144653 C9.98201644 177.1964333 8.49308402 177.19187009 7.00415039 177.18777466 C3.34721652 177.17672746 -0.30965832 177.15945366 -3.96655273 177.13894653 C-4.62655273 175.48894653 -5.28655273 173.83894653 -5.96655273 172.13894653 C-7.18342773 172.59269653 -8.40030273 173.04644653 -9.65405273 173.51394653 C-10.39268555 173.78593872 -11.13131836 174.05793091 -11.89233398 174.33816528 C-14.04795975 175.13261088 -14.04795975 175.13261088 -16.34155273 176.32644653 C-21.94823449 178.06184803 -27.80310819 177.98719695 -33.21655273 175.63894653 C-40.59455615 171.35494455 -43.55654857 164.48545056 -46.10717773 156.65457153 C-48.64631404 146.26719574 -49.29146069 136.12211482 -49.30249023 125.47097778 C-49.30894177 123.98185609 -49.31567173 122.49273559 -49.32266235 121.00361633 C-49.33455339 117.89822459 -49.33835177 114.79294337 -49.3371582 111.68753052 C-49.33699585 108.53885887 -49.35086479 105.39077021 -49.37817383 102.24221802 C-49.7568488 57.92645006 -49.7568488 57.92645006 -38.96655273 46.13894653 C-34.06226358 41.24509203 -30.55023288 39.00628296 -23.46655273 38.76394653 C-22.50749023 38.71496216 -21.54842773 38.66597778 -20.56030273 38.61550903 C-15.23660217 39.39091759 -10.75564124 41.76265665 -5.96655273 44.13894653 C-5.97178955 42.84158569 -5.97702637 41.54422485 -5.98242188 40.20755005 C-6.00046743 35.41247238 -6.0119831 30.61739773 -6.02148438 25.82229614 C-6.02652562 23.74351497 -6.03335848 21.66473737 -6.04199219 19.58596802 C-6.05406696 16.60492068 -6.05978297 13.62392004 -6.06420898 10.64285278 C-6.07195091 9.23973595 -6.07195091 9.23973595 -6.07984924 7.80827332 C-6.07992477 6.94745651 -6.08000031 6.08663971 -6.08007812 5.19973755 C-6.08229874 4.43806778 -6.08451935 3.67639801 -6.08680725 2.89164734 C-5.82789089 -0.88203966 -3.15773358 0.01561703 0 0 Z " fill="#21201F" transform="translate(837.966552734375,752.8610534667969)"/>
<path d="M0 0 C1.0374939 0.00303635 1.0374939 0.00303635 2.09594727 0.00613403 C2.80243408 0.00517731 3.5089209 0.00422058 4.23681641 0.00323486 C5.7331552 0.00255321 7.22949694 0.00440649 8.72583008 0.00857544 C11.02374884 0.01392396 13.32147213 0.00863003 15.61938477 0.00222778 C17.06990603 0.00288857 18.52042718 0.00416974 19.97094727 0.00613403 C20.66260986 0.0041098 21.35427246 0.00208557 22.06689453 0 C26.91849503 0.0239943 26.91849503 0.0239943 28.03344727 1.13894653 C28.13270776 3.38955711 28.15977161 5.64335038 28.16043091 7.89614868 C28.16277089 8.96830446 28.16277089 8.96830446 28.16515815 10.06211996 C28.1691706 12.47511912 28.16597758 14.8880562 28.1628418 17.30105591 C28.16419573 19.02369728 28.16597562 20.74633836 28.16815186 22.46897888 C28.17272714 27.16099311 28.17093624 31.85298545 28.16777277 36.54500008 C28.16524966 41.44395128 28.16758657 46.34290054 28.16915894 51.24185181 C28.17098078 59.47041156 28.16857395 67.69896236 28.16381836 75.92752075 C28.15837571 85.45521751 28.16013836 94.98289288 28.16564476 104.51058912 C28.17017549 112.67531502 28.17082665 120.84003447 28.1682061 129.00476122 C28.16664309 133.88800946 28.16645018 138.77124763 28.16974258 143.65449524 C28.17262071 148.24430028 28.1706467 152.8340776 28.16484833 157.42387962 C28.16352041 159.11342002 28.16391538 160.80296272 28.16611099 162.49250221 C28.16882127 164.7889483 28.1654429 167.08530413 28.16043091 169.38174438 C28.15986537 171.31417873 28.15986537 171.31417873 28.15928841 173.28565216 C28.03344727 176.13894653 28.03344727 176.13894653 27.03344727 177.13894653 C22.81393663 177.42918714 18.58855259 177.45295157 14.36035156 177.48904419 C12.93928631 177.50558517 11.51830364 177.53285174 10.09765625 177.57107544 C8.04847085 177.62593665 6.00123753 177.64772956 3.95141602 177.66238403 C2.72189209 177.68220337 1.49236816 177.70202271 0.22558594 177.72244263 C-2.96655273 177.13894653 -2.96655273 177.13894653 -5.39892578 174.60623169 C-5.91624268 173.79202759 -6.43355957 172.97782349 -6.96655273 172.13894653 C-7.73999023 172.54113403 -7.73999023 172.54113403 -8.52905273 172.95144653 C-9.73561523 173.53925903 -9.73561523 173.53925903 -10.96655273 174.13894653 C-12.48249023 174.94332153 -12.48249023 174.94332153 -14.02905273 175.76394653 C-19.49764511 178.04057083 -25.66046315 178.36594885 -31.23999023 176.29519653 C-39.04665455 171.86842903 -42.76163671 165.57544828 -45.27905273 157.13894653 C-47.2866746 149.68448561 -48.08228478 142.44981026 -48.14355469 134.7517395 C-48.15012589 134.06104874 -48.15669708 133.37035797 -48.16346741 132.65873718 C-48.18298617 130.39953456 -48.19481575 128.14039777 -48.20483398 125.88113403 C-48.20890951 125.10056767 -48.21298504 124.3200013 -48.21718407 123.5157814 C-48.2379557 119.38236008 -48.25229449 115.24897105 -48.26171875 111.11550903 C-48.27275336 106.88621464 -48.30714466 102.65745061 -48.34689045 98.42834282 C-48.37325881 95.14055525 -48.3814284 91.85289022 -48.38500023 88.56500626 C-48.38981561 87.00795035 -48.4012817 85.45089798 -48.42003822 83.8939476 C-48.56544183 71.02274749 -47.62090023 55.30602544 -38.33374023 45.39675903 C-33.20698273 40.75826415 -28.70932227 38.84501789 -21.71655273 38.70144653 C-20.13100586 38.64150513 -20.13100586 38.64150513 -18.51342773 38.58035278 C-15.03056187 39.1288658 -13.24641538 39.94442627 -10.24487305 41.67385864 C-9.44156555 42.13288071 -8.63825806 42.59190277 -7.81060791 43.06483459 C-7.2020697 43.41929153 -6.59353149 43.77374847 -5.96655273 44.13894653 C-5.97178955 42.84158569 -5.97702637 41.54422485 -5.98242188 40.20755005 C-6.00046743 35.41247238 -6.0119831 30.61739773 -6.02148438 25.82229614 C-6.02652562 23.74351497 -6.03335848 21.66473737 -6.04199219 19.58596802 C-6.05406696 16.60492068 -6.05978297 13.62392004 -6.06420898 10.64285278 C-6.07195091 9.23973595 -6.07195091 9.23973595 -6.07984924 7.80827332 C-6.07992477 6.94745651 -6.08000031 6.08663971 -6.08007812 5.19973755 C-6.08229874 4.43806778 -6.08451935 3.67639801 -6.08680725 2.89164734 C-5.82789089 -0.88203966 -3.15773358 0.01561703 0 0 Z " fill="#21201F" transform="translate(397.966552734375,752.8610534667969)"/>
<path d="M0 0 C10.89 0 21.78 0 33 0 C33 23.76 33 47.52 33 72 C33.66 72 34.32 72 35 72 C35.03867187 70.79730469 35.03867187 70.79730469 35.078125 69.5703125 C35.44387951 62.23859716 36.39288686 55.34216144 38 48.1875 C38.17821289 47.3929541 38.35642578 46.5984082 38.54003906 45.77978516 C39.85653348 40.14346652 39.85653348 40.14346652 41 39 C43.59359322 38.91148471 46.16039691 38.88474055 48.75390625 38.90234375 C49.52935287 38.9037587 50.3047995 38.90517365 51.10374451 38.90663147 C53.59003494 38.91224655 56.0762366 38.92480154 58.5625 38.9375 C60.24413933 38.94251306 61.92578006 38.9470763 63.60742188 38.95117188 C67.73831566 38.96222087 71.86914276 38.97949555 76 39 C75.36512573 43.31097492 74.38414383 47.35057462 73.109375 51.515625 C72.73167969 52.75924805 72.35398437 54.00287109 71.96484375 55.28417969 C71.76616699 55.93269897 71.56749023 56.58121826 71.36279297 57.24938965 C70.33288476 60.61177323 69.31437685 63.97759457 68.296875 67.34375 C68.09678833 68.00518005 67.89670166 68.66661011 67.69055176 69.3480835 C65.83000556 75.52063094 64.08383149 81.7210132 62.40917969 87.94628906 C61.09299314 92.81401372 61.09299314 92.81401372 60 95 C59.56527718 100.14590503 59.82048212 104.27771127 62 109 C62.46376906 110.79656331 62.92269877 112.59446968 63.36181641 114.3972168 C64.60687863 119.4751083 65.9246892 124.53477435 67.22827148 129.59790039 C67.57915963 130.96122481 67.92957479 132.32467105 68.27954102 133.68823242 C70.08056828 140.70245683 71.89791835 147.70821955 73.859375 154.6796875 C74.13813477 155.67274902 74.41689453 156.66581055 74.70410156 157.68896484 C75.21876722 159.50671342 75.74104646 161.32233105 76.27246094 163.13525391 C76.50223633 163.94655762 76.73201172 164.75786133 76.96875 165.59375 C77.16919922 166.28146484 77.36964844 166.96917969 77.57617188 167.67773438 C78.14622784 170.80122075 78.06329836 173.833164 78 177 C73.05209823 177.0493651 68.10433917 177.08570269 63.15625 177.10986328 C61.47230534 177.11993317 59.78837821 177.13358988 58.10449219 177.15087891 C55.68680499 177.17508426 53.26934857 177.18647296 50.8515625 177.1953125 C50.0963028 177.20563507 49.34104309 177.21595764 48.56289673 177.22659302 C46.7070602 177.22699318 44.8518072 177.12222716 43 177 C40.19182119 174.19182119 40.22185526 171.15026467 39.7109375 167.3671875 C39.60278717 166.61535187 39.49463684 165.86351624 39.38320923 165.08889771 C39.03929481 162.68530383 38.70702502 160.28026218 38.375 157.875 C38.14399372 156.24598515 37.91223227 154.61707719 37.6796875 152.98828125 C37.11101857 148.99337555 36.55278824 144.99713281 36 141 C35.96241577 142.58252563 35.96241577 142.58252563 35.92407227 144.19702148 C35.83015891 148.09770628 35.72989966 151.99820625 35.62768555 155.89868164 C35.58427561 157.58939299 35.54260511 159.28014991 35.50268555 160.97094727 C35.44512906 163.39613606 35.38139351 165.82109415 35.31640625 168.24609375 C35.29133751 169.38672523 35.29133751 169.38672523 35.26576233 170.55039978 C35.11387171 175.88612829 35.11387171 175.88612829 34 177 C31.57509629 177.11322434 29.17973138 177.16416875 26.75390625 177.16796875 C26.02759506 177.17129715 25.30128387 177.17462555 24.55296326 177.17805481 C23.01374954 177.18312675 21.4745248 177.18546305 19.93530273 177.18530273 C17.57582529 177.18748766 15.21681639 177.20563565 12.85742188 177.22460938 C11.36458494 177.22754352 9.87174577 177.22952817 8.37890625 177.23046875 C7.67053116 177.23765427 6.96215607 177.24483978 6.23231506 177.25224304 C1.22882337 177.22882337 1.22882337 177.22882337 -1 175 C-1.24888897 172.03927517 -1.24888897 172.03927517 -1.24723816 168.1605072 C-1.24965257 167.44896581 -1.25206699 166.73742441 -1.25455457 166.00432116 C-1.26021279 163.60817619 -1.25151264 161.21229531 -1.24291992 158.81616211 C-1.24399227 157.10322497 -1.24593025 155.39028818 -1.24867249 153.67735291 C-1.25353117 149.01636019 -1.2458527 144.3554628 -1.23571944 139.69448161 C-1.22695686 134.82623443 -1.22869603 129.9579904 -1.2290802 125.08973694 C-1.22814282 116.91421913 -1.2194485 108.73873838 -1.20581055 100.56323242 C-1.190079 91.09742867 -1.18481258 81.63166551 -1.1855461 72.16584963 C-1.18615546 63.07611712 -1.18105875 53.98639791 -1.17275429 44.89666939 C-1.16921452 41.02067524 -1.16739005 37.14468579 -1.16686058 33.26869011 C-1.16585944 28.70923554 -1.15978171 24.14981533 -1.14969444 19.59037209 C-1.1467622 17.91212042 -1.14554553 16.23386479 -1.14612198 14.55561066 C-1.14660918 12.27453973 -1.14099164 9.99356653 -1.13371277 7.71250916 C-1.13203692 6.43289275 -1.13036108 5.15327635 -1.12863445 3.83488369 C-1 1 -1 1 0 0 Z " fill="#22201F" transform="translate(876,753)"/>
<path d="M0 0 C13.28187409 -0.02312079 26.56374343 -0.04091374 39.84563351 -0.05181217 C46.0122492 -0.05704158 52.17885118 -0.06414027 58.34545898 -0.07543945 C64.29116006 -0.08626629 70.23684789 -0.0922764 76.18255806 -0.09487724 C78.45646943 -0.09673186 80.73038004 -0.10035317 83.00428581 -0.10573006 C86.1772712 -0.11293778 89.35020117 -0.11399106 92.52319336 -0.11352539 C93.47337341 -0.11712067 94.42355347 -0.12071594 95.40252686 -0.12442017 C101.88594784 -0.11405216 101.88594784 -0.11405216 103 1 C103.0928726 2.41225046 103.11746772 3.82908934 103.11352539 5.24438477 C103.11341209 6.59567223 103.11341209 6.59567223 103.11329651 7.97425842 C103.10813522 8.95341721 103.10297394 9.93257599 103.09765625 10.94140625 C103.0962413 11.93881332 103.09482635 12.9362204 103.09336853 13.96385193 C103.08775114 17.16343124 103.07519571 20.36294169 103.0625 23.5625 C103.05748724 25.72591045 103.05292395 27.88932199 103.04882812 30.05273438 C103.03777607 35.36851325 103.02102104 40.68425171 103 46 C100.3178719 47.34106405 98.11601968 47.21450419 95.1171875 47.31640625 C93.95058594 47.35830078 92.78398438 47.40019531 91.58203125 47.44335938 C90.35871094 47.48267578 89.13539063 47.52199219 87.875 47.5625 C86.64394531 47.60568359 85.41289063 47.64886719 84.14453125 47.69335938 C81.09647147 47.79968704 78.0483281 47.90171781 75 48 C74.99576806 48.64329474 74.99153612 49.28658949 74.98717594 49.94937801 C74.88400715 65.58033409 74.77539036 81.21124127 74.66066074 96.84211636 C74.60531135 104.40099457 74.5518266 111.9598775 74.50268555 119.51879883 C74.45986466 126.10482626 74.41359207 132.69081869 74.36312145 139.27679211 C74.33650354 142.76611014 74.31165014 146.25542116 74.29092598 149.74477959 C74.26776327 153.63385523 74.23689642 157.5228483 74.20532227 161.41186523 C74.1995668 162.57711227 74.19381134 163.74235931 74.18788147 164.94291687 C74.17809265 165.99606079 74.16830383 167.04920471 74.15821838 168.13426208 C74.15176583 169.05513328 74.14531328 169.97600447 74.1386652 170.92478085 C74 173 74 173 73 174 C71.65455673 174.09785341 70.30407437 174.12797985 68.95507812 174.12939453 C68.09748901 174.13254669 67.2398999 174.13569885 66.35632324 174.13894653 C65.42404907 174.1369223 64.4917749 174.13489807 63.53125 174.1328125 C62.10528503 174.13424759 62.10528503 174.13424759 60.6505127 174.13571167 C58.63631118 174.13639357 56.62210748 174.13453862 54.60791016 174.13037109 C51.51329645 174.12502298 48.4188279 174.13031577 45.32421875 174.13671875 C43.37239551 174.13605797 41.42057236 174.13477681 39.46875 174.1328125 C38.07033875 174.13584885 38.07033875 174.13584885 36.64367676 174.13894653 C35.78608765 174.13579437 34.92849854 174.13264221 34.04492188 174.12939453 C33.28626831 174.12859894 32.52761475 174.12780334 31.74597168 174.12698364 C30 174 30 174 29 173 C28.89180852 171.38084076 28.8531521 169.75699212 28.84178162 168.13426208 C28.8319928 167.08111816 28.82220398 166.02797424 28.81211853 164.94291687 C28.80348534 163.19504631 28.80348534 163.19504631 28.79467773 161.41186523 C28.78477814 160.19252289 28.77487854 158.97318054 28.76467896 157.71688843 C28.73842821 154.36375394 28.7165923 151.01064407 28.69667697 147.65746951 C28.67485523 144.15671611 28.64744795 140.65600667 28.62062073 137.1552887 C28.57064213 130.52193534 28.52572255 123.88855765 28.48259836 117.25515658 C28.43327005 109.70506671 28.37833563 102.15502093 28.32291877 94.60497367 C28.20901944 79.07002317 28.10219781 63.53503216 28 48 C27.22285645 47.98018066 26.44571289 47.96036133 25.64501953 47.93994141 C22.13799309 47.84492991 18.63158206 47.73515441 15.125 47.625 C13.90167969 47.5940625 12.67835938 47.563125 11.41796875 47.53125 C10.25136719 47.49257813 9.08476563 47.45390625 7.8828125 47.4140625 C6.26463623 47.36693115 6.26463623 47.36693115 4.61376953 47.31884766 C2 47 2 47 0 45 C-0.24050903 43.05111694 -0.24050903 43.05111694 -0.22705078 40.64208984 C-0.22689972 39.74130707 -0.22674866 38.84052429 -0.22659302 37.91244507 C-0.21627045 36.93844757 -0.20594788 35.96445007 -0.1953125 34.9609375 C-0.1924826 33.96494537 -0.18965271 32.96895325 -0.18673706 31.94277954 C-0.1755184 28.75339882 -0.15041081 25.56429622 -0.125 22.375 C-0.11497238 20.21614988 -0.10584615 18.05729537 -0.09765625 15.8984375 C-0.07557361 10.59886301 -0.04207958 5.29945137 0 0 Z " fill="#20201F" transform="translate(596,756)"/>
<path d="M0 0 C7.70364557 5.53954725 12.89686754 12.06075588 15.3125 21.3125 C15.8344997 26.74973534 15.78077324 32.14843803 15.703125 37.6015625 C15.6956495 39.15667996 15.68996277 40.71180694 15.68597412 42.26693726 C15.67082051 46.32772581 15.63163004 50.38792718 15.5871582 54.44848633 C15.54598138 58.60489971 15.52791563 62.76140948 15.5078125 66.91796875 C15.46512351 75.04974635 15.39700002 83.1810498 15.3125 91.3125 C16.281875 91.291875 17.25125 91.27125 18.25 91.25 C21.3125 91.3125 21.3125 91.3125 22.3125 92.3125 C22.62177785 95.46926701 22.59113217 98.64247075 22.625 101.8125 C22.65400391 102.68648437 22.68300781 103.56046875 22.71289062 104.4609375 C22.79741108 113.22505826 20.00749748 120.37040071 13.9921875 126.8046875 C8.24547334 131.9633658 2.70310946 132.92585916 -4.921875 132.62890625 C-11.70017564 131.8534227 -15.24438714 128.07297807 -19.6875 123.3125 C-22.12624429 124.39638635 -23.94035366 125.52435036 -26 127.25 C-31.05711864 131.13104454 -36.00848549 132.97825187 -42.35546875 132.71875 C-48.69867232 131.61373631 -53.285547 128.23843088 -57.125 123.1875 C-57.99828076 121.9086786 -58.85453227 120.61793795 -59.6875 119.3125 C-60.3475 118.3225 -61.0075 117.3325 -61.6875 116.3125 C-63.82413522 107.9023401 -64.05275904 99.31799141 -64.0625 90.6875 C-64.08699219 89.53765625 -64.11148437 88.3878125 -64.13671875 87.203125 C-64.1724555 76.74416874 -61.87816243 68.76550045 -54.57421875 61.109375 C-47.97427291 54.8237123 -40.54039306 51.06701478 -32.39453125 47.14453125 C-26.83196754 44.61785094 -26.83196754 44.61785094 -22.375 40.625 C-21.34029184 37.144618 -21.56671862 33.93594134 -21.6875 30.3125 C-23.3375 29.9825 -24.9875 29.6525 -26.6875 29.3125 C-26.77837891 30.59447266 -26.77837891 30.59447266 -26.87109375 31.90234375 C-26.95488281 33.00707031 -27.03867187 34.11179687 -27.125 35.25 C-27.20621094 36.35214844 -27.28742188 37.45429687 -27.37109375 38.58984375 C-27.6875 41.3125 -27.6875 41.3125 -28.6875 42.3125 C-36.37996067 42.76188774 -44.18243136 42.27411363 -51.875 41.9375 C-52.71272949 41.90672363 -53.55045898 41.87594727 -54.41357422 41.84423828 C-60.45452406 41.54547594 -60.45452406 41.54547594 -62.6875 39.3125 C-62.94283994 36.41171951 -63.06830234 33.65233251 -63.0625 30.75 C-63.06088867 29.93241211 -63.05927734 29.11482422 -63.05761719 28.27246094 C-62.93346602 22.169579 -62.04132458 17.50627 -58.6875 12.3125 C-58.11 11.28125 -57.5325 10.25 -56.9375 9.1875 C-43.47889055 -8.00961207 -18.47460881 -11.30030239 0 0 Z " fill="#22201F" transform="translate(322.6875,797.6875)"/>
<path d="M0 0 C7.38036359 4.93418076 11.89049189 11.4357202 14.3125 19.9375 C14.50727034 22.3008486 14.60566655 24.67321184 14.63134766 27.04443359 C14.64139328 27.72805969 14.6514389 28.41168579 14.66178894 29.11602783 C14.69246409 31.35598985 14.70961185 33.59583322 14.7265625 35.8359375 C14.74528681 37.39678965 14.76486116 38.95763181 14.7852478 40.51846313 C14.83644174 44.61185807 14.87613532 48.70528577 14.91339111 52.79882812 C14.95351093 56.98185244 15.00456677 61.16474193 15.0546875 65.34765625 C15.15129582 73.54417852 15.23574853 81.74076785 15.3125 89.9375 C17.6225 90.5975 19.9325 91.2575 22.3125 91.9375 C22.96129354 103.42354861 23.51576356 113.24871472 16.3125 122.9375 C14.17003913 125.33398867 11.99631172 127.1791406 9.3125 128.9375 C8.425625 129.55625 7.53875 130.175 6.625 130.8125 C0.893392 132.75908385 -5.40096587 133.27764013 -11.1015625 130.953125 C-14.74090847 128.7449825 -17.85286228 126.12646744 -20.6875 122.9375 C-23.47651907 124.11746961 -25.32642179 125.46993482 -27.6875 127.4375 C-32.56239718 131.49991432 -35.8159692 132.39250436 -42.08984375 132.25390625 C-50.03248177 131.28645711 -54.8280503 126.30155847 -59.8125 120.4375 C-64.84345372 111.04638639 -65.0042567 101.25237758 -65.125 90.8125 C-65.15835449 89.16846191 -65.15835449 89.16846191 -65.19238281 87.49121094 C-65.1618892 76.21873775 -62.31935551 67.45578954 -54.43359375 59.28515625 C-46.77788248 52.74023097 -37.23843793 48.54421239 -28.11328125 44.45703125 C-25.18928613 42.62541434 -24.10863234 41.06210885 -22.6875 37.9375 C-22.33050129 35.73174004 -22.33050129 35.73174004 -22.5 33.625 C-22.561875 32.408125 -22.62375 31.19125 -22.6875 29.9375 C-24.3375 29.6075 -25.9875 29.2775 -27.6875 28.9375 C-27.77837891 30.21947266 -27.77837891 30.21947266 -27.87109375 31.52734375 C-27.95488281 32.63207031 -28.03867187 33.73679687 -28.125 34.875 C-28.20621094 35.97714844 -28.28742187 37.07929687 -28.37109375 38.21484375 C-28.6875 40.9375 -28.6875 40.9375 -29.6875 41.9375 C-37.21209568 42.43234768 -44.84960225 41.84715077 -52.375 41.5 C-53.27259033 41.46084473 -54.17018066 41.42168945 -55.0949707 41.38134766 C-55.93374756 41.33929199 -56.77252441 41.29723633 -57.63671875 41.25390625 C-58.39299561 41.21724854 -59.14927246 41.18059082 -59.9284668 41.14282227 C-61.6875 40.9375 -61.6875 40.9375 -62.6875 39.9375 C-63.77678363 29.3052645 -64.42175084 17.76169075 -57.6875 8.9375 C-57.03587891 7.98230469 -57.03587891 7.98230469 -56.37109375 7.0078125 C-43.45341716 -10.1421513 -17.12350111 -9.79806271 0 0 Z " fill="#22201F" transform="translate(1023.6875,798.0625)"/>
<path d="M0 0 C1.21042969 0.65355469 1.21042969 0.65355469 2.4453125 1.3203125 C10.17130961 5.98650878 15.11376495 12.43838236 18 21 C18.39872742 24.53721619 18.39872742 24.53721619 18.43237305 28.31225586 C18.44766052 29.3525444 18.44766052 29.3525444 18.46325684 30.41384888 C18.49318413 32.6809315 18.50262111 34.94759025 18.51171875 37.21484375 C18.52858057 38.79669069 18.54673283 40.37852436 18.56611633 41.96034241 C18.61345959 46.10470429 18.64336993 50.24901233 18.66955566 54.39355469 C18.69944069 58.63031647 18.74594358 62.86689301 18.79101562 67.10351562 C18.8768702 75.4022524 18.94429435 83.70100633 19 92 C21.31 92.66 23.62 93.32 26 94 C26.88867551 118.04360955 26.88867551 118.04360955 18.1875 127.4375 C12.45657828 132.66182091 7.19026392 134.55423795 -0.5078125 134.28515625 C-7.15003634 133.52515258 -11.69871544 131.24219056 -16 126 C-16 125.34 -16 124.68 -16 124 C-18.95689199 125.65238082 -21.4548486 127.3805876 -24.0625 129.5625 C-28.90468336 133.58048194 -32.18459579 134.46923976 -38.41015625 134.3046875 C-45.44267514 133.47733234 -50.06982291 129.64261317 -54.4609375 124.2890625 C-60.72738214 114.96891894 -61.25132151 105.3837072 -61.375 94.5 C-61.41238281 93.283125 -61.44976563 92.06625 -61.48828125 90.8125 C-61.60041919 79.15015414 -58.54591728 69.52426933 -50.34765625 61.01953125 C-44.93211509 56.36090433 -38.61022187 53.25914902 -32.22265625 50.15234375 C-31.59246582 49.84441895 -30.96227539 49.53649414 -30.31298828 49.21923828 C-28.52727534 48.35590349 -26.73066549 47.5152161 -24.93359375 46.67578125 C-21.98165792 44.9895223 -20.59546838 43.96691551 -19 41 C-18.43015552 38.42126391 -18.43015552 38.42126391 -18.3125 35.75 C-18.24675781 34.85796875 -18.18101562 33.9659375 -18.11328125 33.046875 C-18.07589844 32.37140625 -18.03851562 31.6959375 -18 31 C-19.66611905 30.957279 -21.33382885 30.95936168 -23 31 C-24.72753345 32.72753345 -24.33004719 35.14493966 -24.5 37.5 C-24.88888889 42.88888889 -24.88888889 42.88888889 -26 44 C-33.52459568 44.49484768 -41.16210225 43.90965077 -48.6875 43.5625 C-49.58509033 43.52334473 -50.48268066 43.48418945 -51.4074707 43.44384766 C-52.24624756 43.40179199 -53.08502441 43.35973633 -53.94921875 43.31640625 C-54.70549561 43.27974854 -55.46177246 43.24309082 -56.2409668 43.20532227 C-58 43 -58 43 -59 42 C-59.30927785 38.84323299 -59.27863217 35.67002925 -59.3125 32.5 C-59.34150391 31.62601563 -59.37050781 30.75203125 -59.40039062 29.8515625 C-59.49547729 19.99180674 -55.56928819 12.23573771 -49 5 C-36.74372075 -6.57879647 -14.5112059 -7.86634394 0 0 Z " fill="#22201F" transform="translate(759,796)"/>
<path d="M0 0 C1.21042969 0.65355469 1.21042969 0.65355469 2.4453125 1.3203125 C10.17130961 5.98650878 15.11376495 12.43838236 18 21 C18.39872742 24.53721619 18.39872742 24.53721619 18.43237305 28.31225586 C18.44766052 29.3525444 18.44766052 29.3525444 18.46325684 30.41384888 C18.49318413 32.6809315 18.50262111 34.94759025 18.51171875 37.21484375 C18.52858057 38.79669069 18.54673283 40.37852436 18.56611633 41.96034241 C18.61345959 46.10470429 18.64336993 50.24901233 18.66955566 54.39355469 C18.69944069 58.63031647 18.74594358 62.86689301 18.79101562 67.10351562 C18.8768702 75.4022524 18.94429435 83.70100633 19 92 C21.31 92.66 23.62 93.32 26 94 C26.88867551 118.04360955 26.88867551 118.04360955 18.1875 127.4375 C12.45907209 132.65954755 7.18927218 134.56199473 -0.5078125 134.28125 C-6.13666513 133.64601898 -10.2923826 132.20555928 -14 127.8125 C-14.99 126.4203125 -14.99 126.4203125 -16 125 C-19.31744018 125.58928214 -21.04663336 126.65698419 -23.5 128.9375 C-28.29784534 133.37550694 -31.91445213 134.47638012 -38.41015625 134.3046875 C-45.62528455 133.45584888 -50.08172876 129.50891698 -54.52734375 124 C-61.40782318 114.65568841 -60.26984176 102.79450762 -60.4375 91.625 C-60.48326172 90.3875 -60.52902344 89.15 -60.57617188 87.875 C-60.69551086 78.01656177 -58.48115938 70.26165996 -52.00537109 62.65795898 C-46.56988535 57.14272644 -39.66564998 54.10219047 -32.76953125 50.8203125 C-24.9006204 47.13507563 -24.9006204 47.13507563 -19 41 C-18.75849227 38.48415109 -18.75849227 38.48415109 -18.875 35.8125 C-18.89304687 34.91144531 -18.91109375 34.01039063 -18.9296875 33.08203125 C-18.95289063 32.39496094 -18.97609375 31.70789063 -19 31 C-21.475 31.495 -21.475 31.495 -24 32 C-24.06058594 32.78246094 -24.12117188 33.56492187 -24.18359375 34.37109375 C-24.26738281 35.38300781 -24.35117187 36.39492188 -24.4375 37.4375 C-24.51871094 38.44683594 -24.59992188 39.45617187 -24.68359375 40.49609375 C-25 43 -25 43 -26 44 C-33.52459568 44.49484768 -41.16210225 43.90965077 -48.6875 43.5625 C-49.58509033 43.52334473 -50.48268066 43.48418945 -51.4074707 43.44384766 C-52.66563599 43.38076416 -52.66563599 43.38076416 -53.94921875 43.31640625 C-54.70549561 43.27974854 -55.46177246 43.24309082 -56.2409668 43.20532227 C-58 43 -58 43 -59 42 C-60.59552842 28.55464065 -59.24874112 18.25076497 -50.98828125 7.34375 C-39.27073816 -6.468678 -15.42115243 -8.35961462 0 0 Z " fill="#21201F" transform="translate(495,796)"/>
<path d="M0 0 C12.21 0 24.42 0 37 0 C37.02254641 17.84531177 37.04097881 35.69061145 37.05181217 53.53593349 C37.05697528 61.82124274 37.06401827 70.10654253 37.07543945 78.3918457 C37.08538583 85.61069608 37.09185332 92.82953961 37.09408849 100.04839665 C37.09539568 103.87308255 37.09848203 107.69774887 37.10573006 111.52242851 C37.11248954 115.11825787 37.11461711 118.71405946 37.11310768 122.30989456 C37.11351636 124.26706037 37.11891193 126.22422312 37.12442017 128.18138123 C37.1230455 129.335495 37.12167084 130.48960876 37.12025452 131.67869568 C37.12117631 132.688059 37.1220981 133.69742231 37.12304783 134.7373724 C37 137 37 137 36 138 C33.41810554 138.10091475 30.863535 138.13971499 28.28125 138.1328125 C27.12163757 138.13424759 27.12163757 138.13424759 25.93859863 138.13571167 C24.30102456 138.13639341 22.66344781 138.13453957 21.02587891 138.13037109 C18.51068079 138.12502271 15.99566127 138.13031626 13.48046875 138.13671875 C11.89322877 138.13605797 10.3059889 138.1347768 8.71875 138.1328125 C7.96146606 138.13483673 7.20418213 138.13686096 6.4239502 138.13894653 C1.11495132 138.11495132 1.11495132 138.11495132 0 137 C-0.09634459 135.22839682 -0.12187481 133.45291592 -0.12025452 131.67869568 C-0.12162918 130.52458191 -0.12300385 129.37046814 -0.12442017 128.18138123 C-0.12082489 126.90392532 -0.11722961 125.62646942 -0.11352539 124.31030273 C-0.11324352 122.96041872 -0.11340125 121.61053456 -0.1139679 120.26065063 C-0.11425587 116.58519392 -0.10835916 112.90976957 -0.10139394 109.2343204 C-0.09516038 105.39726851 -0.0945566 101.56021596 -0.09336853 97.72315979 C-0.09025522 90.45228782 -0.08204183 83.18143081 -0.07201904 75.91056544 C-0.0608579 67.63500648 -0.05534745 59.35944682 -0.05032361 51.08388221 C-0.03985922 34.05591133 -0.02151374 17.02796106 0 0 Z " fill="#21201F" transform="translate(527,792)"/>
<path d="M0 0 C2.82658045 1.43171031 5.13861789 3.34887688 7.5625 5.375 C8.97023648 6.48744394 10.38044751 7.59676282 11.79296875 8.703125 C12.49728027 9.26064453 13.2015918 9.81816406 13.92724609 10.39257812 C43.29252629 33.16537021 80.53039765 49.49545695 116.51855469 57.84912109 C122.22630427 59.29534933 124.77510574 61.00909222 128 66 C128.71773857 70.46592888 128.32766948 72.41019494 126.125 76.375 C124 79 124 79 122 80 C114.13476802 80.7156535 107.2853811 79.39460076 99.8125 77.0625 C98.77569092 76.74676025 97.73888184 76.43102051 96.6706543 76.10571289 C60.68603455 64.92963942 27.27046961 48.49269729 -3 26 C-3.54994629 25.59201172 -4.09989258 25.18402344 -4.66650391 24.76367188 C-13.34603472 18.26021361 -13.34603472 18.26021361 -15 14 C-15.43002518 10.68266291 -15.71759662 8.19510514 -13.94921875 5.25 C-9.88072741 0.25739706 -6.36403443 -1.06898675 0 0 Z " fill="#22201F" transform="translate(404,509)"/>
<path d="M0 0 C26.73 0 53.46 0 81 0 C78.78504529 6.64486414 75.86139349 10.27002233 70 14 C64.76550253 16.19381096 60.06920271 16.2347685 54.5 16.3125 C36.23827428 16.91441111 17.9221794 21.1280743 2.19140625 30.7109375 C0 32 0 32 -2 32 C-1.93941406 31.28199219 -1.87882813 30.56398438 -1.81640625 29.82421875 C-1.01146043 19.88004191 -0.52514229 9.97770359 0 0 Z " fill="#E64205" transform="translate(941,335)"/>
<path d="M0 0 C26.73 0 53.46 0 81 0 C81.33 10.56 81.66 21.12 82 32 C79.525 30.783125 77.05 29.56625 74.5 28.3125 C61.41508589 22.05952096 47.57206191 17.29231676 32.97265625 16.8046875 C32.05444092 16.7727832 31.13622559 16.74087891 30.19018555 16.70800781 C28.36008934 16.65404608 26.52932417 16.61852032 24.69848633 16.60449219 C16.4447453 16.39778229 8.95634016 13.95634016 3 8 C0 2.82758621 0 2.82758621 0 0 Z " fill="#E64205" transform="translate(177,335)"/>
<path d="M0 0 C1.29292969 -0.00257813 2.58585938 -0.00515625 3.91796875 -0.0078125 C4.59263184 -0.00362305 5.26729492 0.00056641 5.96240234 0.00488281 C8.02341157 0.0155843 10.08354919 0.00498557 12.14453125 -0.0078125 C13.43746094 -0.00523437 14.73039063 -0.00265625 16.0625 0 C17.25423828 0.00225586 18.44597656 0.00451172 19.67382812 0.00683594 C22.53125 0.265625 22.53125 0.265625 24.53125 2.265625 C24.77416992 5.32250977 24.77416992 5.32250977 24.76171875 9.20703125 C24.76126053 9.88990707 24.76080231 10.5727829 24.7603302 11.27635193 C24.75730891 12.71965269 24.74942622 14.16295022 24.73706055 15.60620117 C24.7187933 17.82287053 24.71655093 20.03912258 24.71679688 22.25585938 C24.67867468 33.11820032 24.67867468 33.11820032 23.53125 34.265625 C21.25177208 34.3658343 18.96917865 34.39643803 16.6875 34.3984375 C16.00320923 34.39939423 15.31891846 34.40035095 14.6138916 34.40133667 C13.16463123 34.4020183 11.71536782 34.40016523 10.26611328 34.39599609 C8.04062072 34.39064752 5.81532999 34.3959416 3.58984375 34.40234375 C2.18489539 34.40168297 0.77994715 34.4004018 -0.625 34.3984375 C-1.91212891 34.39730957 -3.19925781 34.39618164 -4.52539062 34.39501953 C-7.46875 34.265625 -7.46875 34.265625 -8.46875 33.265625 C-8.68707989 28.86563555 -8.65454146 24.46027688 -8.65405273 20.05541992 C-8.65623751 17.84078718 -8.67438531 15.62665377 -8.69335938 13.41210938 C-8.69629356 12.01041838 -8.69827819 10.608725 -8.69921875 9.20703125 C-8.70332764 7.92513916 -8.70743652 6.64324707 -8.71166992 5.32250977 C-8.24490502 -0.55122224 -5.08170747 0.00961924 0 0 Z " fill="#24201F" transform="translate(537.46875,749.734375)"/>
<path d="M0 0 C4.04463851 0.07028598 6.38379707 0.79257322 9.375 3.71875 C11.59079846 6.27173519 13.64704977 8.9254506 15.67578125 11.62890625 C18.8771445 15.74327255 22.3044994 19.65700762 25.72509766 23.58959961 C30.10929882 28.64932709 32.32674894 31.46601365 32.20703125 38.1484375 C31.57842115 41.69603903 29.59126696 43.25784422 26.8125 45.375 C23.55202371 47.00523814 21.43448965 46.8423535 17.8125 46.375 C14.72079523 44.4704055 12.32665578 41.97706332 9.8125 39.375 C8.93078125 38.4675 8.0490625 37.56 7.140625 36.625 C-10.60290093 17.96933727 -10.60290093 17.96933727 -10.55078125 8.4140625 C-9.94715397 5.025961 -7.7719052 3.45513101 -5.1875 1.375 C-3.63766739 -0.17483261 -2.15081622 0.09367039 0 0 Z " fill="#22201F" transform="translate(351.1875,459.625)"/>
<path d="M0 0 C2 0.1875 2 0.1875 4 1 C6.26971276 4.40456914 6.25250421 5.60556669 6.25878906 9.60131836 C6.26509338 10.74938461 6.27139771 11.89745087 6.27789307 13.08030701 C6.2738446 14.32095413 6.26979614 15.56160126 6.265625 16.83984375 C6.26753845 18.11348282 6.2694519 19.38712189 6.27142334 20.69935608 C6.27278557 23.39533015 6.27008851 26.09094272 6.26074219 28.78686523 C6.24935915 32.23806052 6.25590166 35.68894433 6.26788712 39.14012814 C6.27686465 42.43587774 6.27057266 45.73159007 6.265625 49.02734375 C6.26967346 50.26596664 6.27372192 51.50458954 6.27789307 52.78074646 C6.27158875 53.93196487 6.26528442 55.08318329 6.25878906 56.26928711 C6.25640228 57.78793617 6.25640228 57.78793617 6.25396729 59.33726501 C5.99603408 62.04158096 5.38514721 63.68843516 4 66 C2.33388095 66.042721 0.66617115 66.04063832 -1 66 C-2.78872887 64.21127113 -2.13697364 61.5511113 -2.14526367 59.13500977 C-2.15164352 57.88023331 -2.15802338 56.62545685 -2.16459656 55.33265686 C-2.16612512 53.95224038 -2.16723914 52.57182338 -2.16796875 51.19140625 C-2.17117967 49.78515081 -2.17454362 48.37889571 -2.17805481 46.97264099 C-2.18405232 44.02105942 -2.18589408 41.06950716 -2.18530273 38.11791992 C-2.18520109 34.33019954 -2.19885285 30.54266653 -2.21607494 26.75499058 C-2.22717742 23.84941235 -2.22922248 20.94387967 -2.22869301 18.03828239 C-2.2298758 16.64159436 -2.23431421 15.24490524 -2.24202538 13.84823799 C-2.25178925 11.89697799 -2.24769234 9.94566336 -2.24291992 7.99438477 C-2.24434494 6.88265396 -2.24576996 5.77092316 -2.24723816 4.62550354 C-2 2 -2 2 0 0 Z " fill="#D74007" transform="translate(826,828)"/>
<path d="M0 0 C2.5 0.3125 2.5 0.3125 5 1 C6.33237821 3.66475642 6.13445576 5.70328636 6.14526367 8.68725586 C6.15164352 9.87866684 6.15802338 11.07007782 6.16459656 12.29759216 C6.16570938 13.59028519 6.1668222 14.88297821 6.16796875 16.21484375 C6.17118115 17.55001359 6.1745452 18.88518308 6.17805481 20.22035217 C6.1840465 23.02052629 6.18589466 25.82066953 6.18530273 28.62084961 C6.1852011 32.21002945 6.19885475 35.79901154 6.21607494 39.38814449 C6.22719002 42.14621389 6.2292221 44.9042354 6.22869301 47.66232491 C6.23044826 49.62938525 6.24129203 51.59643066 6.25224304 53.5634613 C6.24916641 54.75802444 6.24608978 55.95258759 6.24291992 57.18334961 C6.24434494 58.23654892 6.24576996 59.28974823 6.24723816 60.37486267 C6 63 6 63 4 66 C2.35 65.67 0.7 65.34 -1 65 C-1.02312684 56.67271053 -1.04091683 48.34543437 -1.05181217 40.01812077 C-1.05704026 36.15179882 -1.06413654 32.28549879 -1.07543945 28.41918945 C-1.086271 24.69096599 -1.0922774 20.96276366 -1.09487724 17.23452568 C-1.09673101 15.80910344 -1.10035071 14.38368241 -1.10573006 12.95826912 C-1.11294393 10.96836592 -1.11340808 8.97844166 -1.11352539 6.98852539 C-1.115746 5.85379288 -1.11796661 4.71906036 -1.12025452 3.54994202 C-1 1 -1 1 0 0 Z " fill="#E54205" transform="translate(386,828)"/>
<path d="M0 0 C0.61399658 0.19126465 1.22799316 0.3825293 1.8605957 0.57958984 C1.91844278 4.70453136 1.95413977 8.82936929 1.9855957 12.95458984 C2.01073242 14.71802734 2.01073242 14.71802734 2.03637695 16.51708984 C2.04282227 17.63857422 2.04926758 18.76005859 2.0559082 19.91552734 C2.06638184 20.95241699 2.07685547 21.98930664 2.08764648 23.05761719 C1.8605957 25.57958984 1.8605957 25.57958984 -0.1394043 27.57958984 C-2.7019043 27.32958984 -2.7019043 27.32958984 -5.1394043 26.57958984 C-7.01571751 22.82696342 -6.41060453 18.33456635 -6.4519043 14.20458984 C-6.4809082 13.24552734 -6.50991211 12.28646484 -6.53979492 11.29833984 C-6.60320262 4.29422831 -6.60320262 4.29422831 -4.36987305 0.85302734 C-2.1394043 -0.42041016 -2.1394043 -0.42041016 0 0 Z " fill="#D53F07" transform="translate(300.139404296875,869.42041015625)"/>
<path d="M0 0 C0 8.91 0 17.82 0 27 C-1.65 27.33 -3.3 27.66 -5 28 C-8.42679211 24.57320789 -7.36909685 19.77077613 -7.375 15.125 C-7.39949219 14.11824219 -7.42398437 13.11148438 -7.44921875 12.07421875 C-7.47858772 4.7026075 -7.47858772 4.7026075 -5.1640625 1.3046875 C-3 0 -3 0 0 0 Z " fill="#E24105" transform="translate(477,869)"/>
<path d="M0 0 C0.05783842 4.29161047 0.0935412 8.58312145 0.125 12.875 C0.14175781 14.09832031 0.15851562 15.32164062 0.17578125 16.58203125 C0.18222656 17.74863281 0.18867187 18.91523437 0.1953125 20.1171875 C0.20578613 21.19597168 0.21625977 22.27475586 0.22705078 23.38623047 C0 26 0 26 -2 28 C-3.32 28 -4.64 28 -6 28 C-7.93531061 24.12937878 -7.27192404 19.38277058 -7.3125 15.125 C-7.34150391 14.11824219 -7.37050781 13.11148438 -7.40039062 12.07421875 C-7.46419327 4.68292826 -7.46419327 4.68292826 -5.16796875 1.3046875 C-3 0 -3 0 0 0 Z " fill="#E14105" transform="translate(1002,869)"/>
<path d="M0 0 C0.05783842 4.29161047 0.0935412 8.58312145 0.125 12.875 C0.14175781 14.09832031 0.15851562 15.32164062 0.17578125 16.58203125 C0.18222656 17.74863281 0.18867187 18.91523437 0.1953125 20.1171875 C0.20578613 21.19597168 0.21625977 22.27475586 0.22705078 23.38623047 C0 26 0 26 -2 28 C-5.53571429 27.46428571 -5.53571429 27.46428571 -7 26 C-7.30751719 22.40438181 -7.27840593 18.7946521 -7.3125 15.1875 C-7.34150391 14.17623047 -7.37050781 13.16496094 -7.40039062 12.12304688 C-7.46430767 4.68408656 -7.46430767 4.68408656 -5.16796875 1.30078125 C-3 0 -3 0 0 0 Z " fill="#E44205" transform="translate(741,869)"/>
<path d="M0 0 C0.66 0 1.32 0 2 0 C2.38063221 2.3260857 2.71269945 4.66055264 3 7 C2.67 7.33 2.34 7.66 2 8 C1.83982834 10.80976518 1.74049466 13.59773596 1.68359375 16.41015625 C1.66281265 17.25219101 1.64203156 18.09422577 1.62062073 18.96177673 C1.55503188 21.66193179 1.49619724 24.36218717 1.4375 27.0625 C1.39432363 28.88868241 1.35070964 30.71485454 1.30664062 32.54101562 C1.19934106 37.02723992 1.09810034 41.5135655 1 46 C0.67 46 0.34 46 0 46 C0 30.82 0 15.64 0 0 Z " fill="#D53F07" transform="translate(201,881)"/>
<path d="M0 0 C0.66 0 1.32 0 2 0 C2.33 2.31 2.66 4.62 3 7 C2.01 7.66 1.02 8.32 0 9 C0 6.03 0 3.06 0 0 Z " fill="#C03B0A" transform="translate(201,881)"/>
</svg>
