<?xml version="1.0" encoding="UTF-8"?>
<svg version="1.1" xmlns="http://www.w3.org/2000/svg" width="1199" height="1199">
<path d="M0 0 C3.17027785 0.00545817 6.3405482 0.00781305 9.51082993 0.00987244 C42.92244411 0.04364065 76.1617617 0.7160876 109.48583603 3.31785583 C110.46898788 3.39282288 111.45213974 3.46778992 112.46508408 3.54502869 C149.30156251 6.36147244 186.19663938 10.27703155 222.48583603 17.31785583 C223.45656052 17.50574677 223.45656052 17.50574677 224.4468956 17.69743347 C305.08504296 33.36748291 305.08504296 33.36748291 322.60197067 50.37210083 C331.89472742 59.11851204 343.55757345 57.36840879 355.53661728 57.21238708 C357.88307116 57.21228836 360.22952823 57.21615186 362.5759697 57.2237854 C368.72741652 57.23518827 374.87773137 57.20166374 381.02898788 57.15586853 C390.89042923 57.08912172 400.75198147 57.08679476 410.61360359 57.09255028 C414.05162005 57.08745744 417.48895072 57.0605825 420.92683029 57.03070068 C423.03414369 57.02406099 425.14145882 57.0179445 427.24877548 57.01243591 C428.20110062 56.99843246 429.15342575 56.98442902 430.13460922 56.97000122 C436.07880964 56.97656801 440.55077392 57.64074455 445.13036728 61.81785583 C450.07437702 68.1673533 450.0024646 73.50145683 449.48583603 81.31785583 C447.45177345 93.05681023 440.70418475 102.91047093 431.27489853 109.97410583 C422.13058762 116.01112663 412.62307389 117.52513366 401.84911728 117.23973083 C381.44421021 117.71371242 360.1358359 124.83945187 345.48583603 139.31785583 C339.55614947 145.72101863 336.84078114 151.92479367 334.48583603 160.25535583 C333.81667921 162.46751342 333.14346428 164.67844731 332.46630478 166.88816833 C332.13678818 167.97259216 331.80727158 169.05701599 331.46776962 170.17430115 C330.04958006 174.71448235 328.47899654 179.1813568 326.79833603 183.63035583 C326.53730087 184.35795105 326.27626572 185.08554626 326.0073204 185.83518982 C324.3009386 190.26550591 322.5132419 192.78347582 318.48583603 195.31785583 C314.3948956 196.43356686 312.23439062 196.59136617 308.23583603 195.13035583 C303.87887951 192.2587254 303.87887951 192.2587254 302.48583603 189.31785583 C301.49242869 182.58476163 303.20954823 178.0523595 305.85424423 171.87205505 C312.52496539 155.99085158 319.48583603 135.70991411 319.48583603 118.31785583 C318.08398056 119.06228943 318.08398056 119.06228943 316.65380478 119.82176208 C266.55022211 145.94220532 206.23105743 153.02352708 150.75188828 159.07041931 C148.64670525 159.30029008 146.54206525 159.53459094 144.43749619 159.77000427 C100.29823485 164.62172704 55.92770262 165.83026147 11.55663681 165.70896912 C5.24890038 165.69187911 -1.05845592 165.70207248 -7.36617947 165.71929073 C-32.9928637 165.77846621 -58.53943658 165.42026053 -84.12744522 163.93894958 C-85.18535263 163.87776821 -86.24326004 163.81658684 -87.33322525 163.75355148 C-255.03067413 153.80653907 -255.03067413 153.80653907 -311.51416397 118.31785583 C-307.2872602 156.42307786 -291.67870624 194.17758983 -269.51416397 225.31785583 C-268.86963272 226.23566833 -268.22510147 227.15348083 -267.56103897 228.09910583 C-259.26321595 239.7291255 -250.11055488 251.20109189 -239.69385147 261.03660583 C-238.51416397 262.31785583 -238.51416397 262.31785583 -238.51416397 264.31785583 C-237.85416397 264.31785583 -237.19416397 264.31785583 -236.51416397 264.31785583 C-235.87478897 265.12223083 -235.23541397 265.92660583 -234.57666397 266.75535583 C-231.39898617 270.72050481 -227.54296588 273.68505778 -223.58447647 276.84129333 C-220.99442645 278.93046854 -218.47294584 281.07655784 -215.96533585 283.26316833 C-204.63355172 293.09247303 -192.24284878 301.63906698 -179.32373428 309.24900818 C-178.02797331 310.01436727 -176.73607887 310.78628732 -175.44678116 311.56248474 C-154.73376815 324.03126334 -133.36523292 333.43888687 -110.51416397 341.31785583 C-109.55848526 341.6491449 -108.60280655 341.98043396 -107.61816788 342.32176208 C-71.51441908 354.62006383 -32.97175059 359.53403854 5.04833603 359.56785583 C5.84653763 359.56886292 6.64473923 359.56987 7.46712875 359.57090759 C85.21525728 359.50534374 162.10671556 333.47443625 222.48583603 284.31785583 C223.41782822 283.57277771 224.3498204 282.82769958 225.31005478 282.06004333 C230.0825831 278.21858125 234.62579686 274.33982507 238.87646103 269.92723083 C240.50549923 268.29819264 242.20763053 266.8438347 243.98583603 265.38035583 C247.32148675 262.5844059 250.09593411 259.45344019 252.91942978 256.14988708 C256.70917257 251.71749464 258.84845499 249.61642727 264.79833603 248.94285583 C269.68885304 249.44019655 271.05668095 250.88870076 274.48583603 254.31785583 C276.32191695 257.99001767 276.36553012 261.40875161 275.48583603 265.31785583 C272.96789379 269.43757337 269.80900559 272.83140916 266.48583603 276.31785583 C266.0314415 276.79577576 265.57704697 277.27369568 265.1088829 277.76609802 C259.51098888 283.61200001 253.64613669 289.07732229 247.48583603 294.31785583 C246.03177353 295.60562927 246.03177353 295.60562927 244.54833603 296.91941833 C228.73693014 310.85903971 211.62207876 322.61583873 193.48583603 333.31785583 C192.74043564 333.76080994 191.99503525 334.20376404 191.22704697 334.66014099 C170.15720007 347.08533616 147.69248642 356.68286067 124.48583603 364.31785583 C123.44975204 364.66300232 122.41366806 365.0081488 121.34618759 365.36375427 C85.90908469 377.0084672 48.72490808 382.46845674 11.48583603 383.31785583 C10.14658066 383.35072693 10.14658066 383.35072693 8.78026962 383.38426208 C-70.72248485 385.05829797 -150.2387164 361.18421829 -214.51416397 314.31785583 C-216.03203506 313.21957458 -216.03203506 313.21957458 -217.58057022 312.09910583 C-236.35434015 298.30000996 -254.55677402 282.18524383 -269.51416397 264.31785583 C-269.94503311 263.81673279 -270.37590225 263.31560974 -270.81982803 262.79930115 C-296.55047495 232.81193659 -314.85380134 198.06428547 -326.82275772 160.54051208 C-332.14398663 143.97676553 -340.47649809 135.06556118 -355.64307022 126.56394958 C-368.55900476 120.11406488 -382.20535666 117.8984041 -396.51416397 117.31785583 C-411.47889361 116.68658932 -421.86897959 112.50072217 -432.26416397 101.56785583 C-440.16354383 92.14371196 -442.39478442 81.3203864 -441.51416397 69.31785583 C-439.78025518 64.01980118 -436.90228594 61.51752811 -432.51416397 58.31785583 C-429.7197426 57.38638205 -428.0732271 57.19682261 -425.18979263 57.20674133 C-424.30677475 57.20706863 -423.42375687 57.20739594 -422.51398087 57.20773315 C-421.54772781 57.21297501 -420.58147476 57.21821686 -419.58594131 57.22361755 C-417.47187692 57.22640446 -415.35781238 57.22907431 -413.24374771 57.23164368 C-412.12093777 57.23469387 -410.99812782 57.23774406 -409.84129333 57.24088669 C-403.8975825 57.25221955 -397.9539486 57.23172941 -392.01025772 57.21629333 C-384.44550001 57.1980097 -376.88114985 57.18928572 -369.31641006 57.21824646 C-363.20480194 57.24080974 -357.09408084 57.22931991 -350.98253632 57.19524002 C-348.65662902 57.18847823 -346.33065034 57.19413008 -344.00480652 57.21259689 C-340.74180001 57.23682971 -337.48166215 57.21749845 -334.21875381 57.1884613 C-333.26464615 57.20584854 -332.31053848 57.22323578 -331.32751846 57.2411499 C-323.77815631 57.10196643 -320.0263006 54.22914031 -314.51416397 49.31785583 C-241.5239237 2.721024 -125.72040633 2.23537799 0 0 Z M-148.51416397 30.31785583 C-149.32204361 30.4089563 -150.12992325 30.50005676 -150.96228409 30.59391785 C-175.36717811 33.37410639 -199.46202737 37.34740128 -223.51416397 42.31785583 C-224.72523819 42.56648376 -225.93631241 42.81511169 -227.18408585 43.0712738 C-239.95582791 45.73723773 -252.48359541 49.05289494 -264.95166397 52.88035583 C-266.14275772 53.24435486 -267.33385147 53.60835388 -268.56103897 53.98338318 C-275.81820229 56.27333463 -282.66363735 59.01187342 -289.51416397 62.31785583 C-290.18149551 62.62763367 -290.84882706 62.9374115 -291.53638077 63.25657654 C-305.96899999 69.54026302 -305.96899999 69.54026302 -315.51416397 81.31785583 C-315.40279576 85.77258437 -313.57028193 88.18719842 -310.51416397 91.31785583 C-303.23822192 97.32456662 -294.90346244 101.48781272 -286.39599991 105.44285583 C-284.73168 106.21671709 -283.07898062 107.01546395 -281.42822647 107.81785583 C-276.8108289 109.8288714 -273.64043616 110.71474562 -268.76416397 109.19676208 C-267.80083145 108.90970398 -266.83749893 108.62264587 -265.84497452 108.32688904 C-264.74580704 107.99390808 -263.64663956 107.66092712 -262.51416397 107.31785583 C-259.83483765 106.56622739 -257.15439752 105.82094188 -254.47119522 105.08348083 C-253.74678741 104.88327835 -253.02237961 104.68307587 -252.27602005 104.47680664 C-178.84155227 84.20797784 -102.9504238 74.82137901 -12.51416397 72.31785583 C-11.26071182 72.29449158 -10.00725967 72.27112732 -8.71582413 72.24705505 C34.06979232 71.58314993 76.94481032 73.82350591 119.48583603 78.31785583 C120.33714096 78.40766724 121.18844589 78.49747864 122.06554794 78.5900116 C166.67789936 83.34818971 212.15059247 89.9497346 255.11083603 103.21629333 C255.89041168 103.45524323 256.66998734 103.69419312 257.47318649 103.94038391 C261.16639131 105.07801932 264.84314764 106.24741578 268.50463486 107.48338318 C276.43821307 110.07053525 281.7886299 110.89285315 289.48583603 107.31785583 C290.69110947 106.86926208 291.8963829 106.42066833 293.13817978 105.95848083 C303.57390247 101.5409811 315.97907553 96.07799658 322.48583603 86.31785583 C323.15702124 83.11108204 323.01407702 81.1688164 321.27099228 78.36082458 C316.82387584 72.88825542 311.66359989 69.58107408 305.48583603 66.31785583 C304.62603134 65.83703552 303.76622665 65.35621521 302.88036728 64.86082458 C293.52163003 59.85805813 283.55466492 56.56730106 273.48583603 53.31785583 C272.58880966 53.02765564 271.69178329 52.73745544 270.76757431 52.4384613 C193.37835142 27.79773273 107.95646879 23.75404708 -148.51416397 30.31785583 Z M-418.51416397 79.31785583 C-415.21880577 87.00702497 -412.33765919 90.48487237 -404.66016006 93.67088318 C-400.29137542 94.9879798 -395.73312356 95.0094989 -391.20166397 95.25535583 C-373.84384517 96.47418892 -356.92730069 99.58509219 -341.71338272 108.50535583 C-338.83697082 110.48216655 -338.83697082 110.48216655 -336.51416397 110.31785583 C-336.84416397 100.08785583 -337.17416397 89.85785583 -337.51416397 79.31785583 C-364.24416397 79.31785583 -390.97416397 79.31785583 -418.51416397 79.31785583 Z M345.48583603 79.31785583 C345.15583603 89.54785583 344.82583603 99.77785583 344.48583603 110.31785583 C348.00087912 108.9118386 351.41704823 107.43560766 354.85155869 105.85569763 C368.72369992 99.55339677 383.25726697 95.66522717 398.56786728 95.15379333 C408.11414574 94.83108021 415.92687414 93.87681772 422.98583603 86.81785583 C424.76714667 83.99939096 424.76714667 83.99939096 426.48583603 79.31785583 C399.75583603 79.31785583 373.02583603 79.31785583 345.48583603 79.31785583 Z M-231.51416397 121.31785583 C-231.51416397 121.64785583 -231.51416397 121.97785583 -231.51416397 122.31785583 C-175.2683754 133.16729729 -118.79923383 140.17660827 -61.51416397 142.31785583 C-60.44917679 142.35915619 -59.38418961 142.40045654 -58.28693008 142.44300842 C-37.94207117 143.21898545 -17.62267725 143.52197181 2.73583603 143.50535583 C3.47628536 143.50508896 4.2167347 143.50482208 4.97962189 143.50454712 C69.76625325 143.47543934 134.38376689 139.89953144 198.42333603 129.81785583 C199.3390538 129.67423615 200.25477158 129.53061646 201.19823837 129.38264465 C213.71661271 127.40539781 226.10874774 125.04256686 238.48583603 122.31785583 C235.60487139 120.76227544 232.89344405 119.79774523 229.71630478 119.02098083 C228.7622374 118.78766052 227.80817001 118.55434021 226.8251915 118.31394958 C225.78507919 118.06773865 224.74496689 117.82152771 223.67333603 117.56785583 C222.5687706 117.30617615 221.46420517 117.04449646 220.32616806 116.77488708 C168.69040089 104.75888114 115.43080812 97.75360254 62.48583603 95.31785583 C61.62064346 95.27655548 60.7554509 95.23525513 59.86404037 95.19270325 C41.59265719 94.33902218 23.33695294 94.11475013 5.04833603 94.13035583 C4.34292427 94.13062271 3.63751251 94.13088959 2.91072464 94.13116455 C-76.07528994 94.16850584 -154.8350507 101.83927068 -231.51416397 121.31785583 Z " fill="#1F1F1F" transform="translate(595.5141639709473,255.68214416503906)"/>
<path d="M0 0 C0.87709122 0.00091141 1.75418243 0.00182281 2.65785217 0.00276184 C3.5579451 -0.00152328 4.45803802 -0.00580841 5.38540649 -0.01022339 C7.29107318 -0.01597221 9.19676182 -0.0164629 11.10243225 -0.01213074 C14.02167652 -0.00897322 16.93990536 -0.03241424 19.85902405 -0.05778503 C21.70863214 -0.06005818 23.55824297 -0.06076145 25.40785217 -0.05973816 C26.28291916 -0.06894791 27.15798615 -0.07815765 28.05957031 -0.08764648 C28.87373917 -0.08141769 29.68790802 -0.0751889 30.52674866 -0.06877136 C31.24241501 -0.06940079 31.95808136 -0.07003021 32.69543457 -0.07067871 C35.20233053 0.4220849 36.07979108 1.27499935 37.59925842 3.30354309 C37.93024755 6.02378405 38.08776669 8.52813605 38.11097717 11.25276184 C38.12892838 12.02537857 38.14687958 12.7979953 38.16537476 13.59402466 C38.21951946 16.05964209 38.25338573 18.52506552 38.28675842 20.99104309 C38.31992795 22.66359615 38.35441727 24.3361236 38.39027405 26.00862122 C38.47524791 30.10678859 38.54203862 34.20489803 38.59925842 38.30354309 C38.84160217 37.10600403 39.08394592 35.90846497 39.33363342 34.67463684 C41.63453788 23.44687158 43.96954254 12.19269075 47.59925842 1.30354309 C49.87736481 0.1644899 51.13622212 0.1768732 53.66590881 0.17414856 C54.50340164 0.1709964 55.34089447 0.16784424 56.20376587 0.16459656 C57.10900497 0.16662079 58.01424408 0.16864502 58.94691467 0.17073059 C59.87394699 0.16977386 60.80097931 0.16881714 61.75610352 0.16783142 C63.71725024 0.16715033 65.67839922 0.1689997 67.63954163 0.173172 C70.65285769 0.17852727 73.6660251 0.17322151 76.67933655 0.16682434 C78.58102959 0.16748502 80.48272253 0.16876596 82.38441467 0.17073059 C83.29167801 0.16870636 84.19894135 0.16668213 85.13369751 0.16459656 C91.48430465 0.18858932 91.48430465 0.18858932 92.59925842 1.30354309 C92.9433207 5.91767907 92.13536945 9.19240148 90.40394592 13.45198059 C89.70555603 15.19499451 89.70555603 15.19499451 88.99305725 16.97322083 C88.48683417 18.20834595 87.98056701 19.44345301 87.47425842 20.67854309 C86.96093651 21.95288284 86.44881664 23.22770742 85.93788147 24.50300598 C84.93772594 26.99887126 83.93404025 29.49318656 82.9278717 31.98664856 C81.36634802 35.88500593 79.86666385 39.80188269 78.41175842 43.74104309 C75.78244811 50.82642291 73.09730015 57.88953323 70.40126038 64.94978333 C69.76387558 66.61968978 69.13005626 68.29096233 68.50013733 69.96369934 C67.92374887 71.4607473 67.32388701 72.9490981 66.69447327 74.42463684 C62.69563919 84.03870542 65.20761352 91.14383289 68.66175842 100.55354309 C69.28292542 102.29305237 69.28292542 102.29305237 69.91664124 104.06770325 C70.7535438 106.4107073 71.59511086 108.75205095 72.44154358 111.09162903 C73.68185621 114.53269883 74.88399111 117.98538548 76.07728577 121.44294739 C78.32984767 127.96625839 80.65092902 134.46242252 83.03092957 140.94026184 C84.23380853 144.21473142 85.43126949 147.49117619 86.62916565 150.76747131 C87.23105119 152.4078624 87.83592039 154.04716201 88.44386292 155.68531799 C89.30360494 158.0021108 90.1534397 160.32233438 91.00160217 162.64338684 C91.26374008 163.34154007 91.52587799 164.0396933 91.79595947 164.75900269 C93.19462019 168.61849879 93.59925842 171.08446633 93.59925842 175.30354309 C78.41925842 175.30354309 63.23925842 175.30354309 47.59925842 175.30354309 C45.55573356 171.21649337 44.69826253 167.4712556 43.87269592 163.03791809 C43.7201535 162.24452026 43.56761108 161.45112244 43.41044617 160.63368225 C42.92616244 158.10799321 42.45010804 155.58083329 41.97425842 153.05354309 C41.64667555 151.33729369 41.31855666 149.62114651 40.98988342 147.90510559 C40.18679165 143.70574403 39.391075 139.50504463 38.59925842 135.30354309 C38.57943909 136.44420227 38.55961975 137.58486145 38.53919983 138.76008606 C38.46325275 142.98329632 38.37451914 147.20615708 38.28187561 151.42903137 C38.24354066 153.25838838 38.2086958 155.08782194 38.17738342 156.91731262 C38.13183037 159.54373068 38.07382111 162.16961968 38.01332092 164.79573059 C37.99599411 166.02705215 37.99599411 166.02705215 37.97831726 167.2832489 C37.82700184 173.07579968 37.82700184 173.07579968 35.59925842 175.30354309 C33.73303223 175.55078125 33.73303223 175.55078125 31.44081116 175.54646301 C30.58329758 175.54953964 29.725784 175.55261627 28.84228516 175.55578613 C27.45161583 175.54500786 27.45161583 175.54500786 26.03285217 175.53401184 C25.08362381 175.53355362 24.13439545 175.5330954 23.15640259 175.53262329 C21.1481654 175.52959947 19.13993058 175.52170933 17.13172913 175.50935364 C14.04595193 175.49109748 10.9604746 175.48884391 7.87464905 175.48908997 C5.92738081 175.48417492 3.98011462 175.47834666 2.03285217 175.47151184 C1.10371506 175.47039902 0.17457794 175.46928619 -0.78271484 175.46813965 C-1.63707626 175.4617598 -2.49143768 175.45537994 -3.37168884 175.44880676 C-4.1273262 175.44499496 -4.88296356 175.44118317 -5.66149902 175.43725586 C-7.40074158 175.30354309 -7.40074158 175.30354309 -8.40074158 174.30354309 C-8.50215334 172.09322554 -8.53152278 169.87960249 -8.53445435 167.66696167 C-8.5367199 166.96514737 -8.53898546 166.26333307 -8.54131967 165.54025167 C-8.54768749 163.17104923 -8.54682854 160.80190358 -8.54600525 158.43269348 C-8.54899501 156.74123052 -8.55239711 155.04976825 -8.55618286 153.35830688 C-8.56504565 148.7509371 -8.56736193 144.14358587 -8.56799865 139.53620839 C-8.56894583 135.69651257 -8.57262191 131.85682112 -8.57617074 128.01712698 C-8.58432394 118.96196202 -8.58675419 109.906807 -8.58604431 100.85163879 C-8.58544326 91.49549241 -8.59599859 82.13940364 -8.61178797 72.78327185 C-8.62484187 64.76375114 -8.63022912 56.7442493 -8.6295889 48.72471803 C-8.62933328 43.92917035 -8.63221947 39.13367382 -8.64276695 34.33813667 C-8.65241189 29.82956323 -8.65255206 25.32109023 -8.64525032 20.81251335 C-8.64419997 19.15402964 -8.64659383 17.49553978 -8.65261078 15.83706665 C-8.66027054 13.58029372 -8.65572635 11.32387291 -8.64797974 9.06710815 C-8.64879689 7.16924104 -8.64879689 7.16924104 -8.64963055 5.23303318 C-8.16341659 -0.48983582 -4.99197903 0.05867155 0 0 Z " fill="#1F1F1F" transform="translate(164.40074157714844,754.6964569091797)"/>
<path d="M0 0 C1.28519531 0.00193359 2.57039062 0.00386719 3.89453125 0.00585938 C4.89734131 0.01516479 4.89734131 0.01516479 5.92041016 0.0246582 C7.96139017 0.04290296 10.00191572 0.04516784 12.04296875 0.04492188 C22.04757801 0.09007809 22.04757801 0.09007809 25.46875 1.23046875 C26.62643999 4.70353873 26.59463182 7.39714873 26.59573364 11.06286621 C26.59807363 12.11096726 26.59807363 12.11096726 26.60046089 13.18024206 C26.60445701 15.52708372 26.6012866 17.87386096 26.59814453 20.22070312 C26.59949919 21.9009861 26.60127948 23.58126879 26.60345459 25.2615509 C26.60802127 29.8296182 26.60624249 34.39766296 26.6030755 38.96573067 C26.60054797 43.74094835 26.60289054 48.51616408 26.60446167 53.29138184 C26.60628221 61.31128283 26.60388007 69.33117462 26.59912109 77.35107422 C26.5936787 86.62997281 26.59544143 95.90884942 26.6009475 105.18774748 C26.60548191 113.14702655 26.60612757 121.10629899 26.60350883 129.06557894 C26.60194787 133.82254681 26.60174737 138.57950435 26.60504532 143.33647156 C26.60792877 147.80811787 26.60593956 152.27973578 26.60015106 156.75137901 C26.59882602 158.39492941 26.59921326 160.03848218 26.60141373 161.68203163 C26.60413523 163.92074405 26.60073177 166.15936475 26.59573364 168.39807129 C26.5951681 170.27959774 26.5951681 170.27959774 26.59459114 172.19913483 C26.46875 175.23046875 26.46875 175.23046875 25.46875 178.23046875 C20.80569962 178.30452762 16.14299016 178.35902638 11.47949219 178.39526367 C9.89251749 178.41036689 8.30558463 178.43085098 6.71875 178.45678711 C4.43999927 178.4931047 2.16179942 178.51017898 -0.1171875 178.5234375 C-0.82869965 178.53892136 -1.54021179 178.55440521 -2.27328491 178.57035828 C-4.27490234 178.57104492 -4.27490234 178.57104492 -7.53125 178.23046875 C-8.19125 177.24046875 -8.85125 176.25046875 -9.53125 175.23046875 C-12.13109148 175.67615586 -14.38837508 176.16603978 -16.80078125 177.25390625 C-20.01940994 178.405061 -22.61897015 178.49641398 -26.03125 178.48046875 C-27.1346875 178.485625 -28.238125 178.49078125 -29.375 178.49609375 C-34.23677628 178.08693436 -37.88473666 176.47181394 -41.53125 173.23046875 C-41.53125 172.57046875 -41.53125 171.91046875 -41.53125 171.23046875 C-42.19125 171.23046875 -42.85125 171.23046875 -43.53125 171.23046875 C-48.2878214 163.24018082 -50.07856393 155.30975671 -51.53125 146.23046875 C-51.70398438 145.28244385 -51.87671875 144.33441895 -52.0546875 143.35766602 C-52.88251844 137.47353085 -52.71448166 131.51142428 -52.734375 125.58203125 C-52.73720238 124.92565044 -52.74002975 124.26926964 -52.74294281 123.5929985 C-52.75788232 120.11098591 -52.76714163 116.62901409 -52.77148438 113.14697266 C-52.77584888 110.3037417 -52.78966814 107.46081763 -52.8125 104.61767578 C-53.17165463 58.96723312 -53.17165463 58.96723312 -41.5390625 46.01171875 C-36.63957343 41.50049108 -32.12190292 38.96317348 -25.34375 38.79296875 C-24.48394531 38.75300781 -23.62414062 38.71304688 -22.73828125 38.671875 C-17.87583587 39.51880519 -13.83835519 41.88841734 -9.53125 44.23046875 C-9.54696045 42.9686377 -9.5626709 41.70680664 -9.57885742 40.40673828 C-9.63305307 35.73655552 -9.66756221 31.06640068 -9.69604492 26.39599609 C-9.71115526 24.37251109 -9.73164437 22.34905895 -9.75756836 20.32568359 C-9.79385328 17.4214671 -9.81095355 14.5176826 -9.82421875 11.61328125 C-9.83970261 10.70490509 -9.85518646 9.79652893 -9.87113953 8.86062622 C-9.87136612 8.0199057 -9.87159271 7.17918518 -9.87182617 6.31298828 C-9.87848801 5.57130402 -9.88514984 4.82961975 -9.89201355 4.06546021 C-9.77296158 3.45991302 -9.65390961 2.85436584 -9.53125 2.23046875 C-5.92749792 -0.17203264 -4.2808223 -0.01490456 0 0 Z M-14.53125 77.23046875 C-15.81635776 78.29141461 -15.81635776 78.29141461 -15.65150452 80.7424469 C-15.64928391 81.85941452 -15.64706329 82.97638214 -15.64477539 84.12719727 C-15.64469986 85.38842911 -15.64462433 86.64966095 -15.64454651 87.94911194 C-15.6394391 89.33586669 -15.63422309 90.72262104 -15.62890625 92.109375 C-15.62704201 93.52042084 -15.62561814 94.93146732 -15.62461853 96.34251404 C-15.62079379 100.0628741 -15.6109639 103.78319535 -15.59991455 107.50354004 C-15.58969948 111.29727656 -15.58512071 115.09101933 -15.58007812 118.88476562 C-15.56934158 126.33335106 -15.5522657 133.78190447 -15.53125 141.23046875 C-14.54125 141.56046875 -13.55125 141.89046875 -12.53125 142.23046875 C-11.54125 141.73546875 -11.54125 141.73546875 -10.53125 141.23046875 C-9.48786909 138.10032603 -9.39832595 135.89793668 -9.38598633 132.61328125 C-9.37960648 131.4619873 -9.37322662 130.31069336 -9.36665344 129.12451172 C-9.36554062 127.88072754 -9.3644278 126.63694336 -9.36328125 125.35546875 C-9.35995285 124.07945801 -9.35662445 122.80344727 -9.35319519 121.48876953 C-9.34812864 118.78870153 -9.34535469 116.08873418 -9.34594727 113.38867188 C-9.346049 109.92843325 -9.33238232 106.4683993 -9.31517506 103.00820923 C-9.30138831 99.70730331 -9.30196663 96.40639957 -9.30078125 93.10546875 C-9.29359573 91.86168457 -9.28641022 90.61790039 -9.27900696 89.33642578 C-9.28208359 88.18513184 -9.28516022 87.03383789 -9.28833008 85.84765625 C-9.28690506 84.83300293 -9.28548004 83.81834961 -9.28401184 82.77294922 C-9.35325023 79.98660648 -9.35325023 79.98660648 -11.53125 77.23046875 C-12.52125 77.23046875 -13.51125 77.23046875 -14.53125 77.23046875 Z " fill="#202020" transform="translate(840.53125,751.76953125)"/>
<path d="M0 0 C2.04106404 -0.00218946 4.08158992 -0.02036779 6.12255859 -0.03930664 C8.05035156 -0.04220703 8.05035156 -0.04220703 10.01708984 -0.04516602 C11.19722656 -0.0492749 12.37736328 -0.05338379 13.59326172 -0.05761719 C16.54833984 0.18530273 16.54833984 0.18530273 19.54833984 2.18530273 C19.92027664 5.16164494 19.92027664 5.16164494 19.91583252 9.0627594 C19.92073578 10.13619682 19.92073578 10.13619682 19.9257381 11.23131984 C19.93305051 13.64140472 19.91883204 16.05088928 19.90478516 18.4609375 C19.90557558 20.18372705 19.90767144 21.90651643 19.91098022 23.62930298 C19.91612681 28.31720326 19.90255434 33.0048851 19.88545322 37.69275022 C19.87045317 42.58902037 19.87159212 47.48528726 19.87078857 52.38157654 C19.86709267 60.6041946 19.85210839 68.82672935 19.82958984 77.04931641 C19.80070607 87.61798683 19.79036642 98.18659015 19.78590775 108.75529575 C19.78193341 117.82358652 19.76943079 126.89186258 19.75556087 135.96014285 C19.75145474 138.88390046 19.74853276 141.80765755 19.74576569 144.7314167 C19.74088542 149.3171413 19.73070367 153.90282485 19.71632767 158.48852921 C19.71179107 160.17645459 19.70896281 161.86438551 19.70792007 163.55231667 C19.7061842 165.84652943 19.69832754 168.14063814 19.68878174 170.43482971 C19.68580708 171.72182046 19.68283241 173.00881121 19.67976761 174.33480167 C19.54833984 177.18530273 19.54833984 177.18530273 18.54833984 178.18530273 C16.17265465 178.27369944 13.8262531 178.30060579 11.45068359 178.28295898 C10.38739586 178.28083656 10.38739586 178.28083656 9.30262756 178.27867126 C7.03032272 178.27305716 4.75811509 178.26050236 2.48583984 178.24780273 C0.94873189 178.24278955 -0.58837761 178.23822633 -2.12548828 178.23413086 C-5.90091657 178.22308316 -9.67627186 178.20580915 -13.45166016 178.18530273 C-14.44166016 176.20530273 -14.44166016 176.20530273 -15.45166016 174.18530273 C-16.29083984 174.61842773 -16.29083984 174.61842773 -17.14697266 175.06030273 C-24.4575826 178.44527969 -31.45364073 179.23717496 -39.45166016 178.18530273 C-46.55164751 175.30880847 -50.78700867 170.39980215 -54.26416016 163.68530273 C-58.4056162 151.47890598 -58.61304033 139.50579706 -58.61962891 126.72045898 C-58.62285099 125.23652618 -58.62621574 123.75259368 -58.62971497 122.2686615 C-58.63566768 119.17324081 -58.63755876 116.07784788 -58.63696289 112.98242188 C-58.63686125 109.04451475 -58.65053248 105.10678784 -58.6677351 101.16892338 C-58.67892912 98.10858871 -58.68087987 95.04829668 -58.68035316 91.98794365 C-58.68152142 90.53729059 -58.68587707 89.086636 -58.69368553 87.63600349 C-58.76405671 73.21926454 -57.78765437 57.53453761 -48.19775391 45.91186523 C-42.39330187 40.17233996 -36.67243302 38.63281347 -28.63916016 38.52124023 C-25.45166016 39.18530273 -25.45166016 39.18530273 -16.45166016 44.18530273 C-16.12166016 29.99530273 -15.79166016 15.80530273 -15.45166016 1.18530273 C-10.45271178 -0.48101339 -5.23443861 -0.00063081 0 0 Z M-21.45166016 77.18530273 C-21.45166016 98.30530273 -21.45166016 119.42530273 -21.45166016 141.18530273 C-20.13166016 141.18530273 -18.81166016 141.18530273 -17.45166016 141.18530273 C-15.79746408 137.55405552 -15.19965949 134.72091416 -15.19287109 130.73999023 C-15.18656677 129.67538574 -15.18026245 128.61078125 -15.17376709 127.51391602 C-15.17781555 126.37422363 -15.18186401 125.23453125 -15.18603516 124.06030273 C-15.1841217 122.88064941 -15.18220825 121.70099609 -15.18023682 120.4855957 C-15.17887725 117.99421983 -15.18255769 115.50283682 -15.19091797 113.01147461 C-15.2016204 109.19946368 -15.19101459 105.38792402 -15.17822266 101.57592773 C-15.17954429 99.15405169 -15.18210677 96.73217595 -15.18603516 94.31030273 C-15.18198669 93.17061035 -15.17793823 92.03091797 -15.17376709 90.85668945 C-15.18007141 89.79208496 -15.18637573 88.72748047 -15.19287109 87.63061523 C-15.19446228 86.69749512 -15.19605347 85.764375 -15.19769287 84.80297852 C-15.47425581 81.95240619 -16.26928831 79.78081395 -17.45166016 77.18530273 C-18.77166016 77.18530273 -20.09166016 77.18530273 -21.45166016 77.18530273 Z " fill="#1F1F1F" transform="translate(407.45166015625,751.814697265625)"/>
<path d="M0 0 C0.83982925 -0.00426498 1.67965851 -0.00852997 2.54493713 -0.01292419 C3.92969238 -0.01224442 3.92969238 -0.01224442 5.34242249 -0.0115509 C6.31325272 -0.01490952 7.28408295 -0.01826813 8.28433228 -0.02172852 C11.50561286 -0.03125677 14.72684157 -0.03318253 17.94813538 -0.03425598 C20.18011497 -0.03746713 22.41209435 -0.04083109 24.64407349 -0.04434204 C29.32738229 -0.05033791 34.01067262 -0.05218146 38.69398499 -0.05158997 C44.70449831 -0.05148829 50.71489365 -0.06514437 56.72537899 -0.08236217 C61.33637031 -0.09346286 65.94733294 -0.09550977 70.55833626 -0.09498024 C72.77477488 -0.09616313 74.99121417 -0.10060208 77.20763969 -0.10831261 C80.30343341 -0.11807406 83.39896865 -0.11524972 86.49476624 -0.10920715 C87.41591217 -0.11482666 88.33705811 -0.12044617 89.28611755 -0.12623596 C90.12876663 -0.12204147 90.97141571 -0.11784698 91.83959961 -0.11352539 C92.57167098 -0.11407016 93.30374235 -0.11461493 94.0579977 -0.1151762 C95.98329163 0.13371277 95.98329163 0.13371277 98.98329163 2.13371277 C99.3507843 4.03117371 99.3507843 4.03117371 99.33973694 6.36808777 C99.34273804 7.24239441 99.34573914 8.11670105 99.34883118 9.01750183 C99.33031097 10.43627625 99.33031097 10.43627625 99.31141663 11.88371277 C99.30954346 12.8527655 99.30767029 13.82181824 99.30574036 14.82023621 C99.29901056 16.87137791 99.2850778 18.92250658 99.26454163 20.97355652 C99.23341919 24.12081264 99.22357538 27.26756812 99.21766663 30.41496277 C99.20849561 32.40455223 99.19811953 34.39413659 99.18641663 36.38371277 C99.18216675 37.32956238 99.17791687 38.27541199 99.17353821 39.24992371 C99.16393066 40.12423035 99.15432312 40.99853699 99.14442444 41.89933777 C99.13759644 42.67051941 99.13076843 43.44170105 99.12373352 44.23625183 C98.98329163 46.13371277 98.98329163 46.13371277 97.98329163 48.13371277 C94.85453462 49.25714039 91.86008925 49.24969498 88.56141663 49.23136902 C87.53661194 49.22814636 86.51180725 49.22492371 85.45594788 49.22160339 C84.39247131 49.21322449 83.32899475 49.20484558 82.23329163 49.19621277 C81.15434631 49.19170105 80.075401 49.18718933 78.96376038 49.18254089 C76.3035478 49.17077004 73.64344798 49.15432676 70.98329163 49.13371277 C70.97905969 49.77700751 70.97482775 50.42030226 70.97046757 51.08309078 C70.86729878 66.71404685 70.75868199 82.34495404 70.64395237 97.97582912 C70.58860298 105.53470734 70.53511822 113.09359026 70.48597717 120.6525116 C70.44315629 127.23853903 70.39688369 133.82453146 70.34641308 140.41050488 C70.31979517 143.89982291 70.29494177 147.38913393 70.27421761 150.87849236 C70.2510549 154.767568 70.22018804 158.65656107 70.18861389 162.545578 C70.18285843 163.71082504 70.17710297 164.87607208 70.1711731 166.07662964 C70.16138428 167.12977356 70.15159546 168.18291748 70.14151001 169.26797485 C70.13505746 170.18884604 70.12860491 171.10971724 70.12195683 172.05849361 C69.98329163 174.13371277 69.98329163 174.13371277 68.98329163 175.13371277 C67.57104117 175.22658537 66.15420228 175.25118049 64.73890686 175.24723816 C63.3876194 175.24712486 63.3876194 175.24712486 62.0090332 175.24700928 C61.02987442 175.24184799 60.05071564 175.23668671 59.04188538 175.23136902 C58.0444783 175.22995407 57.04707123 175.22853912 56.0194397 175.2270813 C52.81986039 175.22146391 49.62034994 175.20890848 46.42079163 175.19621277 C44.25738118 175.19120001 42.09396963 175.18663671 39.93055725 175.18254089 C34.61477837 175.17148884 29.29903992 175.15473381 23.98329163 175.13371277 C22.74504934 172.65722819 22.84482683 170.9947943 22.82507324 168.22364807 C22.81528442 167.18595779 22.80549561 166.14826752 22.79541016 165.07913208 C22.78677696 163.36470665 22.78677696 163.36470665 22.77796936 161.61564636 C22.76806976 160.41566513 22.75817017 159.2156839 22.74797058 157.9793396 C22.72174904 154.68411384 22.69990098 151.38891275 22.6799686 148.09364653 C22.6581239 144.65162244 22.63072781 141.20964273 22.60391235 137.76765442 C22.55396492 131.24766571 22.50903372 124.72765239 22.46588999 118.20761549 C22.41653512 110.78567383 22.36161051 103.3637767 22.3062104 95.94187808 C22.19235888 80.67253077 22.08552676 65.40314254 21.98329163 50.13371277 C21.31273743 50.11913025 20.64218323 50.10454773 19.9513092 50.08952332 C16.89890341 50.01482977 13.84756578 49.91823978 10.79579163 49.82121277 C9.21314514 49.78737488 9.21314514 49.78737488 7.598526 49.75285339 C6.06615295 49.69967957 6.06615295 49.69967957 4.50282288 49.64543152 C3.09673767 49.6061554 3.09673767 49.6061554 1.6622467 49.56608582 C-1.49639912 49.05629253 -3.43063337 47.99148437 -6.01670837 46.13371277 C-7.69583605 42.77545742 -7.15826064 38.98633348 -7.14952087 35.29386902 C-7.1504776 34.41597214 -7.15143433 33.53807526 -7.15242004 32.63357544 C-7.1531012 30.77497791 -7.15125139 28.91637801 -7.14707947 27.05778503 C-7.14173668 24.21129508 -7.14702333 21.36496338 -7.15342712 18.51847839 C-7.15276621 16.71444159 -7.15148476 14.91040488 -7.14952087 13.10636902 C-7.1515451 12.25317581 -7.15356934 11.3999826 -7.15565491 10.52093506 C-7.14225445 7.1448538 -7.09168914 4.35865506 -6.01670837 1.13371277 C-3.74962561 0.00017139 -2.5164062 0.00576348 0 0 Z " fill="#1F1F1F" transform="translate(601.0167083740234,754.8662872314453)"/>
<path d="M0 0 C1.28519531 -0.00128906 2.57039062 -0.00257813 3.89453125 -0.00390625 C4.89734131 -0.00076416 4.89734131 -0.00076416 5.92041016 0.00244141 C7.96133865 0.00779307 10.00204709 0.00248854 12.04296875 -0.00390625 C13.32816406 -0.00261719 14.61335937 -0.00132812 15.9375 0 C17.11763672 0.00112793 18.29777344 0.00225586 19.51367188 0.00341797 C22.46875 0.1328125 22.46875 0.1328125 25.46875 1.1328125 C25.79875 21.5928125 26.12875 42.0528125 26.46875 63.1328125 C27.78875 56.2028125 29.10875 49.2728125 30.46875 42.1328125 C31.12875 41.1428125 31.78875 40.1528125 32.46875 39.1328125 C35.16415315 38.86595037 37.62722464 38.78463177 40.3203125 38.83984375 C41.09434418 38.84408859 41.86837585 38.84833344 42.66586304 38.85270691 C45.14217677 38.86952252 47.61768158 38.90717855 50.09375 38.9453125 C51.77082159 38.96035568 53.44790592 38.97404472 55.125 38.98632812 C59.23989581 39.01943529 63.35418569 39.07123613 67.46875 39.1328125 C68.74253291 42.72491193 68.17786585 44.92527501 67.02734375 48.5078125 C66.69371826 49.56589111 66.36009277 50.62396973 66.01635742 51.71411133 C65.65002197 52.84228271 65.28368652 53.9704541 64.90625 55.1328125 C64.16096437 57.49072934 63.41617783 59.84880399 62.671875 62.20703125 C62.29869141 63.3779834 61.92550781 64.54893555 61.54101562 65.75537109 C59.29598286 72.82681537 57.14892166 79.92375028 55.09277344 87.05224609 C54.53128506 88.92431337 53.89876935 90.7747245 53.2578125 92.62109375 C50.42813756 101.71000966 52.79557214 108.7796996 55.63330078 117.47607422 C57.18131105 122.39876495 58.46148848 127.39507871 59.78125 132.3828125 C60.37028342 134.58615429 60.96015065 136.78927331 61.55078125 138.9921875 C61.85709473 140.13623047 62.1634082 141.28027344 62.47900391 142.45898438 C63.36264848 145.73897538 64.25580777 149.01611275 65.15385437 152.29217529 C65.91207469 155.06180932 66.6646062 157.83297246 67.41635132 160.60437012 C67.78347535 161.95247245 68.15311017 163.29989364 68.52529907 164.64660645 C69.04423039 166.52563366 69.55359365 168.40729542 70.0625 170.2890625 C70.35833984 171.36994141 70.65417969 172.45082031 70.95898438 173.56445312 C71.46875 176.1328125 71.46875 176.1328125 70.46875 178.1328125 C65.23603431 178.20684962 60.00362199 178.26136033 54.77050781 178.29760742 C52.98952933 178.31271423 51.20858816 178.33320085 49.42773438 178.35913086 C46.87100022 178.39543193 44.3147569 178.41251938 41.7578125 178.42578125 C40.95880524 178.44126511 40.15979797 178.45674896 39.33657837 178.47270203 C37.09228516 178.47338867 37.09228516 178.47338867 33.46875 178.1328125 C31.2533703 174.80974295 30.950096 172.85036912 30.3984375 168.93359375 C30.24101074 167.84473877 30.08358398 166.75588379 29.92138672 165.6340332 C29.7307666 164.25175537 29.54014648 162.86947754 29.34375 161.4453125 C28.725 157.0521875 28.10625 152.6590625 27.46875 148.1328125 C27.13875 158.0328125 26.80875 167.9328125 26.46875 178.1328125 C21.50246566 178.15572206 16.53636337 178.17564893 11.57006836 178.18774414 C9.87930684 178.1927844 8.18854971 178.19961655 6.49780273 178.20825195 C4.07274293 178.22033107 1.64774056 178.22604373 -0.77734375 178.23046875 C-1.91797523 178.23821068 -1.91797523 178.23821068 -3.08164978 178.24610901 C-4.8985757 178.24630488 -6.71538127 178.19478527 -8.53125 178.1328125 C-9.53125 177.1328125 -9.53125 177.1328125 -9.65429783 174.26110744 C-9.65337604 172.96414472 -9.65245424 171.66718199 -9.65150452 170.33091736 C-9.65235894 169.61135772 -9.65321337 168.89179808 -9.65409368 168.1504336 C-9.6557506 165.7212767 -9.65022368 163.29218773 -9.64477539 160.86303711 C-9.64449354 159.12892153 -9.64465121 157.39480582 -9.6452179 155.66069031 C-9.64550595 150.93774929 -9.63960799 146.21483344 -9.63264394 141.4918983 C-9.62641166 136.5617846 -9.6258067 131.63167038 -9.62461853 126.70155334 C-9.62150484 117.35884888 -9.61329095 108.01615606 -9.60326904 98.67345673 C-9.59210907 88.04002195 -9.58659775 77.40658663 -9.58157361 66.77314746 C-9.57110836 44.8930293 -9.55350819 23.01292163 -9.53125 1.1328125 C-6.15066988 0.00595246 -3.56218879 0.0034046 0 0 Z " fill="#1F1F1F" transform="translate(884.53125,751.8671875)"/>
<path d="M0 0 C8.91744724 7.17745754 14.2367298 14.5346242 15.5625 26.0625 C15.64435452 28.31515585 15.68041942 30.56983636 15.67602539 32.82397461 C15.67591209 34.77520485 15.67591209 34.77520485 15.67579651 36.76585388 C15.67069141 38.16551757 15.66547544 39.56518086 15.66015625 40.96484375 C15.65828866 42.41215465 15.65686637 43.85946619 15.65586853 45.30677795 C15.65207018 49.0960976 15.6422631 52.88537826 15.63116455 56.67468262 C15.62089247 60.54939242 15.61635854 64.4241086 15.61132812 68.29882812 C15.60063816 75.88673643 15.58359434 83.47461273 15.5625 91.0625 C16.52454346 91.19140625 17.48658691 91.3203125 18.4777832 91.453125 C21.5625 92.0625 21.5625 92.0625 22.91796875 93.8125 C25.25893566 101.98460266 23.47230227 111.25943473 20.5625 119.0625 C17.2124854 125.03125758 12.17748134 130.85750622 5.5625 133.0625 C-10.04105508 134.17965594 -10.04105508 134.17965594 -16.4375 129.0625 C-18.875 126.8125 -18.875 126.8125 -20.4375 125.0625 C-23.26287064 126.25784912 -25.10825074 127.62374041 -27.5 129.625 C-32.40561523 133.6956169 -36.90653698 133.46116114 -43.0703125 133.40625 C-49.38009737 132.76209563 -54.08620574 129.83892445 -58.3125 125.1875 C-64.98095687 115.38094577 -65.78662985 104.60822735 -65.75 93.0625 C-65.76611328 92.04671875 -65.78222656 91.0309375 -65.79882812 89.984375 C-65.80596309 78.85382736 -63.11113682 69.47836425 -55.67578125 61.0703125 C-49.94976446 55.4642694 -43.35512629 52.28653109 -36.2109375 48.88671875 C-28.74479864 45.66823301 -28.74479864 45.66823301 -23.4375 40.0625 C-23.36799459 38.52226004 -23.35297643 36.97915012 -23.375 35.4375 C-23.38402344 34.62023437 -23.39304687 33.80296875 -23.40234375 32.9609375 C-23.41394531 32.33445312 -23.42554688 31.70796875 -23.4375 31.0625 C-24.4275 31.0625 -25.4175 31.0625 -26.4375 31.0625 C-26.61925781 32.34447266 -26.61925781 32.34447266 -26.8046875 33.65234375 C-27.05605469 35.30943359 -27.05605469 35.30943359 -27.3125 37 C-27.47492187 38.10214844 -27.63734375 39.20429687 -27.8046875 40.33984375 C-28.01351562 41.23832031 -28.22234375 42.13679687 -28.4375 43.0625 C-34.56833218 46.12791609 -44.78283684 43.71961819 -51.4375 43.125 C-52.48550781 43.03798828 -53.53351562 42.95097656 -54.61328125 42.86132812 C-55.60714844 42.77431641 -56.60101562 42.68730469 -57.625 42.59765625 C-58.97658203 42.47982788 -58.97658203 42.47982788 -60.35546875 42.35961914 C-62.4375 42.0625 -62.4375 42.0625 -63.4375 41.0625 C-64.68007718 20.71275235 -64.68007718 20.71275235 -59.4375 12.0625 C-59.025 11.36125 -58.6125 10.66 -58.1875 9.9375 C-53.15481466 2.38847199 -45.27641886 -3.27527284 -36.4609375 -5.5 C-23.52208733 -7.3722884 -11.55728225 -6.51410454 0 0 Z M-25.4375 73.0625 C-29.29862536 77.44808735 -28.8538821 82.23593789 -28.75 87.75 C-28.75322266 88.61689453 -28.75644531 89.48378906 -28.75976562 90.37695312 C-28.98486537 95.23399884 -28.98486537 95.23399884 -26.4375 99.0625 C-25.1175 98.7325 -23.7975 98.4025 -22.4375 98.0625 C-22.4375 89.8125 -22.4375 81.5625 -22.4375 73.0625 C-23.4275 73.0625 -24.4175 73.0625 -25.4375 73.0625 Z " fill="#1F1F1F" transform="translate(1023.4375,796.9375)"/>
<path d="M0 0 C7.4426898 5.29504797 12.06812756 11.5954868 13.98786926 20.56750488 C14.89256318 26.57975393 14.78271869 32.67416457 14.83203125 38.7421875 C14.85077426 40.20907136 14.87034993 41.67594479 14.89071655 43.14280701 C14.94171332 46.97476003 14.98151106 50.80674788 15.01885986 54.63885498 C15.05910485 58.56075424 15.11010292 62.4825127 15.16015625 66.40429688 C15.25653039 74.07802787 15.34105633 81.75182787 15.41796875 89.42578125 C16.38734375 89.71453125 17.35671875 90.00328125 18.35546875 90.30078125 C21.41796875 91.42578125 21.41796875 91.42578125 22.41796875 93.42578125 C23.08488601 105.2379119 23.08341089 115.7821605 15.41796875 125.42578125 C14.75796875 125.42578125 14.09796875 125.42578125 13.41796875 125.42578125 C13.41796875 126.08578125 13.41796875 126.74578125 13.41796875 127.42578125 C5.73606312 133.05917871 -1.37879428 133.13822695 -10.58203125 132.42578125 C-15.15812669 130.98970577 -18.41617445 127.97154086 -21.58203125 124.42578125 C-24.06823174 125.49129574 -25.61920276 126.46415184 -27.51953125 128.42578125 C-31.32960619 132.12039938 -35.27522744 132.7180924 -40.45703125 132.73828125 C-47.46356567 132.58391452 -52.09620321 131.0186983 -57.26953125 126.23828125 C-65.85673383 117.07216613 -65.80509307 106.73332869 -65.87719727 94.68457031 C-65.89437036 92.69442645 -65.9382711 90.70457192 -65.98242188 88.71484375 C-66.05672602 77.30629929 -64.19835974 67.97460831 -56.10546875 59.55078125 C-48.50297983 53.14868531 -38.97186608 48.9718487 -30.0078125 44.84765625 C-27.34806255 43.28864018 -26.07474253 42.11463865 -24.58203125 39.42578125 C-24.22245236 37.06648483 -24.22245236 37.06648483 -24.39453125 34.67578125 C-24.42160156 33.8765625 -24.44867187 33.07734375 -24.4765625 32.25390625 C-24.52876953 31.34898437 -24.52876953 31.34898437 -24.58203125 30.42578125 C-25.57203125 30.09578125 -26.56203125 29.76578125 -27.58203125 29.42578125 C-27.61941406 30.18503906 -27.65679688 30.94429687 -27.6953125 31.7265625 C-27.76105469 32.72042969 -27.82679688 33.71429687 -27.89453125 34.73828125 C-27.98154297 36.21748047 -27.98154297 36.21748047 -28.0703125 37.7265625 C-28.65027819 40.78577083 -29.18126205 41.53963356 -31.58203125 43.42578125 C-38.59939349 43.86436639 -45.58936545 43.1131012 -52.58203125 42.48828125 C-53.63003906 42.40126953 -54.67804687 42.31425781 -55.7578125 42.22460938 C-56.75167969 42.13759766 -57.74554687 42.05058594 -58.76953125 41.9609375 C-60.12111328 41.84310913 -60.12111328 41.84310913 -61.5 41.72290039 C-63.58203125 41.42578125 -63.58203125 41.42578125 -64.58203125 40.42578125 C-65.79582763 20.3682935 -65.79582763 20.3682935 -60.58203125 12.42578125 C-60.15792969 11.66136719 -59.73382812 10.89695312 -59.296875 10.109375 C-55.76733708 4.14160476 -51.69299834 0.63233336 -45.58203125 -2.57421875 C-44.80472656 -2.98800781 -44.02742187 -3.40179687 -43.2265625 -3.828125 C-29.30430429 -10.02299028 -12.70764799 -7.74762805 0 0 Z M-27.2512207 73.60668945 C-29.02615601 76.03285768 -28.92679056 77.54466096 -28.875 80.53125 C-28.86533203 81.51416016 -28.85566406 82.49707031 -28.84570312 83.50976562 C-28.82056641 84.53392578 -28.79542969 85.55808594 -28.76953125 86.61328125 C-28.75599609 87.64904297 -28.74246094 88.68480469 -28.72851562 89.75195312 C-28.69314514 92.31041824 -28.64378669 94.86783905 -28.58203125 97.42578125 C-26.63599851 98.01648139 -26.63599851 98.01648139 -24.58203125 98.42578125 C-22.8369651 96.6807151 -23.34920341 94.23538982 -23.265625 91.859375 C-23.22373047 90.73466797 -23.18183594 89.60996094 -23.13867188 88.45117188 C-23.09935547 87.26716797 -23.06003906 86.08316406 -23.01953125 84.86328125 C-22.95475586 83.08147461 -22.95475586 83.08147461 -22.88867188 81.26367188 C-22.78219579 78.31783341 -22.68018284 75.37190695 -22.58203125 72.42578125 C-25.51463451 72.13700619 -25.51463451 72.13700619 -27.2512207 73.60668945 Z " fill="#1F1F1F" transform="translate(763.58203125,797.57421875)"/>
<path d="M0 0 C7.04980028 5.01552955 11.94369563 11.30041623 13.98786926 19.77992249 C14.9570962 25.74235132 14.78397632 31.83508887 14.83203125 37.86328125 C14.85076798 39.3540145 14.87034322 40.84473743 14.89071655 42.33544922 C14.94177948 46.23482135 14.9815424 50.13422777 15.01885986 54.03375244 C15.0590627 58.02258607 15.11008029 62.01128026 15.16015625 66 C15.25660904 73.80849767 15.34111054 81.6170635 15.41796875 89.42578125 C16.38734375 89.71453125 17.35671875 90.00328125 18.35546875 90.30078125 C21.41796875 91.42578125 21.41796875 91.42578125 22.41796875 93.42578125 C23.5949727 112.27713965 23.5949727 112.27713965 18.41796875 120.42578125 C17.88171875 121.43640625 17.34546875 122.44703125 16.79296875 123.48828125 C16.33921875 124.12765625 15.88546875 124.76703125 15.41796875 125.42578125 C14.75796875 125.42578125 14.09796875 125.42578125 13.41796875 125.42578125 C13.41796875 126.08578125 13.41796875 126.74578125 13.41796875 127.42578125 C5.73606312 133.05917871 -1.37879428 133.13822695 -10.58203125 132.42578125 C-15.15812669 130.98970577 -18.41617445 127.97154086 -21.58203125 124.42578125 C-24.06823174 125.49129574 -25.61920276 126.46415184 -27.51953125 128.42578125 C-31.32960619 132.12039938 -35.27522744 132.7180924 -40.45703125 132.73828125 C-47.43304002 132.58458705 -52.08127735 131.01837077 -57.26953125 126.30078125 C-65.6853101 117.35547025 -65.80777336 106.43314303 -65.87719727 94.76000977 C-65.8943365 92.76099622 -65.93822682 90.76227031 -65.98242188 88.76367188 C-66.05660084 77.33440447 -64.21421501 67.99111193 -56.10546875 59.55078125 C-48.50297983 53.14868531 -38.97186608 48.9718487 -30.0078125 44.84765625 C-27.36086043 43.29614167 -26.11170129 42.07063009 -24.58203125 39.42578125 C-24.01875382 37.30759868 -24.01875382 37.30759868 -23.89453125 35.17578125 C-23.73984375 33.31953125 -23.73984375 33.31953125 -23.58203125 31.42578125 C-24.90203125 30.76578125 -26.22203125 30.10578125 -27.58203125 29.42578125 C-27.61941406 30.26882813 -27.65679687 31.111875 -27.6953125 31.98046875 C-27.76105469 33.07617188 -27.82679688 34.171875 -27.89453125 35.30078125 C-27.98154297 36.93660156 -27.98154297 36.93660156 -28.0703125 38.60546875 C-28.23917969 39.53617188 -28.40804687 40.466875 -28.58203125 41.42578125 C-34.94069051 45.66488743 -45.2145456 43.14659271 -52.58203125 42.48828125 C-53.63003906 42.40126953 -54.67804688 42.31425781 -55.7578125 42.22460938 C-56.75167969 42.13759766 -57.74554688 42.05058594 -58.76953125 41.9609375 C-60.12111328 41.84310913 -60.12111328 41.84310913 -61.5 41.72290039 C-63.58203125 41.42578125 -63.58203125 41.42578125 -64.58203125 40.42578125 C-65.79582763 20.3682935 -65.79582763 20.3682935 -60.58203125 12.42578125 C-60.15792969 11.66136719 -59.73382813 10.89695312 -59.296875 10.109375 C-55.76733708 4.14160476 -51.69299834 0.63233336 -45.58203125 -2.57421875 C-44.80472656 -2.98800781 -44.02742188 -3.40179687 -43.2265625 -3.828125 C-29.30430429 -10.02299028 -12.70764799 -7.74762805 0 0 Z M-27.2512207 73.60668945 C-29.02615601 76.03285768 -28.92679056 77.54466096 -28.875 80.53125 C-28.86533203 81.51416016 -28.85566406 82.49707031 -28.84570312 83.50976562 C-28.82056641 84.53392578 -28.79542969 85.55808594 -28.76953125 86.61328125 C-28.75599609 87.64904297 -28.74246094 88.68480469 -28.72851562 89.75195312 C-28.69314514 92.31041824 -28.64378669 94.86783905 -28.58203125 97.42578125 C-27.26203125 97.75578125 -25.94203125 98.08578125 -24.58203125 98.42578125 C-22.34790112 95.07458606 -22.34355363 94.00800575 -22.38671875 90.1015625 C-22.39316406 89.07353516 -22.39960938 88.04550781 -22.40625 86.98632812 C-22.42300781 85.91447266 -22.43976563 84.84261719 -22.45703125 83.73828125 C-22.46605469 82.65482422 -22.47507812 81.57136719 -22.484375 80.45507812 C-22.50795785 77.77842415 -22.54086999 75.10221328 -22.58203125 72.42578125 C-25.51463451 72.13700619 -25.51463451 72.13700619 -27.2512207 73.60668945 Z " fill="#1F1F1F" transform="translate(499.58203125,797.57421875)"/>
<path d="M0 0 C0.83257324 0.01015137 1.66514648 0.02030273 2.52294922 0.03076172 C13.92347517 0.31839478 22.43626621 3.59149258 30.796875 11.484375 C39.81080456 21.02466541 40.02367475 30.13498687 40.07421875 42.6875 C40.09108525 44.26791766 40.10923811 45.84832207 40.12861633 47.42871094 C40.17590889 51.56483823 40.20585182 55.70091176 40.23205566 59.83721924 C40.26196653 64.06736869 40.30846042 68.29733329 40.35351562 72.52734375 C40.43931238 80.80980456 40.50676198 89.09228259 40.5625 97.375 C41.531875 97.519375 42.50125 97.66375 43.5 97.8125 C46.5625 98.375 46.5625 98.375 47.5625 99.375 C47.84352796 102.5535965 47.79441624 105.74797679 47.8125 108.9375 C47.833125 109.81986328 47.85375 110.70222656 47.875 111.61132812 C47.92101552 119.3937024 46.60908143 125.78814292 41.125 131.6875 C40.54878906 132.32300781 39.97257812 132.95851563 39.37890625 133.61328125 C33.05666256 139.74517782 27.67918168 139.72294929 19.05859375 139.66015625 C13.2972846 139.19023941 9.39161993 137.43275992 5.5625 133.125 C5.2325 132.5475 4.9025 131.97 4.5625 131.375 C2.07988949 132.47838245 0.19905924 133.6657526 -1.9375 135.375 C-7.22523062 139.60518449 -11.40724365 139.86667098 -18.10546875 139.75390625 C-24.54001647 139.02219332 -28.61245313 136.07837708 -33.25 131.75 C-40.22432509 122.48307669 -40.66471514 110.85973218 -40.75 99.8125 C-40.77900391 98.58724609 -40.80800781 97.36199219 -40.83789062 96.09960938 C-40.92210643 83.94014346 -38.38243311 75.36362464 -29.8359375 66.58203125 C-23.35177151 60.61533128 -15.83342043 56.92572598 -7.93334961 53.17724609 C-3.76456197 51.17425225 -0.54325274 49.58650549 1.5625 45.375 C1.6314472 44.00157169 1.64717708 42.62497898 1.625 41.25 C1.604375 39.97125 1.58375 38.6925 1.5625 37.375 C0.2425 37.045 -1.0775 36.715 -2.4375 36.375 C-2.48648438 37.30183594 -2.53546875 38.22867188 -2.5859375 39.18359375 C-2.66070312 40.38113281 -2.73546875 41.57867188 -2.8125 42.8125 C-2.88210938 44.00746094 -2.95171875 45.20242188 -3.0234375 46.43359375 C-3.16007812 47.40425781 -3.29671875 48.37492188 -3.4375 49.375 C-9.81945204 52.56597602 -20.11276836 50.08880762 -27 49.4375 C-27.99580078 49.35048828 -28.99160156 49.26347656 -30.01757812 49.17382812 C-30.96181641 49.08681641 -31.90605469 48.99980469 -32.87890625 48.91015625 C-33.73170166 48.831604 -34.58449707 48.75305176 -35.46313477 48.67211914 C-37.4375 48.375 -37.4375 48.375 -38.4375 47.375 C-39.57281434 35.88875083 -39.6670015 24.52507063 -32.671875 14.9609375 C-24.07731087 4.57301943 -13.42141738 -0.23776488 0 0 Z M-0.4375 79.375 C-3.18174059 82.18434999 -3.81062084 84.19834264 -3.765625 88.0703125 C-3.76046875 88.95074219 -3.7553125 89.83117187 -3.75 90.73828125 C-3.729375 91.64964844 -3.70875 92.56101562 -3.6875 93.5 C-3.68234375 94.41910156 -3.6771875 95.33820313 -3.671875 96.28515625 C-3.77698033 100.98712555 -3.77698033 100.98712555 -2.4375 105.375 C-0.7875 105.045 0.8625 104.715 2.5625 104.375 C2.5625 96.125 2.5625 87.875 2.5625 79.375 C1.5725 79.375 0.5825 79.375 -0.4375 79.375 Z " fill="#1F1F1F" transform="translate(298.4375,790.625)"/>
<path d="M0 0 C1.56047445 0.00015913 3.12095416 0.00585397 4.68139648 0.01586914 C5.91115456 0.01799156 5.91115456 0.01799156 7.16575623 0.02015686 C9.79470406 0.0257725 12.42356797 0.0383276 15.05249023 0.05102539 C16.8304838 0.05603838 18.60847869 0.06060163 20.38647461 0.06469727 C24.75434569 0.07574701 29.12215371 0.09302208 33.48999023 0.11352539 C34.78986918 2.71328328 34.61587561 4.59809121 34.61697388 7.51039124 C34.6197937 8.65602036 34.62261353 9.80164948 34.6255188 10.98199463 C34.62349457 12.24493347 34.62147034 13.50787231 34.61938477 14.80908203 C34.62073923 16.14763944 34.62251942 17.48619648 34.62469482 18.82475281 C34.62926331 22.46509054 34.62748211 26.10540002 34.62431574 29.74573827 C34.62178965 33.54895305 34.62413032 37.35216537 34.6257019 41.15538025 C34.62752265 47.54190507 34.62511955 53.92841834 34.62036133 60.31494141 C34.61491656 67.70854526 34.6166833 75.10212155 34.62218773 82.49572474 C34.62671879 88.83458412 34.62736952 95.17343518 34.62474906 101.51229566 C34.62318655 105.30229516 34.62299187 109.09228168 34.62628555 112.88228035 C34.62916424 116.44366948 34.62718863 120.0050229 34.6213913 123.56640816 C34.61942822 125.5044665 34.62241746 127.44252786 34.6255188 129.38058472 C34.62269897 130.52339401 34.61987915 131.66620331 34.61697388 132.84364319 C34.61659685 133.84303452 34.61621983 134.84242586 34.61583138 135.87210178 C34.48999023 138.11352539 34.48999023 138.11352539 33.48999023 139.11352539 C30.76274745 139.21452027 28.061365 139.25323068 25.33374023 139.24633789 C24.10753967 139.24777298 24.10753967 139.24777298 22.85656738 139.24923706 C21.12483646 139.24991884 19.393103 139.24806468 17.66137695 139.24389648 C15.00132541 139.23854818 12.34144273 139.24384151 9.68139648 139.25024414 C8.00301069 139.24958336 6.32462501 139.2483022 4.64624023 139.24633789 C3.84520874 139.24836212 3.04417725 139.25038635 2.21887207 139.25247192 C-3.39505898 139.22847618 -3.39505898 139.22847618 -4.51000977 138.11352539 C-4.60853443 136.34423582 -4.63633065 134.57098074 -4.63699341 132.7989502 C-4.63981323 131.64628159 -4.64263306 130.49361298 -4.64553833 129.30601501 C-4.6435141 128.03013016 -4.64148987 126.7542453 -4.6394043 125.43969727 C-4.64075833 124.09143527 -4.64253827 122.74317364 -4.64471436 121.39491272 C-4.6492885 117.72352511 -4.64749921 114.05216548 -4.64433527 110.38077736 C-4.64181157 106.54686022 -4.64414923 102.71294555 -4.64572144 98.87902832 C-4.6475431 92.43944873 -4.6451369 85.99988059 -4.64038086 79.56030273 C-4.63493824 72.10480376 -4.6367009 64.64933214 -4.64220726 57.19383383 C-4.64673848 50.80403963 -4.6473889 44.41425369 -4.6447686 38.02445841 C-4.64320587 34.20314492 -4.64301194 30.38184429 -4.64630508 26.56053162 C-4.64918392 22.96878714 -4.64720788 19.37707808 -4.64141083 15.78533745 C-4.6394477 13.83057072 -4.64243703 11.87580102 -4.64553833 9.92103577 C-4.64271851 8.76836716 -4.63989868 7.61569855 -4.63699341 6.42810059 C-4.63661638 5.42003609 -4.63623936 4.41197159 -4.63585091 3.37335968 C-4.42864217 -0.34766035 -3.87423958 0.12530579 0 0 Z " fill="#1F1F1F" transform="translate(530.510009765625,790.886474609375)"/>
<path d="M0 0 C2.94322257 1.37225762 5.23315351 3.26809276 7.6875 5.375 C9.0769155 6.48751897 10.46889993 7.59683633 11.86328125 8.703125 C12.55502441 9.26064453 13.24676758 9.81816406 13.95947266 10.39257812 C42.72761286 33.05463066 79.31329539 48.16184877 114.51806641 57.0246582 C119.18280862 58.24505717 122.50927583 59.47558158 126 63 C127.72450955 66.97386983 128.08279872 69.38935943 127.5 73.6875 C125.62903833 77.81920701 124.08392108 79.07362213 120 81 C113.95208185 81.49824421 108.75675747 80.13133851 103 78.5 C102.04303223 78.23227783 101.08606445 77.96455566 100.10009766 77.6887207 C60.49190728 66.37255558 22.04242545 48.12313769 -10 22 C-10.91652344 21.29101562 -11.83304687 20.58203125 -12.77734375 19.8515625 C-15.24854868 17.7929489 -15.89680834 16.95579162 -16.23828125 13.79296875 C-16.43980708 6.71835156 -16.43980708 6.71835156 -14.125 2.9375 C-9.91486098 -0.90115616 -5.4808779 -0.76193854 0 0 Z " fill="#202020" transform="translate(405,509)"/>
<path d="M0 0 C10.56 0 21.12 0 32 0 C34.14694991 4.29389983 33.18585465 10.03328579 33.18530273 14.8034668 C33.18748798 16.92582281 33.2056452 19.04765795 33.22460938 21.16992188 C33.22754367 22.51822739 33.22952823 23.86653537 33.23046875 25.21484375 C33.23457764 26.44323975 33.23868652 27.67163574 33.24291992 28.93725586 C33 32 33 32 31 35 C27.92724609 35.34057617 27.92724609 35.34057617 24.0234375 35.29296875 C23.33819 35.28872391 22.6529425 35.28447906 21.94692993 35.28010559 C19.75588871 35.26329753 17.56576368 35.22564405 15.375 35.1875 C13.89063827 35.17245579 12.40626215 35.15876693 10.921875 35.14648438 C7.28095167 35.1133879 3.64056522 35.06159207 0 35 C-2.09596212 31.55737701 -2.25731787 28.83829109 -2.265625 24.84375 C-2.26820313 23.65652344 -2.27078125 22.46929688 -2.2734375 21.24609375 C-2.26570312 20.00988281 -2.25796875 18.77367187 -2.25 17.5 C-2.25773438 16.26378906 -2.26546875 15.02757812 -2.2734375 13.75390625 C-2.27085937 12.56667969 -2.26828125 11.37945313 -2.265625 10.15625 C-2.26336914 9.07150391 -2.26111328 7.98675781 -2.25878906 6.86914062 C-2 4 -2 4 0 0 Z " fill="#1F1F1F" transform="translate(530,750)"/>
<path d="M0 0 C4.1210475 3.72067773 7.69173374 7.98623626 11.3125 12.1875 C11.8806543 12.84516357 12.44880859 13.50282715 13.03417969 14.18041992 C27.53942456 31.04348781 27.53942456 31.04348781 27 39 C25.29037614 42.8466537 23.83255442 44.40310233 20 46 C16.02590935 46.84412076 12.50933453 46.89580733 8.953125 44.78515625 C6.81648704 42.96901399 4.91164367 41.05188008 3 39 C1.93652344 37.89398438 1.93652344 37.89398438 0.8515625 36.765625 C-3.47043454 32.12516502 -7.5333293 27.25834885 -11.5 22.3125 C-11.9336084 21.79026855 -12.3672168 21.26803711 -12.81396484 20.72998047 C-15.81280195 16.90114031 -16.73508024 13.82614698 -17 9 C-15.95364899 4.50069065 -13.76013688 2.56789836 -10 0 C-6.1544104 -1.2818632 -3.93271581 -0.94927623 0 0 Z " fill="#1F1F1F" transform="translate(357,460)"/>
</svg>
